%
M48
M72
T01C0.02756
T02C0.03268
T03C0.03543
T04C0.03937
T05C0.04000
T06C0.07874
%
T01
X249145Y34145
X281020Y72895
X281020Y80395
X309770Y88520
X343933Y78520
T02
X288395Y54145
X288395Y44145
X288395Y34145
X288395Y24145
X257395Y24145
X257395Y34145
X257395Y44145
X257395Y54145
T03
X300395Y54770
X300395Y24770
T04
X84105Y25213
X94105Y25213
X104105Y25213
X114105Y25213
X124105Y25213
X134105Y25213
X144105Y25213
X154105Y25213
X164105Y25213
X174105Y25213
X184105Y25213
X194105Y25213
X204105Y25213
X214105Y25213
X224105Y25213
X224105Y125232
X214105Y125232
X204105Y125232
X194105Y125232
X184105Y125232
X174105Y125232
X164105Y125232
X154105Y125232
X144105Y125232
X134105Y125232
X124105Y125232
X114105Y125232
X104105Y125232
X94105Y125232
X84105Y125232
T05
X109145Y93520
X119145Y93520
X129145Y93520
X139145Y93520
X149145Y93520
X159145Y93520
X169145Y93520
X179145Y93520
X189145Y93520
X199145Y93520
X199145Y63520
X189145Y63520
X179145Y63520
X169145Y63520
X159145Y63520
X149145Y63520
X139145Y63520
X129145Y63520
X119145Y63520
X109145Y63520
X27895Y68520
X27895Y58520
X27895Y78520
X27895Y88520
X266020Y90395
X266020Y80395
X266020Y70395
X324145Y68520
X324145Y58520
X324145Y78520
X324145Y88520
X266020Y110395
X266020Y120395
X266020Y130395
T06
X55395Y84770
X55395Y64770
M30
