  0
SECTION
  2
HEADER
  9
$ACADVER
  1
AC1009
  9
$FILLMODE
 70
0
  9
$EXTMIN
 10
-0.1668
 20
-0.7618
 30
0.0000
  9
$EXTMAX
 10
67.2926
 20
30.5450
 30
0.0000
  0
ENDSEC
  0
SECTION
  2
TABLES
  0
TABLE
  2
LTYPE
 70
1
  0
LTYPE
  2
CONTINUOUS
 70
64
  3
Solid line
 72
65
 73
0
 40
0
  0
ENDTAB
  0
TABLE
  2
LAYER
 70
255
  0
LAYER
  2
1
 70
64
 62
12
  6
CONTINUOUS
  0
LAYER
  2
16
 70
64
 62
132
  6
CONTINUOUS
  0
LAYER
  2
17
 70
64
 62
110
  6
CONTINUOUS
  0
LAYER
  2
18
 70
64
 62
110
  6
CONTINUOUS
  0
LAYER
  2
19
 70
64
 62
53
  6
CONTINUOUS
  0
LAYER
  2
20
 70
64
 62
31
  6
CONTINUOUS
  0
LAYER
  2
21
 70
64
 62
253
  6
CONTINUOUS
  0
LAYER
  2
22
 70
64
 62
253
  6
CONTINUOUS
  0
LAYER
  2
23
 70
64
 62
53
  6
CONTINUOUS
  0
LAYER
  2
24
 70
64
 62
53
  6
CONTINUOUS
  0
LAYER
  2
25
 70
64
 62
253
  6
CONTINUOUS
  0
LAYER
  2
26
 70
64
 62
253
  6
CONTINUOUS
  0
LAYER
  2
27
 70
64
 62
253
  6
CONTINUOUS
  0
LAYER
  2
28
 70
64
 62
253
  6
CONTINUOUS
  0
LAYER
  2
39
 70
64
 62
12
  6
CONTINUOUS
  0
LAYER
  2
40
 70
64
 62
132
  6
CONTINUOUS
  0
LAYER
  2
41
 70
64
 62
12
  6
CONTINUOUS
  0
LAYER
  2
42
 70
64
 62
132
  6
CONTINUOUS
  0
LAYER
  2
43
 70
64
 62
110
  6
CONTINUOUS
  0
LAYER
  2
48
 70
64
 62
253
  6
CONTINUOUS
  0
LAYER
  2
49
 70
64
 62
253
  6
CONTINUOUS
  0
LAYER
  2
51
 70
64
 62
253
  6
CONTINUOUS
  0
LAYER
  2
52
 70
64
 62
253
  6
CONTINUOUS
  0
LAYER
  2
101
 70
64
 62
1
  6
CONTINUOUS
  0
LAYER
  2
102
 70
64
 62
253
  6
CONTINUOUS
  0
LAYER
  2
103
 70
64
 62
253
  6
CONTINUOUS
  0
LAYER
  2
104
 70
64
 62
41
  6
CONTINUOUS
  0
LAYER
  2
105
 70
64
 62
253
  6
CONTINUOUS
  0
LAYER
  2
106
 70
64
 62
253
  6
CONTINUOUS
  0
LAYER
  2
107
 70
64
 62
253
  6
CONTINUOUS
  0
LAYER
  2
108
 70
64
 62
3
  6
CONTINUOUS
  0
LAYER
  2
109
 70
64
 62
4
  6
CONTINUOUS
  0
LAYER
  2
110
 70
64
 62
253
  6
CONTINUOUS
  0
LAYER
  2
111
 70
64
 62
253
  6
CONTINUOUS
  0
LAYER
  2
112
 70
64
 62
253
  6
CONTINUOUS
  0
LAYER
  2
113
 70
64
 62
12
  6
CONTINUOUS
  0
LAYER
  2
116
 70
64
 62
5
  6
CONTINUOUS
  0
LAYER
  2
121
 70
64
 62
253
  6
CONTINUOUS
  0
LAYER
  2
122
 70
64
 62
253
  6
CONTINUOUS
  0
LAYER
  2
123
 70
64
 62
253
  6
CONTINUOUS
  0
LAYER
  2
124
 70
64
 62
253
  6
CONTINUOUS
  0
LAYER
  2
125
 70
64
 62
253
  6
CONTINUOUS
  0
LAYER
  2
126
 70
64
 62
253
  6
CONTINUOUS
  0
LAYER
  2
127
 70
64
 62
253
  6
CONTINUOUS
  0
LAYER
  2
128
 70
64
 62
253
  6
CONTINUOUS
  0
LAYER
  2
129
 70
64
 62
253
  6
CONTINUOUS
  0
LAYER
  2
131
 70
64
 62
253
  6
CONTINUOUS
  0
LAYER
  2
132
 70
64
 62
253
  6
CONTINUOUS
  0
LAYER
  2
144
 70
64
 62
253
  6
CONTINUOUS
  0
LAYER
  2
150
 70
64
 62
253
  6
CONTINUOUS
  0
LAYER
  2
151
 70
64
 62
253
  6
CONTINUOUS
  0
LAYER
  2
152
 70
64
 62
253
  6
CONTINUOUS
  0
LAYER
  2
153
 70
64
 62
253
  6
CONTINUOUS
  0
LAYER
  2
154
 70
64
 62
253
  6
CONTINUOUS
  0
LAYER
  2
155
 70
64
 62
253
  6
CONTINUOUS
  0
LAYER
  2
199
 70
64
 62
253
  6
CONTINUOUS
  0
LAYER
  2
200
 70
64
 62
132
  6
CONTINUOUS
  0
LAYER
  2
201
 70
64
 62
110
  6
CONTINUOUS
  0
LAYER
  2
202
 70
64
 62
140
  6
CONTINUOUS
  0
LAYER
  2
203
 70
64
 62
12
  6
CONTINUOUS
  0
LAYER
  2
204
 70
64
 62
40
  6
CONTINUOUS
  0
LAYER
  2
205
 70
64
 62
53
  6
CONTINUOUS
  0
LAYER
  2
206
 70
64
 62
253
  6
CONTINUOUS
  0
LAYER
  2
207
 70
64
 62
59
  6
CONTINUOUS
  0
LAYER
  2
208
 70
64
 62
5
  6
CONTINUOUS
  0
LAYER
  2
209
 70
64
 62
253
  6
CONTINUOUS
  0
LAYER
  2
210
 70
64
 62
253
  6
CONTINUOUS
  0
LAYER
  2
211
 70
64
 62
253
  6
CONTINUOUS
  0
LAYER
  2
212
 70
64
 62
253
  6
CONTINUOUS
  0
LAYER
  2
213
 70
64
 62
253
  6
CONTINUOUS
  0
LAYER
  2
214
 70
64
 62
253
  6
CONTINUOUS
  0
LAYER
  2
215
 70
64
 62
253
  6
CONTINUOUS
  0
LAYER
  2
216
 70
64
 62
253
  6
CONTINUOUS
  0
LAYER
  2
225
 70
64
 62
253
  6
CONTINUOUS
  0
LAYER
  2
226
 70
64
 62
253
  6
CONTINUOUS
  0
LAYER
  2
227
 70
64
 62
253
  6
CONTINUOUS
  0
LAYER
  2
228
 70
64
 62
253
  6
CONTINUOUS
  0
LAYER
  2
229
 70
64
 62
253
  6
CONTINUOUS
  0
LAYER
  2
230
 70
64
 62
253
  6
CONTINUOUS
  0
LAYER
  2
231
 70
64
 62
253
  6
CONTINUOUS
  0
LAYER
  2
232
 70
64
 62
253
  6
CONTINUOUS
  0
LAYER
  2
233
 70
64
 62
253
  6
CONTINUOUS
  0
LAYER
  2
248
 70
64
 62
253
  6
CONTINUOUS
  0
LAYER
  2
249
 70
64
 62
253
  6
CONTINUOUS
  0
LAYER
  2
254
 70
64
 62
253
  6
CONTINUOUS
  0
LAYER
  2
255
 70
64
 62
253
  6
CONTINUOUS
  0
ENDTAB
  0
ENDSEC
  0
SECTION
  2
BLOCKS
  0
BLOCK
  8
0
  2
RECT
 70
64
 10
0.0000
 20
0.0000
 30
0.0000
  3
RECT
  0
SOLID
  8
0
 10
-0.5000
 20
-0.5000
 30
0.0000
 11
0.5000
 21
-0.5000
 31
0.0000
 12
-0.5000
 22
0.5000
 32
0.0000
 13
0.5000
 23
0.5000
 33
0.0000
  0
ENDBLK
  8
0
  0
BLOCK
  8
0
  2
PIE
 70
64
 10
0.0000
 20
0.0000
 30
0.0000
  3
PIE
  0
CIRCLE
  8
0
 10
0.0000
 20
0.0000
 30
0.0000
 40
0.5000
  0
ENDBLK
  8
0
  0
BLOCK
  8
0
  2
OCTAGONP
 70
64
 10
0.0000
 20
0.0000
 30
0.0000
  3
OCTAGONP
  0
POLYLINE
  8
0
 66
1
 10
0.0000
 20
0.0000
 30
0.0000
 40
0.0000
 41
0.0000
 70
1
  0
VERTEX
  8
0
 10
-0.5000
 20
-0.2071
 30
0.0000
  0
VERTEX
  8
0
 10
-0.5000
 20
0.2071
 30
0.0000
  0
VERTEX
  8
0
 10
-0.2071
 20
0.5000
 30
0.0000
  0
VERTEX
  8
0
 10
0.2071
 20
0.5000
 30
0.0000
  0
VERTEX
  8
0
 10
0.5000
 20
0.2071
 30
0.0000
  0
VERTEX
  8
0
 10
0.5000
 20
-0.2071
 30
0.0000
  0
VERTEX
  8
0
 10
0.2071
 20
-0.5000
 30
0.0000
  0
VERTEX
  8
0
 10
-0.2071
 20
-0.5000
 30
0.0000
  0
SEQEND
  8
0
  0
ENDBLK
  8
0
  0
BLOCK
  8
0
  2
SQUAREP
 70
64
 10
0.0000
 20
0.0000
 30
0.0000
  3
SQUAREP
  0
SOLID
  8
0
 10
-0.5000
 20
-0.5000
 30
0.0000
 11
0.5000
 21
-0.5000
 31
0.0000
 12
-0.5000
 22
0.5000
 32
0.0000
 13
0.5000
 23
0.5000
 33
0.0000
  0
ENDBLK
  8
0
  0
BLOCK
  8
0
  2
ROUNDP
 70
64
 10
0.0000
 20
0.0000
 30
0.0000
  3
ROUNDP
  0
CIRCLE
  8
0
 10
0.0000
 20
0.0000
 30
0.0000
 40
0.5000
  0
ENDBLK
  8
0
  0
BLOCK
  8
0
  2
ANNULUSP
 70
64
 10
0.0000
 20
0.0000
 30
0.0000
  3
ANNULUSP
  0
CIRCLE
  8
0
 10
0.0000
 20
0.0000
 30
0.0000
 40
0.5000
  0
ENDBLK
  8
0
  0
BLOCK
  8
0
  2
THERMALP
 70
64
 10
0.0000
 20
0.0000
 30
0.0000
  3
THERMALP
  0
LINE
  8
0
 10
-0.2379
 20
0.4500
 30
0.0000
 11
0.2379
 21
0.4500
 31
0.0000
  0
LINE
  8
0
 10
0.4500
 20
0.2379
 30
0.0000
 11
0.4500
 21
-0.2379
 31
0.0000
  0
LINE
  8
0
 10
0.2379
 20
-0.4500
 30
0.0000
 11
-0.2379
 21
-0.4500
 31
0.0000
  0
LINE
  8
0
 10
-0.4500
 20
-0.2379
 30
0.0000
 11
-0.4500
 21
0.2379
 31
0.0000
  0
ENDBLK
  8
0
  0
BLOCK
  8
0
  2
OCTAGONV
 70
64
 10
0.0000
 20
0.0000
 30
0.0000
  3
OCTAGONV
  0
POLYLINE
  8
0
 66
1
 10
0.0000
 20
0.0000
 30
0.0000
 40
0.0000
 41
0.0000
 70
1
  0
VERTEX
  8
0
 10
-0.5000
 20
-0.2071
 30
0.0000
  0
VERTEX
  8
0
 10
-0.5000
 20
0.2071
 30
0.0000
  0
VERTEX
  8
0
 10
-0.2071
 20
0.5000
 30
0.0000
  0
VERTEX
  8
0
 10
0.2071
 20
0.5000
 30
0.0000
  0
VERTEX
  8
0
 10
0.5000
 20
0.2071
 30
0.0000
  0
VERTEX
  8
0
 10
0.5000
 20
-0.2071
 30
0.0000
  0
VERTEX
  8
0
 10
0.2071
 20
-0.5000
 30
0.0000
  0
VERTEX
  8
0
 10
-0.2071
 20
-0.5000
 30
0.0000
  0
SEQEND
  8
0
  0
ENDBLK
  8
0
  0
BLOCK
  8
0
  2
SQUAREV
 70
64
 10
0.0000
 20
0.0000
 30
0.0000
  3
SQUAREV
  0
SOLID
  8
0
 10
-0.5000
 20
-0.5000
 30
0.0000
 11
0.5000
 21
-0.5000
 31
0.0000
 12
-0.5000
 22
0.5000
 32
0.0000
 13
0.5000
 23
0.5000
 33
0.0000
  0
ENDBLK
  8
0
  0
BLOCK
  8
0
  2
ROUNDV
 70
64
 10
0.0000
 20
0.0000
 30
0.0000
  3
ROUNDV
  0
CIRCLE
  8
0
 10
0.0000
 20
0.0000
 30
0.0000
 40
0.5000
  0
ENDBLK
  8
0
  0
BLOCK
  8
0
  2
ANNULUSV
 70
64
 10
0.0000
 20
0.0000
 30
0.0000
  3
ANNULUSV
  0
CIRCLE
  8
0
 10
0.0000
 20
0.0000
 30
0.0000
 40
0.5000
  0
ENDBLK
  8
0
  0
BLOCK
  8
0
  2
THERMALV
 70
64
 10
0.0000
 20
0.0000
 30
0.0000
  3
THERMALV
  0
LINE
  8
0
 10
-0.2379
 20
0.4500
 30
0.0000
 11
0.2379
 21
0.4500
 31
0.0000
  0
LINE
  8
0
 10
0.4500
 20
0.2379
 30
0.0000
 11
0.4500
 21
-0.2379
 31
0.0000
  0
LINE
  8
0
 10
0.2379
 20
-0.4500
 30
0.0000
 11
-0.2379
 21
-0.4500
 31
0.0000
  0
LINE
  8
0
 10
-0.4500
 20
-0.2379
 30
0.0000
 11
-0.4500
 21
0.2379
 31
0.0000
  0
ENDBLK
  8
0
  0
BLOCK
  8
0
  2
LONGP100
 70
64
 10
0.0000
 20
0.0000
 30
0.0000
  3
LONGP100
  0
POLYLINE
  8
0
 66
1
 10
0.0000
 20
0.0000
 30
0.0000
 40
0.0000
 41
0.0000
 70
1
  0
VERTEX
  8
0
 10
-0.5000
 20
-0.5000
 30
0.0000
  0
VERTEX
  8
0
 10
0.5000
 20
-0.5000
 30
0.0000
 42
1.0000
  0
VERTEX
  8
0
 10
0.5000
 20
0.5000
 30
0.0000
  0
VERTEX
  8
0
 10
-0.5000
 20
0.5000
 30
0.0000
 42
1.0000
  0
SEQEND
  8
0
  0
ENDBLK
  8
0
  0
ENDSEC
  0
SECTION
  2
ENTITIES
  0
LINE
  8
20
 10
0.0000
 20
0.0000
 30
0.0000
 11
67.1513
 21
0.0000
 31
0.0000
  0
LINE
  8
20
 10
67.1513
 20
30.4800
 30
0.0000
 11
0.0000
 21
30.4800
 31
0.0000
  0
LINE
  8
21
 10
13.8113
 20
25.0825
 30
0.0000
 11
13.8113
 21
17.4625
 31
0.0000
  0
LINE
  8
21
 10
13.8113
 20
17.4625
 30
0.0000
 11
39.2112
 21
17.4625
 31
0.0000
  0
LINE
  8
21
 10
39.2112
 20
17.4625
 30
0.0000
 11
39.3700
 21
17.1450
 31
0.0000
  0
LINE
  8
21
 10
39.3700
 20
17.1450
 30
0.0000
 11
39.3700
 21
25.0825
 31
0.0000
  0
LINE
  8
21
 10
13.8113
 20
25.0825
 30
0.0000
 11
39.3700
 21
25.0825
 31
0.0000
  0
LINE
  8
22
 10
13.8113
 20
25.0825
 30
0.0000
 11
13.8113
 21
17.4625
 31
0.0000
  0
LINE
  8
22
 10
13.8113
 20
17.4625
 30
0.0000
 11
39.3700
 21
17.4625
 31
0.0000
  0
LINE
  8
22
 10
39.3700
 20
17.4625
 30
0.0000
 11
39.3700
 21
25.0825
 31
0.0000
  0
LINE
  8
22
 10
39.3700
 20
25.0825
 30
0.0000
 11
13.8113
 21
25.0825
 31
0.0000
  0
LINE
  8
20
 10
67.1513
 20
30.4800
 30
0.0000
 11
67.1513
 21
0.0000
 31
0.0000
  0
LINE
  8
20
 10
0.0000
 20
30.4800
 30
0.0000
 11
0.0000
 21
0.0000
 31
0.0000
  0
LINE
  8
22
 10
15.2913
 20
27.4001
 30
0.0000
 11
15.2913
 21
27.5541
 31
0.0000
  0
LINE
  8
22
 10
15.2913
 20
27.5541
 30
0.0000
 11
14.7781
 21
27.5541
 31
0.0000
  0
LINE
  8
22
 10
14.7781
 20
27.5541
 30
0.0000
 11
14.7781
 21
27.2462
 31
0.0000
  0
ARC
  8
22
 10
14.9834
 20
27.2462
 30
0.0000
 40
0.2053
 50
180.0000
 51
270.0000
  0
LINE
  8
22
 10
14.9834
 20
27.0409
 30
0.0000
 11
15.4966
 21
27.0409
 31
0.0000
  0
ARC
  8
22
 10
15.4966
 20
27.2462
 30
0.0000
 40
0.2053
 50
270.0000
 51
359.9991
  0
LINE
  8
22
 10
15.7019
 20
27.2462
 30
0.0000
 11
15.7019
 21
27.5541
 31
0.0000
  0
LINE
  8
22
 10
14.7781
 20
28.0009
 30
0.0000
 11
15.7019
 21
28.0009
 31
0.0000
  0
LINE
  8
22
 10
15.7019
 20
28.0009
 30
0.0000
 11
14.7781
 21
28.5141
 31
0.0000
  0
LINE
  8
22
 10
14.7781
 20
28.5141
 30
0.0000
 11
15.7019
 21
28.5141
 31
0.0000
  0
LINE
  8
22
 10
14.7781
 20
28.9609
 30
0.0000
 11
15.7019
 21
28.9609
 31
0.0000
  0
LINE
  8
22
 10
15.7019
 20
28.9609
 30
0.0000
 11
15.7019
 21
29.2175
 31
0.0000
  0
ARC
  8
22
 10
15.4453
 20
29.2175
 30
0.0000
 40
0.2566
 50
0.0000
 51
90.0000
  0
LINE
  8
22
 10
15.4453
 20
29.4741
 30
0.0000
 11
15.0347
 21
29.4741
 31
0.0000
  0
ARC
  8
22
 10
15.0347
 20
29.2175
 30
0.0000
 40
0.2566
 50
90.0000
 51
180.0000
  0
LINE
  8
22
 10
14.7781
 20
29.2175
 30
0.0000
 11
14.7781
 21
28.9609
 31
0.0000
  0
LINE
  8
22
 10
42.2729
 20
24.7794
 30
0.0000
 11
42.0162
 21
24.7794
 31
0.0000
  0
ARC
  8
22
 10
42.0162
 20
25.0360
 30
0.0000
 40
0.2566
 50
90.0000
 51
270.0000
  0
LINE
  8
22
 10
42.2729
 20
25.7032
 30
0.0000
 11
41.9649
 21
25.7032
 31
0.0000
  0
ARC
  8
22
 10
41.9649
 20
25.4979
 30
0.0000
 40
0.2053
 50
90.0000
 51
270.0000
  0
LINE
  8
22
 10
41.9649
 20
25.2926
 30
0.0000
 11
42.1702
 21
25.2926
 31
0.0000
  0
LINE
  8
22
 10
41.4242
 20
25.7032
 30
0.0000
 11
41.1163
 21
24.7794
 31
0.0000
  0
LINE
  8
22
 10
41.1163
 20
24.7794
 30
0.0000
 11
40.8083
 21
25.7032
 31
0.0000
  0
LINE
  8
22
 10
40.4729
 20
24.7794
 30
0.0000
 11
40.2163
 21
24.7794
 31
0.0000
  0
ARC
  8
22
 10
40.2163
 20
25.0360
 30
0.0000
 40
0.2566
 50
90.0000
 51
270.0000
  0
LINE
  8
22
 10
40.4729
 20
25.7032
 30
0.0000
 11
40.1649
 21
25.7032
 31
0.0000
  0
ARC
  8
22
 10
40.1649
 20
25.4979
 30
0.0000
 40
0.2053
 50
90.0000
 51
270.0000
  0
LINE
  8
22
 10
40.1649
 20
25.2926
 30
0.0000
 11
40.3702
 21
25.2926
 31
0.0000
  0
LINE
  8
22
 10
42.3435
 20
17.7657
 30
0.0000
 11
42.0356
 21
16.8419
 31
0.0000
  0
LINE
  8
22
 10
42.0356
 20
16.8419
 30
0.0000
 11
41.7277
 21
17.7657
 31
0.0000
  0
LINE
  8
22
 10
41.3622
 20
16.8419
 30
0.0000
 11
41.3622
 21
17.7657
 31
0.0000
  0
LINE
  8
22
 10
41.3622
 20
17.7657
 30
0.0000
 11
41.1056
 21
17.7657
 31
0.0000
  0
ARC
  8
22
 10
41.1056
 20
17.5090
 30
0.0000
 40
0.2566
 50
90.0000
 51
180.0000
  0
LINE
  8
22
 10
40.8490
 20
17.5090
 30
0.0000
 11
40.8490
 21
17.0985
 31
0.0000
  0
ARC
  8
22
 10
41.1056
 20
17.0985
 30
0.0000
 40
0.2566
 50
180.0000
 51
270.0000
  0
LINE
  8
22
 10
41.1056
 20
16.8419
 30
0.0000
 11
41.3622
 21
16.8419
 31
0.0000
  0
LINE
  8
22
 10
40.4022
 20
16.8419
 30
0.0000
 11
40.4022
 21
17.7657
 31
0.0000
  0
LINE
  8
22
 10
40.4022
 20
17.7657
 30
0.0000
 11
40.1456
 21
17.7657
 31
0.0000
  0
ARC
  8
22
 10
40.1456
 20
17.5090
 30
0.0000
 40
0.2566
 50
90.0000
 51
180.0000
  0
LINE
  8
22
 10
39.8890
 20
17.5090
 30
0.0000
 11
39.8890
 21
17.0985
 31
0.0000
  0
ARC
  8
22
 10
40.1456
 20
17.0985
 30
0.0000
 40
0.2566
 50
180.0000
 51
270.0000
  0
LINE
  8
22
 10
40.1456
 20
16.8419
 30
0.0000
 11
40.4022
 21
16.8419
 31
0.0000
  0
LINE
  8
22
 10
6.1721
 20
19.4797
 30
0.0000
 11
4.9404
 21
19.4797
 31
0.0000
  0
LINE
  8
22
 10
5.7936
 20
16.5244
 30
0.0000
 11
5.9988
 21
16.5244
 31
0.0000
  0
ARC
  8
22
 10
5.9988
 20
16.7296
 30
0.0000
 40
0.2053
 50
270.0000
 51
0.0000
  0
LINE
  8
22
 10
6.2041
 20
16.7296
 30
0.0000
 11
6.2041
 21
17.2429
 31
0.0000
  0
ARC
  8
22
 10
5.9988
 20
17.2429
 30
0.0000
 40
0.2053
 50
0.0000
 51
90.0000
  0
LINE
  8
22
 10
5.9988
 20
17.4482
 30
0.0000
 11
5.7936
 21
17.4482
 31
0.0000
  0
LINE
  8
22
 10
5.4216
 20
16.5244
 30
0.0000
 11
5.4216
 21
17.4482
 31
0.0000
  0
LINE
  8
22
 10
5.4216
 20
17.0376
 30
0.0000
 11
4.9084
 21
17.0376
 31
0.0000
  0
LINE
  8
22
 10
4.9084
 20
17.4482
 30
0.0000
 11
4.9084
 21
16.5244
 31
0.0000
  0
LINE
  8
22
 10
5.7431
 20
13.9844
 30
0.0000
 11
5.9484
 21
13.9844
 31
0.0000
  0
ARC
  8
22
 10
5.9484
 20
14.1896
 30
0.0000
 40
0.2053
 50
270.0000
 51
0.0000
  0
LINE
  8
22
 10
6.1537
 20
14.1896
 30
0.0000
 11
6.1537
 21
14.7029
 31
0.0000
  0
ARC
  8
22
 10
5.9484
 20
14.7029
 30
0.0000
 40
0.2053
 50
0.0000
 51
90.0000
  0
LINE
  8
22
 10
5.9484
 20
14.9082
 30
0.0000
 11
5.7431
 21
14.9082
 31
0.0000
  0
LINE
  8
22
 10
5.3694
 20
14.9082
 30
0.0000
 11
5.3694
 21
13.9844
 31
0.0000
  0
LINE
  8
22
 10
5.3694
 20
13.9844
 30
0.0000
 11
4.9588
 21
13.9844
 31
0.0000
  0
LINE
  8
22
 10
5.8642
 20
11.8036
 30
0.0000
 11
5.2483
 21
11.8036
 31
0.0000
  0
LINE
  8
22
 10
5.5563
 20
11.4957
 30
0.0000
 11
5.5563
 21
12.1115
 31
0.0000
  0
LINE
  8
22
 10
62.3696
 20
11.8597
 30
0.0000
 11
61.1379
 21
11.8597
 31
0.0000
  0
LINE
  8
22
 10
61.9911
 20
16.3656
 30
0.0000
 11
62.1963
 21
16.3656
 31
0.0000
  0
ARC
  8
22
 10
62.1963
 20
16.5709
 30
0.0000
 40
0.2053
 50
270.0000
 51
0.0000
  0
LINE
  8
22
 10
62.4016
 20
16.5709
 30
0.0000
 11
62.4016
 21
17.0841
 31
0.0000
  0
ARC
  8
22
 10
62.1963
 20
17.0841
 30
0.0000
 40
0.2053
 50
0.0000
 51
90.0000
  0
LINE
  8
22
 10
62.1963
 20
17.2894
 30
0.0000
 11
61.9911
 21
17.2894
 31
0.0000
  0
LINE
  8
22
 10
61.6191
 20
16.3656
 30
0.0000
 11
61.6191
 21
17.2894
 31
0.0000
  0
LINE
  8
22
 10
61.6191
 20
16.8788
 30
0.0000
 11
61.1059
 21
16.8788
 31
0.0000
  0
LINE
  8
22
 10
61.1059
 20
17.2894
 30
0.0000
 11
61.1059
 21
16.3656
 31
0.0000
  0
LINE
  8
22
 10
61.9406
 20
13.8256
 30
0.0000
 11
62.1459
 21
13.8256
 31
0.0000
  0
ARC
  8
22
 10
62.1459
 20
14.0309
 30
0.0000
 40
0.2053
 50
270.0000
 51
0.0000
  0
LINE
  8
22
 10
62.3512
 20
14.0309
 30
0.0000
 11
62.3512
 21
14.5441
 31
0.0000
  0
ARC
  8
22
 10
62.1459
 20
14.5441
 30
0.0000
 40
0.2053
 50
0.0000
 51
90.0000
  0
LINE
  8
22
 10
62.1459
 20
14.7494
 30
0.0000
 11
61.9406
 21
14.7494
 31
0.0000
  0
LINE
  8
22
 10
61.5669
 20
14.7494
 30
0.0000
 11
61.5669
 21
13.8256
 31
0.0000
  0
LINE
  8
22
 10
61.5669
 20
13.8256
 30
0.0000
 11
61.1563
 21
13.8256
 31
0.0000
  0
LINE
  8
22
 10
62.0617
 20
19.4236
 30
0.0000
 11
61.4458
 21
19.4236
 31
0.0000
  0
LINE
  8
22
 10
61.7538
 20
19.1157
 30
0.0000
 11
61.7538
 21
19.7315
 31
0.0000
  0
LINE
  8
22
 10
12.8397
 20
8.2280
 30
0.0000
 11
14.4653
 21
8.7699
 31
0.0000
  0
LINE
  8
22
 10
14.4653
 20
8.7699
 30
0.0000
 11
12.8397
 21
9.3117
 31
0.0000
  0
LINE
  8
22
 10
13.2461
 20
9.1763
 30
0.0000
 11
13.2461
 21
8.3635
 31
0.0000
  0
LINE
  8
22
 10
14.4653
 20
10.0204
 30
0.0000
 11
12.8397
 21
10.0204
 31
0.0000
  0
LINE
  8
22
 10
12.8397
 20
9.8397
 30
0.0000
 11
12.8397
 21
10.2010
 31
0.0000
  0
LINE
  8
22
 10
14.4653
 20
9.8397
 30
0.0000
 11
14.4653
 21
10.2010
 31
0.0000
  0
LINE
  8
22
 10
12.8397
 20
10.8714
 30
0.0000
 11
14.4653
 21
10.8714
 31
0.0000
  0
LINE
  8
22
 10
14.4653
 20
10.8714
 30
0.0000
 11
12.8397
 21
11.7745
 31
0.0000
  0
LINE
  8
22
 10
12.8397
 20
11.7745
 30
0.0000
 11
14.4653
 21
11.7745
 31
0.0000
  0
LINE
  8
22
 10
28.7147
 20
8.4561
 30
0.0000
 11
30.3403
 21
8.4561
 31
0.0000
  0
LINE
  8
22
 10
30.3403
 20
8.0045
 30
0.0000
 11
30.3403
 21
8.9076
 31
0.0000
  0
LINE
  8
22
 10
28.7147
 20
9.5294
 30
0.0000
 11
30.3403
 21
9.5294
 31
0.0000
  0
LINE
  8
22
 10
30.3403
 20
9.5294
 30
0.0000
 11
29.4372
 21
10.0713
 31
0.0000
  0
LINE
  8
22
 10
29.4372
 20
10.0713
 30
0.0000
 11
30.3403
 21
10.6132
 31
0.0000
  0
LINE
  8
22
 10
30.3403
 20
10.6132
 30
0.0000
 11
28.7147
 21
10.6132
 31
0.0000
  0
LINE
  8
22
 10
28.7147
 20
11.4124
 30
0.0000
 11
30.3403
 21
11.4124
 31
0.0000
  0
LINE
  8
22
 10
30.3403
 20
11.4124
 30
0.0000
 11
30.3403
 21
11.8639
 31
0.0000
  0
ARC
  8
22
 10
29.8887
 20
11.8639
 30
0.0000
 40
0.4516
 50
0.0000
 51
180.0000
  0
LINE
  8
22
 10
29.4372
 20
11.8639
 30
0.0000
 11
29.4372
 21
11.4124
 31
0.0000
  0
LINE
  8
22
 10
30.5436
 20
14.0213
 30
0.0000
 11
30.3896
 21
14.0213
 31
0.0000
  0
LINE
  8
22
 10
30.3896
 20
14.0213
 30
0.0000
 11
30.3896
 21
13.5081
 31
0.0000
  0
LINE
  8
22
 10
30.3896
 20
13.5081
 30
0.0000
 11
30.6976
 21
13.5081
 31
0.0000
  0
ARC
  8
22
 10
30.6976
 20
13.7134
 30
0.0000
 40
0.2053
 50
270.0000
 51
0.0000
  0
LINE
  8
22
 10
30.9029
 20
13.7134
 30
0.0000
 11
30.9029
 21
14.2266
 31
0.0000
  0
ARC
  8
22
 10
30.6976
 20
14.2266
 30
0.0000
 40
0.2053
 50
0.0000
 51
90.0000
  0
LINE
  8
22
 10
30.6976
 20
14.4319
 30
0.0000
 11
30.3896
 21
14.4319
 31
0.0000
  0
LINE
  8
22
 10
29.9429
 20
13.5081
 30
0.0000
 11
29.9429
 21
14.4319
 31
0.0000
  0
LINE
  8
22
 10
29.9429
 20
14.4319
 30
0.0000
 11
29.4296
 21
13.5081
 31
0.0000
  0
LINE
  8
22
 10
29.4296
 20
13.5081
 30
0.0000
 11
29.4296
 21
14.4319
 31
0.0000
  0
LINE
  8
22
 10
28.9829
 20
13.5081
 30
0.0000
 11
28.9829
 21
14.4319
 31
0.0000
  0
LINE
  8
22
 10
28.9829
 20
14.4319
 30
0.0000
 11
28.7263
 21
14.4319
 31
0.0000
  0
ARC
  8
22
 10
28.7263
 20
14.1753
 30
0.0000
 40
0.2566
 50
90.0000
 51
180.0000
  0
LINE
  8
22
 10
28.4696
 20
14.1753
 30
0.0000
 11
28.4696
 21
13.7647
 31
0.0000
  0
ARC
  8
22
 10
28.7263
 20
13.7647
 30
0.0000
 40
0.2566
 50
180.0000
 51
270.0000
  0
LINE
  8
22
 10
28.7263
 20
13.5081
 30
0.0000
 11
28.9829
 21
13.5081
 31
0.0000
  0
LINE
  8
22
 10
30.2341
 20
6.2056
 30
0.0000
 11
29.9775
 21
6.2056
 31
0.0000
  0
ARC
  8
22
 10
29.9775
 20
6.4622
 30
0.0000
 40
0.2566
 50
90.0000
 51
270.0000
  0
LINE
  8
22
 10
30.2341
 20
7.1294
 30
0.0000
 11
29.9262
 21
7.1294
 31
0.0000
  0
ARC
  8
22
 10
29.9262
 20
6.9241
 30
0.0000
 40
0.2053
 50
90.0000
 51
270.0000
  0
LINE
  8
22
 10
29.9262
 20
6.7188
 30
0.0000
 11
30.1315
 21
6.7188
 31
0.0000
  0
LINE
  8
22
 10
29.3341
 20
6.2056
 30
0.0000
 11
29.0775
 21
6.2056
 31
0.0000
  0
ARC
  8
22
 10
29.0775
 20
6.4622
 30
0.0000
 40
0.2566
 50
90.0000
 51
270.0000
  0
LINE
  8
22
 10
29.3341
 20
7.1294
 30
0.0000
 11
29.0262
 21
7.1294
 31
0.0000
  0
ARC
  8
22
 10
29.0262
 20
6.9241
 30
0.0000
 40
0.2053
 50
90.0000
 51
270.0000
  0
LINE
  8
22
 10
29.0262
 20
6.7188
 30
0.0000
 11
29.2315
 21
6.7188
 31
0.0000
  0
LINE
  8
22
 10
14.3591
 20
12.8731
 30
0.0000
 11
14.1025
 21
12.8731
 31
0.0000
  0
ARC
  8
22
 10
14.1025
 20
13.1297
 30
0.0000
 40
0.2566
 50
90.0000
 51
270.0000
  0
LINE
  8
22
 10
14.3591
 20
13.7969
 30
0.0000
 11
14.0512
 21
13.7969
 31
0.0000
  0
ARC
  8
22
 10
14.0512
 20
13.5916
 30
0.0000
 40
0.2053
 50
90.0000
 51
270.0000
  0
LINE
  8
22
 10
14.0512
 20
13.3863
 30
0.0000
 11
14.2565
 21
13.3863
 31
0.0000
  0
ARC
  8
22
 10
13.1768
 20
13.5659
 30
0.0000
 40
0.2310
 50
90.0008
 51
180.0000
  0
ARC
  8
22
 10
13.1768
 20
13.5002
 30
0.0000
 40
0.2967
 50
17.9440
 51
90.0007
  0
ARC
  8
22
 10
13.1939
 20
13.5659
 30
0.0000
 40
0.2480
 50
179.9999
 51
226.3985
  0
LINE
  8
22
 10
13.0229
 20
13.3863
 30
0.0000
 11
13.4591
 21
12.8731
 31
0.0000
  0
LINE
  8
22
 10
13.4591
 20
12.8731
 30
0.0000
 11
12.9459
 21
12.8731
 31
0.0000
  0
LINE
  8
22
 10
14.3511
 20
7.0363
 30
0.0000
 11
14.1971
 21
7.0363
 31
0.0000
  0
LINE
  8
22
 10
14.1971
 20
7.0363
 30
0.0000
 11
14.1971
 21
6.5231
 31
0.0000
  0
LINE
  8
22
 10
14.1971
 20
6.5231
 30
0.0000
 11
14.5051
 21
6.5231
 31
0.0000
  0
ARC
  8
22
 10
14.5051
 20
6.7284
 30
0.0000
 40
0.2053
 50
270.0000
 51
0.0000
  0
LINE
  8
22
 10
14.7104
 20
6.7284
 30
0.0000
 11
14.7104
 21
7.2416
 31
0.0000
  0
ARC
  8
22
 10
14.5051
 20
7.2416
 30
0.0000
 40
0.2053
 50
0.0000
 51
90.0000
  0
LINE
  8
22
 10
14.5051
 20
7.4469
 30
0.0000
 11
14.1971
 21
7.4469
 31
0.0000
  0
LINE
  8
22
 10
13.7504
 20
6.5231
 30
0.0000
 11
13.7504
 21
7.4469
 31
0.0000
  0
LINE
  8
22
 10
13.7504
 20
7.4469
 30
0.0000
 11
13.2371
 21
6.5231
 31
0.0000
  0
LINE
  8
22
 10
13.2371
 20
6.5231
 30
0.0000
 11
13.2371
 21
7.4469
 31
0.0000
  0
LINE
  8
22
 10
12.7904
 20
6.5231
 30
0.0000
 11
12.7904
 21
7.4469
 31
0.0000
  0
LINE
  8
22
 10
12.7904
 20
7.4469
 30
0.0000
 11
12.5338
 21
7.4469
 31
0.0000
  0
ARC
  8
22
 10
12.5338
 20
7.1903
 30
0.0000
 40
0.2566
 50
90.0000
 51
180.0000
  0
LINE
  8
22
 10
12.2771
 20
7.1903
 30
0.0000
 11
12.2771
 21
6.7797
 31
0.0000
  0
ARC
  8
22
 10
12.5338
 20
6.7797
 30
0.0000
 40
0.2566
 50
180.0000
 51
270.0000
  0
LINE
  8
22
 10
12.5338
 20
6.5231
 30
0.0000
 11
12.7904
 21
6.5231
 31
0.0000
  0
LINE
  8
22
 10
46.8117
 20
16.2068
 30
0.0000
 11
47.0170
 21
16.2068
 31
0.0000
  0
ARC
  8
22
 10
47.0170
 20
16.4121
 30
0.0000
 40
0.2053
 50
270.0000
 51
0.0000
  0
LINE
  8
22
 10
47.2223
 20
16.4121
 30
0.0000
 11
47.2223
 21
16.9254
 31
0.0000
  0
ARC
  8
22
 10
47.0170
 20
16.9254
 30
0.0000
 40
0.2053
 50
0.0000
 51
90.0000
  0
LINE
  8
22
 10
47.0170
 20
17.1306
 30
0.0000
 11
46.8117
 21
17.1306
 31
0.0000
  0
LINE
  8
22
 10
46.5211
 20
16.2068
 30
0.0000
 11
46.2131
 21
17.1306
 31
0.0000
  0
LINE
  8
22
 10
46.2131
 20
17.1306
 30
0.0000
 11
45.9052
 21
16.2068
 31
0.0000
  0
LINE
  8
22
 10
45.9822
 20
16.4378
 30
0.0000
 11
46.4441
 21
16.4378
 31
0.0000
  0
LINE
  8
22
 10
45.5397
 20
16.2068
 30
0.0000
 11
45.5397
 21
17.1306
 31
0.0000
  0
LINE
  8
22
 10
45.5397
 20
17.1306
 30
0.0000
 11
45.0265
 21
16.2068
 31
0.0000
  0
LINE
  8
22
 10
45.0265
 20
16.2068
 30
0.0000
 11
45.0265
 21
17.1306
 31
0.0000
  0
LINE
  8
22
 10
44.4131
 20
16.2068
 30
0.0000
 11
44.4131
 21
17.1306
 31
0.0000
  0
LINE
  8
22
 10
44.6698
 20
17.1306
 30
0.0000
 11
44.1565
 21
17.1306
 31
0.0000
  0
LINE
  8
22
 10
43.8811
 20
16.2068
 30
0.0000
 11
43.2652
 21
17.1306
 31
0.0000
  0
LINE
  8
22
 10
43.8811
 20
17.1306
 30
0.0000
 11
43.2652
 21
16.2068
 31
0.0000
  0
LINE
  8
22
 10
46.5692
 20
23.8269
 30
0.0000
 11
46.7745
 21
23.8269
 31
0.0000
  0
ARC
  8
22
 10
46.7745
 20
24.0321
 30
0.0000
 40
0.2053
 50
270.0000
 51
0.0000
  0
LINE
  8
22
 10
46.9798
 20
24.0321
 30
0.0000
 11
46.9798
 21
24.5454
 31
0.0000
  0
ARC
  8
22
 10
46.7745
 20
24.5454
 30
0.0000
 40
0.2053
 50
0.0000
 51
90.0000
  0
LINE
  8
22
 10
46.7745
 20
24.7507
 30
0.0000
 11
46.5692
 21
24.7507
 31
0.0000
  0
LINE
  8
22
 10
46.2786
 20
23.8269
 30
0.0000
 11
45.9706
 21
24.7507
 31
0.0000
  0
LINE
  8
22
 10
45.9706
 20
24.7507
 30
0.0000
 11
45.6627
 21
23.8269
 31
0.0000
  0
LINE
  8
22
 10
45.7397
 20
24.0578
 30
0.0000
 11
46.2016
 21
24.0578
 31
0.0000
  0
LINE
  8
22
 10
45.2972
 20
23.8269
 30
0.0000
 11
45.2972
 21
24.7507
 31
0.0000
  0
LINE
  8
22
 10
45.2972
 20
24.7507
 30
0.0000
 11
44.7840
 21
23.8269
 31
0.0000
  0
LINE
  8
22
 10
44.7840
 20
23.8269
 30
0.0000
 11
44.7840
 21
24.7507
 31
0.0000
  0
LINE
  8
22
 10
44.3316
 20
23.8269
 30
0.0000
 11
44.3316
 21
24.7507
 31
0.0000
  0
LINE
  8
22
 10
44.3316
 20
24.7507
 30
0.0000
 11
44.0750
 21
24.7507
 31
0.0000
  0
ARC
  8
22
 10
44.0750
 20
24.4940
 30
0.0000
 40
0.2566
 50
90.0000
 51
270.0000
  0
LINE
  8
22
 10
44.0750
 20
24.2374
 30
0.0000
 11
44.3316
 21
24.2374
 31
0.0000
  0
LINE
  8
22
 10
43.8184
 20
23.8269
 30
0.0000
 11
44.0237
 21
24.2374
 31
0.0000
  0
LINE
  8
22
 10
43.4886
 20
23.8269
 30
0.0000
 11
42.8727
 21
24.7507
 31
0.0000
  0
LINE
  8
22
 10
43.4886
 20
24.7507
 30
0.0000
 11
42.8727
 21
23.8269
 31
0.0000
  0
LINE
  8
22
 10
47.2460
 20
21.2869
 30
0.0000
 11
46.9381
 21
21.2869
 31
0.0000
  0
ARC
  8
22
 10
46.9381
 20
21.4921
 30
0.0000
 40
0.2053
 50
180.0017
 51
270.0000
  0
LINE
  8
22
 10
46.7328
 20
21.4921
 30
0.0000
 11
46.7328
 21
21.5948
 31
0.0000
  0
ARC
  8
22
 10
46.9381
 20
21.5948
 30
0.0000
 40
0.2053
 50
89.9991
 51
180.0000
  0
LINE
  8
22
 10
46.9381
 20
21.8001
 30
0.0000
 11
47.2460
 21
21.8001
 31
0.0000
  0
LINE
  8
22
 10
47.2460
 20
21.8001
 30
0.0000
 11
47.2460
 21
22.2107
 31
0.0000
  0
LINE
  8
22
 10
47.2460
 20
22.2107
 30
0.0000
 11
46.7328
 21
22.2107
 31
0.0000
  0
LINE
  8
22
 10
46.3973
 20
22.2107
 30
0.0000
 11
46.0894
 21
21.2869
 31
0.0000
  0
LINE
  8
22
 10
46.0894
 20
21.2869
 30
0.0000
 11
45.7815
 21
22.2107
 31
0.0000
  0
LINE
  8
22
 10
46.8949
 20
19.2601
 30
0.0000
 11
46.7409
 21
19.2601
 31
0.0000
  0
LINE
  8
22
 10
46.7409
 20
19.2601
 30
0.0000
 11
46.7409
 21
18.7469
 31
0.0000
  0
LINE
  8
22
 10
46.7409
 20
18.7469
 30
0.0000
 11
47.0488
 21
18.7469
 31
0.0000
  0
ARC
  8
22
 10
47.0488
 20
18.9521
 30
0.0000
 40
0.2053
 50
270.0000
 51
0.0000
  0
LINE
  8
22
 10
47.2541
 20
18.9521
 30
0.0000
 11
47.2541
 21
19.4654
 31
0.0000
  0
ARC
  8
22
 10
47.0488
 20
19.4654
 30
0.0000
 40
0.2053
 50
0.0000
 51
90.0000
  0
LINE
  8
22
 10
47.0488
 20
19.6707
 30
0.0000
 11
46.7409
 21
19.6707
 31
0.0000
  0
LINE
  8
22
 10
46.2941
 20
18.7469
 30
0.0000
 11
46.2941
 21
19.6707
 31
0.0000
  0
LINE
  8
22
 10
46.2941
 20
19.6707
 30
0.0000
 11
45.7809
 21
18.7469
 31
0.0000
  0
LINE
  8
22
 10
45.7809
 20
18.7469
 30
0.0000
 11
45.7809
 21
19.6707
 31
0.0000
  0
LINE
  8
22
 10
45.3341
 20
18.7469
 30
0.0000
 11
45.3341
 21
19.6707
 31
0.0000
  0
LINE
  8
22
 10
45.3341
 20
19.6707
 30
0.0000
 11
45.0775
 21
19.6707
 31
0.0000
  0
ARC
  8
22
 10
45.0775
 20
19.4140
 30
0.0000
 40
0.2566
 50
90.0000
 51
180.0000
  0
LINE
  8
22
 10
44.8209
 20
19.4140
 30
0.0000
 11
44.8209
 21
19.0035
 31
0.0000
  0
ARC
  8
22
 10
45.0775
 20
19.0035
 30
0.0000
 40
0.2566
 50
180.0000
 51
270.0000
  0
LINE
  8
22
 10
45.0775
 20
18.7469
 30
0.0000
 11
45.3341
 21
18.7469
 31
0.0000
  0
LINE
  8
22
 10
58.9748
 20
18.7469
 30
0.0000
 11
59.1801
 21
18.7469
 31
0.0000
  0
ARC
  8
22
 10
59.1801
 20
18.9521
 30
0.0000
 40
0.2053
 50
270.0000
 51
0.0000
  0
LINE
  8
22
 10
59.3854
 20
18.9521
 30
0.0000
 11
59.3854
 21
19.4654
 31
0.0000
  0
ARC
  8
22
 10
59.1801
 20
19.4654
 30
0.0000
 40
0.2053
 50
0.0000
 51
90.0000
  0
LINE
  8
22
 10
59.1801
 20
19.6707
 30
0.0000
 11
58.9748
 21
19.6707
 31
0.0000
  0
LINE
  8
22
 10
58.6028
 20
18.7469
 30
0.0000
 11
58.6028
 21
19.6707
 31
0.0000
  0
LINE
  8
22
 10
58.6028
 20
19.2601
 30
0.0000
 11
58.0896
 21
19.2601
 31
0.0000
  0
LINE
  8
22
 10
58.0896
 20
19.6707
 30
0.0000
 11
58.0896
 21
18.7469
 31
0.0000
  0
LINE
  8
22
 10
58.7656
 20
21.2869
 30
0.0000
 11
58.9709
 21
21.2869
 31
0.0000
  0
ARC
  8
22
 10
58.9709
 20
21.4921
 30
0.0000
 40
0.2053
 50
270.0000
 51
0.0000
  0
LINE
  8
22
 10
59.1762
 20
21.4921
 30
0.0000
 11
59.1762
 21
22.0054
 31
0.0000
  0
ARC
  8
22
 10
58.9709
 20
22.0054
 30
0.0000
 40
0.2053
 50
0.0000
 51
90.0000
  0
LINE
  8
22
 10
58.9709
 20
22.2107
 30
0.0000
 11
58.7656
 21
22.2107
 31
0.0000
  0
LINE
  8
22
 10
58.3919
 20
22.2107
 30
0.0000
 11
58.3919
 21
21.2869
 31
0.0000
  0
LINE
  8
22
 10
58.3919
 20
21.2869
 30
0.0000
 11
57.9813
 21
21.2869
 31
0.0000
  0
LINE
  8
21
 10
44.3242
 20
0.7867
 30
0.0000
 11
44.3242
 21
1.4359
 31
0.0000
  0
LINE
  8
21
 10
44.3242
 20
1.4359
 30
0.0000
 11
44.5045
 21
1.4359
 31
0.0000
  0
ARC
  8
21
 10
44.5045
 20
1.2555
 30
0.0000
 40
0.1803
 50
270.0000
 51
90.0000
  0
LINE
  8
21
 10
44.5045
 20
1.0752
 30
0.0000
 11
44.3242
 21
1.0752
 31
0.0000
  0
LINE
  8
21
 10
44.9453
 20
1.4359
 30
0.0000
 11
44.9453
 21
0.9670
 31
0.0000
  0
ARC
  8
21
 10
45.1256
 20
0.9670
 30
0.0000
 40
0.1803
 50
180.0000
 51
0.0000
  0
LINE
  8
21
 10
45.3059
 20
0.9670
 30
0.0000
 11
45.3059
 21
1.4359
 31
0.0000
  0
LINE
  8
21
 10
45.6185
 20
1.4359
 30
0.0000
 11
45.6185
 21
0.7867
 31
0.0000
  0
LINE
  8
21
 10
45.6185
 20
0.7867
 30
0.0000
 11
45.9070
 21
0.7867
 31
0.0000
  0
LINE
  8
21
 10
46.1645
 20
1.4359
 30
0.0000
 11
46.1645
 21
0.7867
 31
0.0000
  0
LINE
  8
21
 10
46.1645
 20
0.7867
 30
0.0000
 11
46.4530
 21
0.7867
 31
0.0000
  0
LINE
  8
21
 10
46.7093
 20
1.4359
 30
0.0000
 11
46.7093
 21
0.9670
 31
0.0000
  0
ARC
  8
21
 10
46.8896
 20
0.9670
 30
0.0000
 40
0.1803
 50
180.0000
 51
0.0000
  0
LINE
  8
21
 10
47.0699
 20
0.9670
 30
0.0000
 11
47.0699
 21
1.4359
 31
0.0000
  0
LINE
  8
21
 10
47.3902
 20
0.7867
 30
0.0000
 11
47.3902
 21
1.4359
 31
0.0000
  0
LINE
  8
21
 10
47.3902
 20
1.4359
 30
0.0000
 11
47.5705
 21
1.4359
 31
0.0000
  0
ARC
  8
21
 10
47.5705
 20
1.2555
 30
0.0000
 40
0.1803
 50
270.0000
 51
90.0000
  0
LINE
  8
21
 10
47.5705
 20
1.0752
 30
0.0000
 11
47.3902
 21
1.0752
 31
0.0000
  0
POINT
  8
23
 10
15.2400
 20
17.4625
 30
0.0000
  0
LINE
  8
21
 10
29.8450
 20
18.7325
 30
0.0000
 11
31.1150
 21
18.7325
 31
0.0000
  0
LINE
  8
21
 10
31.1150
 20
18.7325
 30
0.0000
 11
31.7500
 21
18.0975
 31
0.0000
  0
LINE
  8
21
 10
31.7500
 20
16.8275
 30
0.0000
 11
31.1150
 21
16.1925
 31
0.0000
  0
LINE
  8
21
 10
26.6700
 20
18.0975
 30
0.0000
 11
27.3050
 21
18.7325
 31
0.0000
  0
LINE
  8
21
 10
27.3050
 20
18.7325
 30
0.0000
 11
28.5750
 21
18.7325
 31
0.0000
  0
LINE
  8
21
 10
28.5750
 20
18.7325
 30
0.0000
 11
29.2100
 21
18.0975
 31
0.0000
  0
LINE
  8
21
 10
29.2100
 20
16.8275
 30
0.0000
 11
28.5750
 21
16.1925
 31
0.0000
  0
LINE
  8
21
 10
28.5750
 20
16.1925
 30
0.0000
 11
27.3050
 21
16.1925
 31
0.0000
  0
LINE
  8
21
 10
27.3050
 20
16.1925
 30
0.0000
 11
26.6700
 21
16.8275
 31
0.0000
  0
LINE
  8
21
 10
29.8450
 20
18.7325
 30
0.0000
 11
29.2100
 21
18.0975
 31
0.0000
  0
LINE
  8
21
 10
29.2100
 20
16.8275
 30
0.0000
 11
29.8450
 21
16.1925
 31
0.0000
  0
LINE
  8
21
 10
31.1150
 20
16.1925
 30
0.0000
 11
29.8450
 21
16.1925
 31
0.0000
  0
LINE
  8
21
 10
22.2250
 20
18.7325
 30
0.0000
 11
23.4950
 21
18.7325
 31
0.0000
  0
LINE
  8
21
 10
23.4950
 20
18.7325
 30
0.0000
 11
24.1300
 21
18.0975
 31
0.0000
  0
LINE
  8
21
 10
24.1300
 20
16.8275
 30
0.0000
 11
23.4950
 21
16.1925
 31
0.0000
  0
LINE
  8
21
 10
24.1300
 20
18.0975
 30
0.0000
 11
24.7650
 21
18.7325
 31
0.0000
  0
LINE
  8
21
 10
24.7650
 20
18.7325
 30
0.0000
 11
26.0350
 21
18.7325
 31
0.0000
  0
LINE
  8
21
 10
26.0350
 20
18.7325
 30
0.0000
 11
26.6700
 21
18.0975
 31
0.0000
  0
LINE
  8
21
 10
26.6700
 20
16.8275
 30
0.0000
 11
26.0350
 21
16.1925
 31
0.0000
  0
LINE
  8
21
 10
26.0350
 20
16.1925
 30
0.0000
 11
24.7650
 21
16.1925
 31
0.0000
  0
LINE
  8
21
 10
24.7650
 20
16.1925
 30
0.0000
 11
24.1300
 21
16.8275
 31
0.0000
  0
LINE
  8
21
 10
19.0500
 20
18.0975
 30
0.0000
 11
19.6850
 21
18.7325
 31
0.0000
  0
LINE
  8
21
 10
19.6850
 20
18.7325
 30
0.0000
 11
20.9550
 21
18.7325
 31
0.0000
  0
LINE
  8
21
 10
20.9550
 20
18.7325
 30
0.0000
 11
21.5900
 21
18.0975
 31
0.0000
  0
LINE
  8
21
 10
21.5900
 20
16.8275
 30
0.0000
 11
20.9550
 21
16.1925
 31
0.0000
  0
LINE
  8
21
 10
20.9550
 20
16.1925
 30
0.0000
 11
19.6850
 21
16.1925
 31
0.0000
  0
LINE
  8
21
 10
19.6850
 20
16.1925
 30
0.0000
 11
19.0500
 21
16.8275
 31
0.0000
  0
LINE
  8
21
 10
22.2250
 20
18.7325
 30
0.0000
 11
21.5900
 21
18.0975
 31
0.0000
  0
LINE
  8
21
 10
21.5900
 20
16.8275
 30
0.0000
 11
22.2250
 21
16.1925
 31
0.0000
  0
LINE
  8
21
 10
23.4950
 20
16.1925
 30
0.0000
 11
22.2250
 21
16.1925
 31
0.0000
  0
LINE
  8
21
 10
14.6050
 20
18.7325
 30
0.0000
 11
15.8750
 21
18.7325
 31
0.0000
  0
LINE
  8
21
 10
15.8750
 20
18.7325
 30
0.0000
 11
16.5100
 21
18.0975
 31
0.0000
  0
LINE
  8
21
 10
16.5100
 20
16.8275
 30
0.0000
 11
15.8750
 21
16.1925
 31
0.0000
  0
LINE
  8
21
 10
16.5100
 20
18.0975
 30
0.0000
 11
17.1450
 21
18.7325
 31
0.0000
  0
LINE
  8
21
 10
17.1450
 20
18.7325
 30
0.0000
 11
18.4150
 21
18.7325
 31
0.0000
  0
LINE
  8
21
 10
18.4150
 20
18.7325
 30
0.0000
 11
19.0500
 21
18.0975
 31
0.0000
  0
LINE
  8
21
 10
19.0500
 20
16.8275
 30
0.0000
 11
18.4150
 21
16.1925
 31
0.0000
  0
LINE
  8
21
 10
18.4150
 20
16.1925
 30
0.0000
 11
17.1450
 21
16.1925
 31
0.0000
  0
LINE
  8
21
 10
17.1450
 20
16.1925
 30
0.0000
 11
16.5100
 21
16.8275
 31
0.0000
  0
LINE
  8
21
 10
13.9700
 20
18.0975
 30
0.0000
 11
13.9700
 21
16.8275
 31
0.0000
  0
LINE
  8
21
 10
14.6050
 20
18.7325
 30
0.0000
 11
13.9700
 21
18.0975
 31
0.0000
  0
LINE
  8
21
 10
13.9700
 20
16.8275
 30
0.0000
 11
14.6050
 21
16.1925
 31
0.0000
  0
LINE
  8
21
 10
15.8750
 20
16.1925
 30
0.0000
 11
14.6050
 21
16.1925
 31
0.0000
  0
LINE
  8
21
 10
32.3850
 20
18.7325
 30
0.0000
 11
33.6550
 21
18.7325
 31
0.0000
  0
LINE
  8
21
 10
33.6550
 20
18.7325
 30
0.0000
 11
34.2900
 21
18.0975
 31
0.0000
  0
LINE
  8
21
 10
34.2900
 20
16.8275
 30
0.0000
 11
33.6550
 21
16.1925
 31
0.0000
  0
LINE
  8
21
 10
32.3850
 20
18.7325
 30
0.0000
 11
31.7500
 21
18.0975
 31
0.0000
  0
LINE
  8
21
 10
31.7500
 20
16.8275
 30
0.0000
 11
32.3850
 21
16.1925
 31
0.0000
  0
LINE
  8
21
 10
33.6550
 20
16.1925
 30
0.0000
 11
32.3850
 21
16.1925
 31
0.0000
  0
LINE
  8
21
 10
34.9250
 20
18.7325
 30
0.0000
 11
36.1950
 21
18.7325
 31
0.0000
  0
LINE
  8
21
 10
36.1950
 20
18.7325
 30
0.0000
 11
36.8300
 21
18.0975
 31
0.0000
  0
LINE
  8
21
 10
36.8300
 20
16.8275
 30
0.0000
 11
36.1950
 21
16.1925
 31
0.0000
  0
LINE
  8
21
 10
34.9250
 20
18.7325
 30
0.0000
 11
34.2900
 21
18.0975
 31
0.0000
  0
LINE
  8
21
 10
34.2900
 20
16.8275
 30
0.0000
 11
34.9250
 21
16.1925
 31
0.0000
  0
LINE
  8
21
 10
36.1950
 20
16.1925
 30
0.0000
 11
34.9250
 21
16.1925
 31
0.0000
  0
LINE
  8
21
 10
37.4650
 20
18.7325
 30
0.0000
 11
38.7350
 21
18.7325
 31
0.0000
  0
LINE
  8
21
 10
38.7350
 20
18.7325
 30
0.0000
 11
39.3700
 21
18.0975
 31
0.0000
  0
LINE
  8
21
 10
39.3700
 20
18.0975
 30
0.0000
 11
39.3700
 21
16.8275
 31
0.0000
  0
LINE
  8
21
 10
39.3700
 20
16.8275
 30
0.0000
 11
38.7350
 21
16.1925
 31
0.0000
  0
LINE
  8
21
 10
37.4650
 20
18.7325
 30
0.0000
 11
36.8300
 21
18.0975
 31
0.0000
  0
LINE
  8
21
 10
36.8300
 20
16.8275
 30
0.0000
 11
37.4650
 21
16.1925
 31
0.0000
  0
LINE
  8
21
 10
38.7350
 20
16.1925
 30
0.0000
 11
37.4650
 21
16.1925
 31
0.0000
  0
INSERT
  8
51
  2
RECT
 10
30.4800
 20
17.4625
 30
0.0000
 41
0.5080
 42
0.5080
 43
1.0000
 50
0.0000
  0
INSERT
  8
51
  2
RECT
 10
27.9400
 20
17.4625
 30
0.0000
 41
0.5080
 42
0.5080
 43
1.0000
 50
0.0000
  0
INSERT
  8
51
  2
RECT
 10
25.4000
 20
17.4625
 30
0.0000
 41
0.5080
 42
0.5080
 43
1.0000
 50
0.0000
  0
INSERT
  8
51
  2
RECT
 10
22.8600
 20
17.4625
 30
0.0000
 41
0.5080
 42
0.5080
 43
1.0000
 50
0.0000
  0
INSERT
  8
51
  2
RECT
 10
20.3200
 20
17.4625
 30
0.0000
 41
0.5080
 42
0.5080
 43
1.0000
 50
0.0000
  0
INSERT
  8
51
  2
RECT
 10
17.7800
 20
17.4625
 30
0.0000
 41
0.5080
 42
0.5080
 43
1.0000
 50
0.0000
  0
INSERT
  8
51
  2
RECT
 10
15.2400
 20
17.4625
 30
0.0000
 41
0.5080
 42
0.5080
 43
1.0000
 50
0.0000
  0
INSERT
  8
51
  2
RECT
 10
33.0200
 20
17.4625
 30
0.0000
 41
0.5080
 42
0.5080
 43
1.0000
 50
0.0000
  0
INSERT
  8
51
  2
RECT
 10
35.5600
 20
17.4625
 30
0.0000
 41
0.5080
 42
0.5080
 43
1.0000
 50
0.0000
  0
INSERT
  8
51
  2
RECT
 10
38.1000
 20
17.4625
 30
0.0000
 41
0.5080
 42
0.5080
 43
1.0000
 50
0.0000
  0
INSERT
  8
17
  2
ROUNDP
 10
15.2400
 20
17.4625
 30
0.0000
 41
1.8796
 42
1.8796
 43
1.0000
 50
90.0000
  0
INSERT
  8
17
  2
ROUNDP
 10
15.2400
 20
17.4625
 30
0.0000
 41
1.8796
 42
1.8796
 43
1.0000
 50
90.0000
  0
INSERT
  8
17
  2
ROUNDP
 10
17.7800
 20
17.4625
 30
0.0000
 41
1.8796
 42
1.8796
 43
1.0000
 50
90.0000
  0
INSERT
  8
17
  2
ROUNDP
 10
17.7800
 20
17.4625
 30
0.0000
 41
1.8796
 42
1.8796
 43
1.0000
 50
90.0000
  0
INSERT
  8
17
  2
ROUNDP
 10
20.3200
 20
17.4625
 30
0.0000
 41
1.8796
 42
1.8796
 43
1.0000
 50
90.0000
  0
INSERT
  8
17
  2
ROUNDP
 10
20.3200
 20
17.4625
 30
0.0000
 41
1.8796
 42
1.8796
 43
1.0000
 50
90.0000
  0
INSERT
  8
17
  2
ROUNDP
 10
22.8600
 20
17.4625
 30
0.0000
 41
1.8796
 42
1.8796
 43
1.0000
 50
90.0000
  0
INSERT
  8
17
  2
ROUNDP
 10
22.8600
 20
17.4625
 30
0.0000
 41
1.8796
 42
1.8796
 43
1.0000
 50
90.0000
  0
INSERT
  8
17
  2
ROUNDP
 10
25.4000
 20
17.4625
 30
0.0000
 41
1.8796
 42
1.8796
 43
1.0000
 50
90.0000
  0
INSERT
  8
17
  2
ROUNDP
 10
25.4000
 20
17.4625
 30
0.0000
 41
1.8796
 42
1.8796
 43
1.0000
 50
90.0000
  0
INSERT
  8
17
  2
ROUNDP
 10
27.9400
 20
17.4625
 30
0.0000
 41
1.8796
 42
1.8796
 43
1.0000
 50
90.0000
  0
INSERT
  8
17
  2
ROUNDP
 10
27.9400
 20
17.4625
 30
0.0000
 41
1.8796
 42
1.8796
 43
1.0000
 50
90.0000
  0
INSERT
  8
17
  2
ROUNDP
 10
30.4800
 20
17.4625
 30
0.0000
 41
1.8796
 42
1.8796
 43
1.0000
 50
90.0000
  0
INSERT
  8
17
  2
ROUNDP
 10
30.4800
 20
17.4625
 30
0.0000
 41
1.8796
 42
1.8796
 43
1.0000
 50
90.0000
  0
INSERT
  8
17
  2
ROUNDP
 10
33.0200
 20
17.4625
 30
0.0000
 41
1.8796
 42
1.8796
 43
1.0000
 50
90.0000
  0
INSERT
  8
17
  2
ROUNDP
 10
33.0200
 20
17.4625
 30
0.0000
 41
1.8796
 42
1.8796
 43
1.0000
 50
90.0000
  0
INSERT
  8
17
  2
ROUNDP
 10
35.5600
 20
17.4625
 30
0.0000
 41
1.8796
 42
1.8796
 43
1.0000
 50
90.0000
  0
INSERT
  8
17
  2
ROUNDP
 10
35.5600
 20
17.4625
 30
0.0000
 41
1.8796
 42
1.8796
 43
1.0000
 50
90.0000
  0
INSERT
  8
17
  2
ROUNDP
 10
38.1000
 20
17.4625
 30
0.0000
 41
1.8796
 42
1.8796
 43
1.0000
 50
90.0000
  0
INSERT
  8
17
  2
ROUNDP
 10
38.1000
 20
17.4625
 30
0.0000
 41
1.8796
 42
1.8796
 43
1.0000
 50
90.0000
  0
LINE
  8
25
 10
14.1944
 20
19.4056
 30
0.0000
 11
14.1944
 21
19.0302
 31
0.0000
  0
ARC
  8
25
 10
14.0871
 20
19.0302
 30
0.0000
 40
0.1072
 50
270.0000
 51
0.0000
  0
LINE
  8
25
 10
14.0871
 20
18.9230
 30
0.0000
 11
14.0335
 21
18.9230
 31
0.0000
  0
LINE
  8
25
 10
14.4892
 20
19.2984
 30
0.0000
 11
14.6232
 21
19.4056
 31
0.0000
  0
LINE
  8
25
 10
14.6232
 20
19.4056
 30
0.0000
 11
14.6232
 21
18.9230
 31
0.0000
  0
LINE
  8
25
 10
14.4892
 20
18.9230
 30
0.0000
 11
14.7573
 21
18.9230
 31
0.0000
  0
POINT
  8
23
 10
38.1000
 20
25.0825
 30
0.0000
  0
LINE
  8
21
 10
23.4950
 20
23.8125
 30
0.0000
 11
22.2250
 21
23.8125
 31
0.0000
  0
LINE
  8
21
 10
22.2250
 20
23.8125
 30
0.0000
 11
21.5900
 21
24.4475
 31
0.0000
  0
LINE
  8
21
 10
21.5900
 20
25.7175
 30
0.0000
 11
22.2250
 21
26.3525
 31
0.0000
  0
LINE
  8
21
 10
26.6700
 20
24.4475
 30
0.0000
 11
26.0350
 21
23.8125
 31
0.0000
  0
LINE
  8
21
 10
26.0350
 20
23.8125
 30
0.0000
 11
24.7650
 21
23.8125
 31
0.0000
  0
LINE
  8
21
 10
24.7650
 20
23.8125
 30
0.0000
 11
24.1300
 21
24.4475
 31
0.0000
  0
LINE
  8
21
 10
24.1300
 20
25.7175
 30
0.0000
 11
24.7650
 21
26.3525
 31
0.0000
  0
LINE
  8
21
 10
24.7650
 20
26.3525
 30
0.0000
 11
26.0350
 21
26.3525
 31
0.0000
  0
LINE
  8
21
 10
26.0350
 20
26.3525
 30
0.0000
 11
26.6700
 21
25.7175
 31
0.0000
  0
LINE
  8
21
 10
23.4950
 20
23.8125
 30
0.0000
 11
24.1300
 21
24.4475
 31
0.0000
  0
LINE
  8
21
 10
24.1300
 20
25.7175
 30
0.0000
 11
23.4950
 21
26.3525
 31
0.0000
  0
LINE
  8
21
 10
22.2250
 20
26.3525
 30
0.0000
 11
23.4950
 21
26.3525
 31
0.0000
  0
LINE
  8
21
 10
31.1150
 20
23.8125
 30
0.0000
 11
29.8450
 21
23.8125
 31
0.0000
  0
LINE
  8
21
 10
29.8450
 20
23.8125
 30
0.0000
 11
29.2100
 21
24.4475
 31
0.0000
  0
LINE
  8
21
 10
29.2100
 20
25.7175
 30
0.0000
 11
29.8450
 21
26.3525
 31
0.0000
  0
LINE
  8
21
 10
29.2100
 20
24.4475
 30
0.0000
 11
28.5750
 21
23.8125
 31
0.0000
  0
LINE
  8
21
 10
28.5750
 20
23.8125
 30
0.0000
 11
27.3050
 21
23.8125
 31
0.0000
  0
LINE
  8
21
 10
27.3050
 20
23.8125
 30
0.0000
 11
26.6700
 21
24.4475
 31
0.0000
  0
LINE
  8
21
 10
26.6700
 20
25.7175
 30
0.0000
 11
27.3050
 21
26.3525
 31
0.0000
  0
LINE
  8
21
 10
27.3050
 20
26.3525
 30
0.0000
 11
28.5750
 21
26.3525
 31
0.0000
  0
LINE
  8
21
 10
28.5750
 20
26.3525
 30
0.0000
 11
29.2100
 21
25.7175
 31
0.0000
  0
LINE
  8
21
 10
34.2900
 20
24.4475
 30
0.0000
 11
33.6550
 21
23.8125
 31
0.0000
  0
LINE
  8
21
 10
33.6550
 20
23.8125
 30
0.0000
 11
32.3850
 21
23.8125
 31
0.0000
  0
LINE
  8
21
 10
32.3850
 20
23.8125
 30
0.0000
 11
31.7500
 21
24.4475
 31
0.0000
  0
LINE
  8
21
 10
31.7500
 20
25.7175
 30
0.0000
 11
32.3850
 21
26.3525
 31
0.0000
  0
LINE
  8
21
 10
32.3850
 20
26.3525
 30
0.0000
 11
33.6550
 21
26.3525
 31
0.0000
  0
LINE
  8
21
 10
33.6550
 20
26.3525
 30
0.0000
 11
34.2900
 21
25.7175
 31
0.0000
  0
LINE
  8
21
 10
31.1150
 20
23.8125
 30
0.0000
 11
31.7500
 21
24.4475
 31
0.0000
  0
LINE
  8
21
 10
31.7500
 20
25.7175
 30
0.0000
 11
31.1150
 21
26.3525
 31
0.0000
  0
LINE
  8
21
 10
29.8450
 20
26.3525
 30
0.0000
 11
31.1150
 21
26.3525
 31
0.0000
  0
LINE
  8
21
 10
38.7350
 20
23.8125
 30
0.0000
 11
37.4650
 21
23.8125
 31
0.0000
  0
LINE
  8
21
 10
37.4650
 20
23.8125
 30
0.0000
 11
36.8300
 21
24.4475
 31
0.0000
  0
LINE
  8
21
 10
36.8300
 20
25.7175
 30
0.0000
 11
37.4650
 21
26.3525
 31
0.0000
  0
LINE
  8
21
 10
36.8300
 20
24.4475
 30
0.0000
 11
36.1950
 21
23.8125
 31
0.0000
  0
LINE
  8
21
 10
36.1950
 20
23.8125
 30
0.0000
 11
34.9250
 21
23.8125
 31
0.0000
  0
LINE
  8
21
 10
34.9250
 20
23.8125
 30
0.0000
 11
34.2900
 21
24.4475
 31
0.0000
  0
LINE
  8
21
 10
34.2900
 20
25.7175
 30
0.0000
 11
34.9250
 21
26.3525
 31
0.0000
  0
LINE
  8
21
 10
34.9250
 20
26.3525
 30
0.0000
 11
36.1950
 21
26.3525
 31
0.0000
  0
LINE
  8
21
 10
36.1950
 20
26.3525
 30
0.0000
 11
36.8300
 21
25.7175
 31
0.0000
  0
LINE
  8
21
 10
39.3700
 20
24.4475
 30
0.0000
 11
39.3700
 21
25.7175
 31
0.0000
  0
LINE
  8
21
 10
38.7350
 20
23.8125
 30
0.0000
 11
39.3700
 21
24.4475
 31
0.0000
  0
LINE
  8
21
 10
39.3700
 20
25.7175
 30
0.0000
 11
38.7350
 21
26.3525
 31
0.0000
  0
LINE
  8
21
 10
37.4650
 20
26.3525
 30
0.0000
 11
38.7350
 21
26.3525
 31
0.0000
  0
LINE
  8
21
 10
20.9550
 20
23.8125
 30
0.0000
 11
19.6850
 21
23.8125
 31
0.0000
  0
LINE
  8
21
 10
19.6850
 20
23.8125
 30
0.0000
 11
19.0500
 21
24.4475
 31
0.0000
  0
LINE
  8
21
 10
19.0500
 20
25.7175
 30
0.0000
 11
19.6850
 21
26.3525
 31
0.0000
  0
LINE
  8
21
 10
20.9550
 20
23.8125
 30
0.0000
 11
21.5900
 21
24.4475
 31
0.0000
  0
LINE
  8
21
 10
21.5900
 20
25.7175
 30
0.0000
 11
20.9550
 21
26.3525
 31
0.0000
  0
LINE
  8
21
 10
19.6850
 20
26.3525
 30
0.0000
 11
20.9550
 21
26.3525
 31
0.0000
  0
LINE
  8
21
 10
18.4150
 20
23.8125
 30
0.0000
 11
17.1450
 21
23.8125
 31
0.0000
  0
LINE
  8
21
 10
17.1450
 20
23.8125
 30
0.0000
 11
16.5100
 21
24.4475
 31
0.0000
  0
LINE
  8
21
 10
16.5100
 20
25.7175
 30
0.0000
 11
17.1450
 21
26.3525
 31
0.0000
  0
LINE
  8
21
 10
18.4150
 20
23.8125
 30
0.0000
 11
19.0500
 21
24.4475
 31
0.0000
  0
LINE
  8
21
 10
19.0500
 20
25.7175
 30
0.0000
 11
18.4150
 21
26.3525
 31
0.0000
  0
LINE
  8
21
 10
17.1450
 20
26.3525
 30
0.0000
 11
18.4150
 21
26.3525
 31
0.0000
  0
LINE
  8
21
 10
15.8750
 20
23.8125
 30
0.0000
 11
14.6050
 21
23.8125
 31
0.0000
  0
LINE
  8
21
 10
14.6050
 20
23.8125
 30
0.0000
 11
13.9700
 21
24.4475
 31
0.0000
  0
LINE
  8
21
 10
13.9700
 20
24.4475
 30
0.0000
 11
13.9700
 21
25.7175
 31
0.0000
  0
LINE
  8
21
 10
13.9700
 20
25.7175
 30
0.0000
 11
14.6050
 21
26.3525
 31
0.0000
  0
LINE
  8
21
 10
15.8750
 20
23.8125
 30
0.0000
 11
16.5100
 21
24.4475
 31
0.0000
  0
LINE
  8
21
 10
16.5100
 20
25.7175
 30
0.0000
 11
15.8750
 21
26.3525
 31
0.0000
  0
LINE
  8
21
 10
14.6050
 20
26.3525
 30
0.0000
 11
15.8750
 21
26.3525
 31
0.0000
  0
INSERT
  8
51
  2
RECT
 10
22.8600
 20
25.0825
 30
0.0000
 41
0.5080
 42
0.5080
 43
1.0000
 50
180.0000
  0
INSERT
  8
51
  2
RECT
 10
25.4000
 20
25.0825
 30
0.0000
 41
0.5080
 42
0.5080
 43
1.0000
 50
180.0000
  0
INSERT
  8
51
  2
RECT
 10
27.9400
 20
25.0825
 30
0.0000
 41
0.5080
 42
0.5080
 43
1.0000
 50
180.0000
  0
INSERT
  8
51
  2
RECT
 10
30.4800
 20
25.0825
 30
0.0000
 41
0.5080
 42
0.5080
 43
1.0000
 50
180.0000
  0
INSERT
  8
51
  2
RECT
 10
33.0200
 20
25.0825
 30
0.0000
 41
0.5080
 42
0.5080
 43
1.0000
 50
180.0000
  0
INSERT
  8
51
  2
RECT
 10
35.5600
 20
25.0825
 30
0.0000
 41
0.5080
 42
0.5080
 43
1.0000
 50
180.0000
  0
INSERT
  8
51
  2
RECT
 10
38.1000
 20
25.0825
 30
0.0000
 41
0.5080
 42
0.5080
 43
1.0000
 50
180.0000
  0
INSERT
  8
51
  2
RECT
 10
20.3200
 20
25.0825
 30
0.0000
 41
0.5080
 42
0.5080
 43
1.0000
 50
180.0000
  0
INSERT
  8
51
  2
RECT
 10
17.7800
 20
25.0825
 30
0.0000
 41
0.5080
 42
0.5080
 43
1.0000
 50
180.0000
  0
INSERT
  8
51
  2
RECT
 10
15.2400
 20
25.0825
 30
0.0000
 41
0.5080
 42
0.5080
 43
1.0000
 50
180.0000
  0
INSERT
  8
17
  2
ROUNDP
 10
38.1000
 20
25.0825
 30
0.0000
 41
1.8796
 42
1.8796
 43
1.0000
 50
270.0000
  0
INSERT
  8
17
  2
ROUNDP
 10
38.1000
 20
25.0825
 30
0.0000
 41
1.8796
 42
1.8796
 43
1.0000
 50
270.0000
  0
INSERT
  8
17
  2
ROUNDP
 10
35.5600
 20
25.0825
 30
0.0000
 41
1.8796
 42
1.8796
 43
1.0000
 50
270.0000
  0
INSERT
  8
17
  2
ROUNDP
 10
35.5600
 20
25.0825
 30
0.0000
 41
1.8796
 42
1.8796
 43
1.0000
 50
270.0000
  0
INSERT
  8
17
  2
ROUNDP
 10
33.0200
 20
25.0825
 30
0.0000
 41
1.8796
 42
1.8796
 43
1.0000
 50
270.0000
  0
INSERT
  8
17
  2
ROUNDP
 10
33.0200
 20
25.0825
 30
0.0000
 41
1.8796
 42
1.8796
 43
1.0000
 50
270.0000
  0
INSERT
  8
17
  2
ROUNDP
 10
30.4800
 20
25.0825
 30
0.0000
 41
1.8796
 42
1.8796
 43
1.0000
 50
270.0000
  0
INSERT
  8
17
  2
ROUNDP
 10
30.4800
 20
25.0825
 30
0.0000
 41
1.8796
 42
1.8796
 43
1.0000
 50
270.0000
  0
INSERT
  8
17
  2
ROUNDP
 10
27.9400
 20
25.0825
 30
0.0000
 41
1.8796
 42
1.8796
 43
1.0000
 50
270.0000
  0
INSERT
  8
17
  2
ROUNDP
 10
27.9400
 20
25.0825
 30
0.0000
 41
1.8796
 42
1.8796
 43
1.0000
 50
270.0000
  0
INSERT
  8
17
  2
ROUNDP
 10
25.4000
 20
25.0825
 30
0.0000
 41
1.8796
 42
1.8796
 43
1.0000
 50
270.0000
  0
INSERT
  8
17
  2
ROUNDP
 10
25.4000
 20
25.0825
 30
0.0000
 41
1.8796
 42
1.8796
 43
1.0000
 50
270.0000
  0
INSERT
  8
17
  2
ROUNDP
 10
22.8600
 20
25.0825
 30
0.0000
 41
1.8796
 42
1.8796
 43
1.0000
 50
270.0000
  0
INSERT
  8
17
  2
ROUNDP
 10
22.8600
 20
25.0825
 30
0.0000
 41
1.8796
 42
1.8796
 43
1.0000
 50
270.0000
  0
INSERT
  8
17
  2
ROUNDP
 10
20.3200
 20
25.0825
 30
0.0000
 41
1.8796
 42
1.8796
 43
1.0000
 50
270.0000
  0
INSERT
  8
17
  2
ROUNDP
 10
20.3200
 20
25.0825
 30
0.0000
 41
1.8796
 42
1.8796
 43
1.0000
 50
270.0000
  0
INSERT
  8
17
  2
ROUNDP
 10
17.7800
 20
25.0825
 30
0.0000
 41
1.8796
 42
1.8796
 43
1.0000
 50
270.0000
  0
INSERT
  8
17
  2
ROUNDP
 10
17.7800
 20
25.0825
 30
0.0000
 41
1.8796
 42
1.8796
 43
1.0000
 50
270.0000
  0
INSERT
  8
17
  2
ROUNDP
 10
15.2400
 20
25.0825
 30
0.0000
 41
1.8796
 42
1.8796
 43
1.0000
 50
270.0000
  0
INSERT
  8
17
  2
ROUNDP
 10
15.2400
 20
25.0825
 30
0.0000
 41
1.8796
 42
1.8796
 43
1.0000
 50
270.0000
  0
LINE
  8
25
 10
38.7436
 20
23.6220
 30
0.0000
 11
38.7436
 21
23.2466
 31
0.0000
  0
ARC
  8
25
 10
38.6364
 20
23.2466
 30
0.0000
 40
0.1072
 50
270.0000
 51
0.0000
  0
LINE
  8
25
 10
38.6364
 20
23.1394
 30
0.0000
 11
38.5827
 21
23.1394
 31
0.0000
  0
ARC
  8
25
 10
39.1859
 20
23.5013
 30
0.0000
 40
0.1207
 50
0.0000
 51
90.0000
  0
ARC
  8
25
 10
39.1859
 20
23.4670
 30
0.0000
 40
0.1550
 50
90.0003
 51
162.0552
  0
ARC
  8
25
 10
39.1769
 20
23.5013
 30
0.0000
 40
0.1296
 50
313.6035
 51
359.9998
  0
LINE
  8
25
 10
39.2663
 20
23.4075
 30
0.0000
 11
39.0384
 21
23.1394
 31
0.0000
  0
LINE
  8
25
 10
39.0384
 20
23.1394
 30
0.0000
 11
39.3065
 21
23.1394
 31
0.0000
  0
POINT
  8
23
 10
58.7375
 20
19.8438
 30
0.0000
  0
LINE
  8
21
 10
57.9755
 20
17.3038
 30
0.0000
 11
57.9755
 21
22.3838
 31
0.0000
  0
LINE
  8
21
 10
57.9755
 20
22.3838
 30
0.0000
 11
58.7375
 21
22.3838
 31
0.0000
  0
LINE
  8
21
 10
58.7375
 20
22.3838
 30
0.0000
 11
59.4995
 21
22.3838
 31
0.0000
  0
LINE
  8
21
 10
59.4995
 20
22.3838
 30
0.0000
 11
59.4995
 21
17.3038
 31
0.0000
  0
LINE
  8
21
 10
59.4995
 20
17.3038
 30
0.0000
 11
58.7375
 21
17.3038
 31
0.0000
  0
LINE
  8
21
 10
58.7375
 20
17.3038
 30
0.0000
 11
57.9755
 21
17.3038
 31
0.0000
  0
LINE
  8
21
 10
58.7375
 20
22.3838
 30
0.0000
 11
58.7375
 21
22.6378
 31
0.0000
  0
LINE
  8
21
 10
58.7375
 20
17.3038
 30
0.0000
 11
58.7375
 21
17.0497
 31
0.0000
  0
INSERT
  8
17
  2
ROUNDP
 10
58.7375
 20
16.0338
 30
0.0000
 41
1.8796
 42
1.8796
 43
1.0000
 50
90.0000
  0
INSERT
  8
17
  2
ROUNDP
 10
58.7375
 20
16.0338
 30
0.0000
 41
1.8796
 42
1.8796
 43
1.0000
 50
90.0000
  0
INSERT
  8
17
  2
ROUNDP
 10
58.7375
 20
23.6538
 30
0.0000
 41
1.8796
 42
1.8796
 43
1.0000
 50
90.0000
  0
INSERT
  8
17
  2
ROUNDP
 10
58.7375
 20
23.6538
 30
0.0000
 41
1.8796
 42
1.8796
 43
1.0000
 50
90.0000
  0
LINE
  8
25
 10
57.6580
 20
19.4386
 30
0.0000
 11
57.1754
 21
19.4386
 31
0.0000
  0
LINE
  8
25
 10
57.1754
 20
19.4386
 30
0.0000
 11
57.1754
 21
19.5726
 31
0.0000
  0
ARC
  8
25
 10
57.3095
 20
19.5726
 30
0.0000
 40
0.1341
 50
0.0000
 51
180.0000
  0
LINE
  8
25
 10
57.4435
 20
19.5726
 30
0.0000
 11
57.4435
 21
19.4386
 31
0.0000
  0
LINE
  8
25
 10
57.6580
 20
19.7067
 30
0.0000
 11
57.4435
 21
19.5994
 31
0.0000
  0
LINE
  8
25
 10
57.2826
 20
19.9808
 30
0.0000
 11
57.1754
 21
20.1149
 31
0.0000
  0
LINE
  8
25
 10
57.1754
 20
20.1149
 30
0.0000
 11
57.6580
 21
20.1149
 31
0.0000
  0
LINE
  8
25
 10
57.6580
 20
19.9808
 30
0.0000
 11
57.6580
 21
20.2489
 31
0.0000
  0
LINE
  8
27
 10
59.9242
 20
18.8551
 30
0.0000
 11
59.8170
 21
18.9891
 31
0.0000
  0
LINE
  8
27
 10
59.8170
 20
18.9891
 30
0.0000
 11
60.2996
 21
18.9891
 31
0.0000
  0
LINE
  8
27
 10
60.2996
 20
18.8551
 30
0.0000
 11
60.2996
 21
19.1232
 31
0.0000
  0
ARC
  8
27
 10
59.9377
 20
19.5511
 30
0.0000
 40
0.1207
 50
90.0000
 51
179.9970
  0
ARC
  8
27
 10
59.9720
 20
19.5511
 30
0.0000
 40
0.1550
 50
179.9969
 51
252.0597
  0
ARC
  8
27
 10
59.9377
 20
19.5422
 30
0.0000
 40
0.1296
 50
43.6035
 51
89.9998
  0
LINE
  8
27
 10
60.0315
 20
19.6316
 30
0.0000
 11
60.2996
 21
19.4037
 31
0.0000
  0
LINE
  8
27
 10
60.2996
 20
19.4037
 30
0.0000
 11
60.2996
 21
19.6718
 31
0.0000
  0
ARC
  8
27
 10
60.0583
 20
20.3500
 30
0.0000
 40
0.3977
 50
244.0116
 51
269.9998
  0
ARC
  8
27
 10
59.9162
 20
20.0864
 30
0.0000
 40
0.0992
 50
179.9994
 51
251.0770
  0
ARC
  8
27
 10
59.9162
 20
20.0864
 30
0.0000
 40
0.0992
 50
108.9235
 51
180.0000
  0
ARC
  8
27
 10
60.0583
 20
19.8227
 30
0.0000
 40
0.3977
 50
90.0003
 51
115.9883
  0
ARC
  8
27
 10
60.0583
 20
20.3500
 30
0.0000
 40
0.3977
 50
270.0000
 51
295.9882
  0
ARC
  8
27
 10
60.2004
 20
20.0864
 30
0.0000
 40
0.0992
 50
288.9260
 51
0.0001
  0
ARC
  8
27
 10
60.0583
 20
19.8227
 30
0.0000
 40
0.3977
 50
64.0119
 51
89.9999
  0
ARC
  8
27
 10
60.2004
 20
20.0864
 30
0.0000
 40
0.0992
 50
359.9995
 51
71.0726
  0
LINE
  8
27
 10
60.1924
 20
19.9791
 30
0.0000
 11
59.9242
 21
20.1936
 31
0.0000
  0
ARC
  8
27
 10
59.9779
 20
20.6716
 30
0.0000
 40
0.1609
 50
180.0000
 51
270.0000
  0
LINE
  8
27
 10
59.9779
 20
20.5107
 30
0.0000
 11
60.0315
 21
20.5107
 31
0.0000
  0
ARC
  8
27
 10
60.0315
 20
20.6626
 30
0.0000
 40
0.1519
 50
269.9998
 51
331.9262
  0
LINE
  8
27
 10
60.1655
 20
20.5912
 30
0.0000
 11
60.2996
 21
20.5912
 31
0.0000
  0
LINE
  8
27
 10
60.2996
 20
20.5912
 30
0.0000
 11
60.2996
 21
20.5107
 31
0.0000
  0
ARC
  8
27
 10
59.9779
 20
20.6716
 30
0.0000
 40
0.1609
 50
89.9989
 51
180.0000
  0
LINE
  8
27
 10
59.9779
 20
20.8325
 30
0.0000
 11
60.0315
 21
20.8325
 31
0.0000
  0
ARC
  8
27
 10
60.0315
 20
20.6805
 30
0.0000
 40
0.1519
 50
28.0738
 51
90.0002
  0
LINE
  8
27
 10
60.1655
 20
20.7520
 30
0.0000
 11
60.2996
 21
20.7520
 31
0.0000
  0
LINE
  8
27
 10
60.2996
 20
20.7520
 30
0.0000
 11
60.2996
 21
20.8325
 31
0.0000
  0
POINT
  8
23
 10
49.6887
 20
1.1113
 30
0.0000
  0
LINE
  8
39
 10
51.2888
 20
0.4113
 30
0.0000
 11
48.0888
 21
0.4113
 31
0.0000
  0
LINE
  8
39
 10
48.0888
 20
0.4113
 30
0.0000
 11
48.0888
 21
1.8113
 31
0.0000
  0
LINE
  8
39
 10
48.0888
 20
1.8113
 30
0.0000
 11
51.2888
 21
1.8113
 31
0.0000
  0
LINE
  8
39
 10
51.2888
 20
1.8113
 30
0.0000
 11
51.2888
 21
0.4113
 31
0.0000
  0
LINE
  8
51
 10
50.0448
 20
0.6793
 30
0.0000
 11
49.3328
 21
0.6793
 31
0.0000
  0
LINE
  8
51
 10
50.0448
 20
1.5303
 30
0.0000
 11
49.3328
 21
1.5303
 31
0.0000
  0
INSERT
  8
51
  2
RECT
 10
50.2769
 20
1.1061
 30
0.0000
 41
0.5001
 42
0.9500
 43
1.0000
 50
180.0000
  0
INSERT
  8
51
  2
RECT
 10
49.1085
 20
1.1061
 30
0.0000
 41
0.5001
 42
0.9500
 43
1.0000
 50
180.0000
  0
INSERT
  8
1
  2
RECT
 10
50.5388
 20
1.1113
 30
0.0000
 41
1.1000
 42
1.0000
 43
1.0000
 50
180.0000
  0
INSERT
  8
1
  2
RECT
 10
48.8388
 20
1.1113
 30
0.0000
 41
1.1000
 42
1.0000
 43
1.0000
 50
180.0000
  0
LINE
  8
25
 10
51.6648
 20
0.7557
 30
0.0000
 11
51.6648
 21
1.2383
 31
0.0000
  0
LINE
  8
25
 10
51.6648
 20
1.2383
 30
0.0000
 11
51.7989
 21
1.2383
 31
0.0000
  0
ARC
  8
25
 10
51.7989
 20
1.1042
 30
0.0000
 40
0.1341
 50
270.0000
 51
90.0000
  0
LINE
  8
25
 10
51.7989
 20
0.9701
 30
0.0000
 11
51.6648
 21
0.9701
 31
0.0000
  0
LINE
  8
25
 10
51.9329
 20
0.7557
 30
0.0000
 11
51.8257
 21
0.9701
 31
0.0000
  0
ARC
  8
25
 10
52.3545
 20
1.1176
 30
0.0000
 40
0.1207
 50
0.0000
 51
90.0000
  0
ARC
  8
25
 10
52.3545
 20
1.0832
 30
0.0000
 40
0.1550
 50
90.0003
 51
162.0552
  0
ARC
  8
25
 10
52.3456
 20
1.1176
 30
0.0000
 40
0.1296
 50
313.6035
 51
359.9998
  0
LINE
  8
25
 10
52.4350
 20
1.0238
 30
0.0000
 11
52.2071
 21
0.7557
 31
0.0000
  0
LINE
  8
25
 10
52.2071
 20
0.7557
 30
0.0000
 11
52.4752
 21
0.7557
 31
0.0000
  0
LINE
  8
27
 10
49.2971
 20
2.3121
 30
0.0000
 11
49.4311
 21
2.4194
 31
0.0000
  0
LINE
  8
27
 10
49.4311
 20
2.4194
 30
0.0000
 11
49.4311
 21
1.9368
 31
0.0000
  0
LINE
  8
27
 10
49.2971
 20
1.9368
 30
0.0000
 11
49.5652
 21
1.9368
 31
0.0000
  0
LINE
  8
27
 10
49.8659
 20
1.9368
 30
0.0000
 11
49.8659
 21
2.4194
 31
0.0000
  0
LINE
  8
27
 10
50.0804
 20
2.2585
 30
0.0000
 11
49.8659
 21
2.0976
 31
0.0000
  0
LINE
  8
27
 10
50.0804
 20
1.9368
 30
0.0000
 11
49.9598
 21
2.1646
 31
0.0000
  0
POINT
  8
23
 10
42.0688
 20
1.1113
 30
0.0000
  0
LINE
  8
39
 10
43.6688
 20
0.4113
 30
0.0000
 11
40.4688
 21
0.4113
 31
0.0000
  0
LINE
  8
39
 10
40.4688
 20
0.4113
 30
0.0000
 11
40.4688
 21
1.8113
 31
0.0000
  0
LINE
  8
39
 10
40.4688
 20
1.8113
 30
0.0000
 11
43.6688
 21
1.8113
 31
0.0000
  0
LINE
  8
39
 10
43.6688
 20
1.8113
 30
0.0000
 11
43.6688
 21
0.4113
 31
0.0000
  0
LINE
  8
51
 10
42.4248
 20
0.6793
 30
0.0000
 11
41.7127
 21
0.6793
 31
0.0000
  0
LINE
  8
51
 10
42.4248
 20
1.5303
 30
0.0000
 11
41.7127
 21
1.5303
 31
0.0000
  0
INSERT
  8
51
  2
RECT
 10
42.6569
 20
1.1061
 30
0.0000
 41
0.5001
 42
0.9500
 43
1.0000
 50
180.0000
  0
INSERT
  8
51
  2
RECT
 10
41.4885
 20
1.1061
 30
0.0000
 41
0.5001
 42
0.9500
 43
1.0000
 50
180.0000
  0
INSERT
  8
1
  2
RECT
 10
42.9188
 20
1.1113
 30
0.0000
 41
1.1000
 42
1.0000
 43
1.0000
 50
180.0000
  0
INSERT
  8
1
  2
RECT
 10
41.2188
 20
1.1113
 30
0.0000
 41
1.1000
 42
1.0000
 43
1.0000
 50
180.0000
  0
LINE
  8
25
 10
39.4411
 20
0.7557
 30
0.0000
 11
39.4411
 21
1.2383
 31
0.0000
  0
LINE
  8
25
 10
39.4411
 20
1.2383
 30
0.0000
 11
39.5751
 21
1.2383
 31
0.0000
  0
ARC
  8
25
 10
39.5751
 20
1.1042
 30
0.0000
 40
0.1341
 50
270.0000
 51
90.0000
  0
LINE
  8
25
 10
39.5751
 20
0.9701
 30
0.0000
 11
39.4411
 21
0.9701
 31
0.0000
  0
LINE
  8
25
 10
39.7092
 20
0.7557
 30
0.0000
 11
39.6019
 21
0.9701
 31
0.0000
  0
LINE
  8
25
 10
39.9833
 20
0.7557
 30
0.0000
 11
40.1174
 21
0.7557
 31
0.0000
  0
ARC
  8
25
 10
40.1174
 20
0.8897
 30
0.0000
 40
0.1341
 50
270.0000
 51
90.0000
  0
LINE
  8
25
 10
39.9833
 20
1.2383
 30
0.0000
 11
40.1442
 21
1.2383
 31
0.0000
  0
ARC
  8
25
 10
40.1442
 20
1.1310
 30
0.0000
 40
0.1072
 50
270.0000
 51
90.0000
  0
LINE
  8
25
 10
40.1442
 20
1.0238
 30
0.0000
 11
40.0370
 21
1.0238
 31
0.0000
  0
LINE
  8
27
 10
41.6771
 20
2.3121
 30
0.0000
 11
41.8111
 21
2.4194
 31
0.0000
  0
LINE
  8
27
 10
41.8111
 20
2.4194
 30
0.0000
 11
41.8111
 21
1.9368
 31
0.0000
  0
LINE
  8
27
 10
41.6771
 20
1.9368
 30
0.0000
 11
41.9452
 21
1.9368
 31
0.0000
  0
LINE
  8
27
 10
42.2459
 20
1.9368
 30
0.0000
 11
42.2459
 21
2.4194
 31
0.0000
  0
LINE
  8
27
 10
42.4604
 20
2.2585
 30
0.0000
 11
42.2459
 21
2.0976
 31
0.0000
  0
LINE
  8
27
 10
42.4604
 20
1.9368
 30
0.0000
 11
42.3398
 21
2.1646
 31
0.0000
  0
POINT
  8
23
 10
34.2900
 20
15.7163
 30
0.0000
  0
LINE
  8
21
 10
7.6400
 20
30.3213
 30
0.0000
 11
59.6400
 21
30.3213
 31
0.0000
  0
LINE
  8
21
 10
59.6400
 20
30.3213
 30
0.0000
 11
59.6400
 21
1.7863
 31
0.0000
  0
LINE
  8
21
 10
59.6400
 20
1.7863
 30
0.0000
 11
7.6400
 21
1.7863
 31
0.0000
  0
LINE
  8
21
 10
7.6400
 20
1.7863
 30
0.0000
 11
7.6400
 21
30.3213
 31
0.0000
  0
LINE
  8
21
 10
18.3919
 20
5.8243
 30
0.0000
 11
18.3919
 21
6.0854
 31
0.0000
  0
ARC
  8
21
 10
18.1308
 20
6.0854
 30
0.0000
 40
0.2611
 50
0.0000
 51
180.0000
  0
LINE
  8
21
 10
17.4521
 20
5.8243
 30
0.0000
 11
17.4521
 21
6.1376
 31
0.0000
  0
ARC
  8
21
 10
17.6609
 20
6.1376
 30
0.0000
 40
0.2088
 50
0.0000
 51
180.0000
  0
LINE
  8
21
 10
17.8698
 20
6.1376
 30
0.0000
 11
17.8698
 21
5.9288
 31
0.0000
  0
LINE
  8
21
 10
17.4521
 20
6.6865
 30
0.0000
 11
18.3919
 21
6.9998
 31
0.0000
  0
LINE
  8
21
 10
18.3919
 20
6.9998
 30
0.0000
 11
17.4521
 21
7.3131
 31
0.0000
  0
LINE
  8
21
 10
18.3919
 20
7.6531
 30
0.0000
 11
18.3919
 21
7.9142
 31
0.0000
  0
ARC
  8
21
 10
18.1308
 20
7.9142
 30
0.0000
 40
0.2611
 50
0.0000
 51
180.0000
  0
LINE
  8
21
 10
17.4521
 20
7.6531
 30
0.0000
 11
17.4521
 21
7.9664
 31
0.0000
  0
ARC
  8
21
 10
17.6609
 20
7.9664
 30
0.0000
 40
0.2088
 50
0.0000
 51
180.0000
  0
LINE
  8
21
 10
17.8698
 20
7.9664
 30
0.0000
 11
17.8698
 21
7.7576
 31
0.0000
  0
LINE
  8
21
 10
20.4098
 20
6.1898
 30
0.0000
 11
20.4098
 21
6.3465
 31
0.0000
  0
LINE
  8
21
 10
20.4098
 20
6.3465
 30
0.0000
 11
20.9319
 21
6.3465
 31
0.0000
  0
LINE
  8
21
 10
20.9319
 20
6.3465
 30
0.0000
 11
20.9319
 21
6.0332
 31
0.0000
  0
ARC
  8
21
 10
20.7231
 20
6.0332
 30
0.0000
 40
0.2088
 50
270.0000
 51
0.0000
  0
LINE
  8
21
 10
20.7231
 20
5.8243
 30
0.0000
 11
20.2009
 21
5.8243
 31
0.0000
  0
ARC
  8
21
 10
20.2009
 20
6.0332
 30
0.0000
 40
0.2089
 50
180.0017
 51
270.0000
  0
LINE
  8
21
 10
19.9921
 20
6.0332
 30
0.0000
 11
19.9921
 21
6.3465
 31
0.0000
  0
LINE
  8
21
 10
20.9319
 20
6.7997
 30
0.0000
 11
19.9921
 21
6.7997
 31
0.0000
  0
LINE
  8
21
 10
19.9921
 20
6.7997
 30
0.0000
 11
20.9319
 21
7.3218
 31
0.0000
  0
LINE
  8
21
 10
20.9319
 20
7.3218
 30
0.0000
 11
19.9921
 21
7.3218
 31
0.0000
  0
LINE
  8
21
 10
20.9319
 20
7.7751
 30
0.0000
 11
19.9921
 21
7.7751
 31
0.0000
  0
LINE
  8
21
 10
19.9921
 20
7.7751
 30
0.0000
 11
19.9921
 21
8.0361
 31
0.0000
  0
ARC
  8
21
 10
20.2532
 20
8.0361
 30
0.0000
 40
0.2611
 50
90.0000
 51
180.0000
  0
LINE
  8
21
 10
20.2532
 20
8.2972
 30
0.0000
 11
20.6708
 21
8.2972
 31
0.0000
  0
ARC
  8
21
 10
20.6708
 20
8.0361
 30
0.0000
 40
0.2611
 50
359.9993
 51
90.0000
  0
LINE
  8
21
 10
20.9319
 20
8.0361
 30
0.0000
 11
20.9319
 21
7.7751
 31
0.0000
  0
LINE
  8
21
 10
22.5321
 20
5.9288
 30
0.0000
 11
23.4719
 21
5.9288
 31
0.0000
  0
LINE
  8
21
 10
23.4719
 20
5.8243
 30
0.0000
 11
23.4719
 21
6.0332
 31
0.0000
  0
LINE
  8
21
 10
22.5321
 20
5.8243
 30
0.0000
 11
22.5321
 21
6.0332
 31
0.0000
  0
LINE
  8
21
 10
23.2108
 20
6.3992
 30
0.0000
 11
22.7932
 21
6.3992
 31
0.0000
  0
ARC
  8
21
 10
22.7932
 20
6.6603
 30
0.0000
 40
0.2611
 50
90.0000
 51
270.0000
  0
LINE
  8
21
 10
22.7932
 20
6.9213
 30
0.0000
 11
23.2108
 21
6.9213
 31
0.0000
  0
ARC
  8
21
 10
23.2108
 20
6.6603
 30
0.0000
 40
0.2611
 50
270.0000
 51
90.0000
  0
LINE
  8
21
 10
22.7409
 20
7.3136
 30
0.0000
 11
22.5321
 21
7.5747
 31
0.0000
  0
LINE
  8
21
 10
22.5321
 20
7.5747
 30
0.0000
 11
23.4719
 21
7.5747
 31
0.0000
  0
LINE
  8
21
 10
23.4719
 20
7.3136
 30
0.0000
 11
23.4719
 21
7.8357
 31
0.0000
  0
LINE
  8
21
 10
23.4719
 20
8.2280
 30
0.0000
 11
23.4719
 21
8.5413
 31
0.0000
  0
ARC
  8
21
 10
23.2631
 20
8.5413
 30
0.0000
 40
0.2088
 50
0.0000
 51
90.0000
  0
LINE
  8
21
 10
23.2631
 20
8.7501
 30
0.0000
 11
23.1586
 21
8.7501
 31
0.0000
  0
ARC
  8
21
 10
23.1586
 20
8.5413
 30
0.0000
 40
0.2088
 50
90.0000
 51
180.0000
  0
LINE
  8
21
 10
22.9498
 20
8.5413
 30
0.0000
 11
22.9498
 21
8.2280
 31
0.0000
  0
LINE
  8
21
 10
22.9498
 20
8.2280
 30
0.0000
 11
22.5321
 21
8.2280
 31
0.0000
  0
LINE
  8
21
 10
22.5321
 20
8.2280
 30
0.0000
 11
22.5321
 21
8.7501
 31
0.0000
  0
LINE
  8
21
 10
25.0721
 20
5.9288
 30
0.0000
 11
26.0119
 21
5.9288
 31
0.0000
  0
LINE
  8
21
 10
26.0119
 20
5.8243
 30
0.0000
 11
26.0119
 21
6.0332
 31
0.0000
  0
LINE
  8
21
 10
25.0721
 20
5.8243
 30
0.0000
 11
25.0721
 21
6.0332
 31
0.0000
  0
LINE
  8
21
 10
25.7508
 20
6.3992
 30
0.0000
 11
25.3332
 21
6.3992
 31
0.0000
  0
ARC
  8
21
 10
25.3332
 20
6.6603
 30
0.0000
 40
0.2611
 50
90.0000
 51
270.0000
  0
LINE
  8
21
 10
25.3332
 20
6.9213
 30
0.0000
 11
25.7508
 21
6.9213
 31
0.0000
  0
ARC
  8
21
 10
25.7508
 20
6.6603
 30
0.0000
 40
0.2611
 50
270.0000
 51
90.0000
  0
ARC
  8
21
 10
25.3071
 20
7.6008
 30
0.0000
 40
0.2350
 50
90.0000
 51
180.0000
  0
ARC
  8
21
 10
25.3739
 20
7.6008
 30
0.0000
 40
0.3018
 50
180.0002
 51
252.0556
  0
ARC
  8
21
 10
25.3071
 20
7.5834
 30
0.0000
 40
0.2524
 50
43.6037
 51
90.0001
  0
LINE
  8
21
 10
25.4898
 20
7.7574
 30
0.0000
 11
26.0119
 21
7.3136
 31
0.0000
  0
LINE
  8
21
 10
26.0119
 20
7.3136
 30
0.0000
 11
26.0119
 21
7.8357
 31
0.0000
  0
LINE
  8
21
 10
27.6121
 20
5.9288
 30
0.0000
 11
28.5519
 21
5.9288
 31
0.0000
  0
LINE
  8
21
 10
28.5519
 20
5.8243
 30
0.0000
 11
28.5519
 21
6.0332
 31
0.0000
  0
LINE
  8
21
 10
27.6121
 20
5.8243
 30
0.0000
 11
27.6121
 21
6.0332
 31
0.0000
  0
LINE
  8
21
 10
28.2908
 20
6.3992
 30
0.0000
 11
27.8732
 21
6.3992
 31
0.0000
  0
ARC
  8
21
 10
27.8732
 20
6.6603
 30
0.0000
 40
0.2611
 50
90.0000
 51
270.0000
  0
LINE
  8
21
 10
27.8732
 20
6.9213
 30
0.0000
 11
28.2908
 21
6.9213
 31
0.0000
  0
ARC
  8
21
 10
28.2908
 20
6.6603
 30
0.0000
 40
0.2611
 50
270.0000
 51
90.0000
  0
LINE
  8
21
 10
27.6121
 20
7.5225
 30
0.0000
 11
28.3431
 21
7.3136
 31
0.0000
  0
LINE
  8
21
 10
28.3431
 20
7.3136
 30
0.0000
 11
28.3431
 21
7.8357
 31
0.0000
  0
LINE
  8
21
 10
28.1342
 20
7.6791
 30
0.0000
 11
28.5519
 21
7.6791
 31
0.0000
  0
LINE
  8
21
 10
30.1521
 20
5.9288
 30
0.0000
 11
31.0919
 21
5.9288
 31
0.0000
  0
LINE
  8
21
 10
31.0919
 20
5.8243
 30
0.0000
 11
31.0919
 21
6.0332
 31
0.0000
  0
LINE
  8
21
 10
30.1521
 20
5.8243
 30
0.0000
 11
30.1521
 21
6.0332
 31
0.0000
  0
LINE
  8
21
 10
30.8308
 20
6.3992
 30
0.0000
 11
30.4132
 21
6.3992
 31
0.0000
  0
ARC
  8
21
 10
30.4132
 20
6.6603
 30
0.0000
 40
0.2611
 50
90.0000
 51
270.0000
  0
LINE
  8
21
 10
30.4132
 20
6.9213
 30
0.0000
 11
30.8308
 21
6.9213
 31
0.0000
  0
ARC
  8
21
 10
30.8308
 20
6.6603
 30
0.0000
 40
0.2611
 50
270.0000
 51
90.0000
  0
LINE
  8
21
 10
30.3609
 20
7.3136
 30
0.0000
 11
30.1521
 21
7.5747
 31
0.0000
  0
LINE
  8
21
 10
30.1521
 20
7.5747
 30
0.0000
 11
31.0919
 21
7.5747
 31
0.0000
  0
LINE
  8
21
 10
31.0919
 20
7.3136
 30
0.0000
 11
31.0919
 21
7.8357
 31
0.0000
  0
LINE
  8
21
 10
30.5698
 20
8.2280
 30
0.0000
 11
30.5698
 21
8.5413
 31
0.0000
  0
ARC
  8
21
 10
30.7786
 20
8.5413
 30
0.0000
 40
0.2088
 50
90.0000
 51
180.0000
  0
LINE
  8
21
 10
30.7786
 20
8.7501
 30
0.0000
 11
30.8308
 21
8.7501
 31
0.0000
  0
ARC
  8
21
 10
30.8308
 20
8.4891
 30
0.0000
 40
0.2611
 50
270.0000
 51
90.0000
  0
LINE
  8
21
 10
30.8308
 20
8.2280
 30
0.0000
 11
30.5698
 21
8.2280
 31
0.0000
  0
ARC
  8
21
 10
30.5698
 20
8.6457
 30
0.0000
 40
0.4177
 50
180.0009
 51
270.0000
  0
LINE
  8
21
 10
32.6921
 20
5.9288
 30
0.0000
 11
33.6319
 21
5.9288
 31
0.0000
  0
LINE
  8
21
 10
33.6319
 20
5.8243
 30
0.0000
 11
33.6319
 21
6.0332
 31
0.0000
  0
LINE
  8
21
 10
32.6921
 20
5.8243
 30
0.0000
 11
32.6921
 21
6.0332
 31
0.0000
  0
LINE
  8
21
 10
33.3708
 20
6.3992
 30
0.0000
 11
32.9532
 21
6.3992
 31
0.0000
  0
ARC
  8
21
 10
32.9532
 20
6.6603
 30
0.0000
 40
0.2611
 50
90.0000
 51
270.0000
  0
LINE
  8
21
 10
32.9532
 20
6.9213
 30
0.0000
 11
33.3708
 21
6.9213
 31
0.0000
  0
ARC
  8
21
 10
33.3708
 20
6.6603
 30
0.0000
 40
0.2611
 50
270.0000
 51
90.0000
  0
LINE
  8
21
 10
32.9009
 20
7.3136
 30
0.0000
 11
32.6921
 21
7.5747
 31
0.0000
  0
LINE
  8
21
 10
32.6921
 20
7.5747
 30
0.0000
 11
33.6319
 21
7.5747
 31
0.0000
  0
LINE
  8
21
 10
33.6319
 20
7.3136
 30
0.0000
 11
33.6319
 21
7.8357
 31
0.0000
  0
LINE
  8
21
 10
32.7965
 20
8.2280
 30
0.0000
 11
32.6921
 21
8.2280
 31
0.0000
  0
LINE
  8
21
 10
32.6921
 20
8.2280
 30
0.0000
 11
32.6921
 21
8.7501
 31
0.0000
  0
LINE
  8
21
 10
32.6921
 20
8.7501
 30
0.0000
 11
33.6319
 21
8.4891
 31
0.0000
  0
LINE
  8
21
 10
35.2321
 20
5.9288
 30
0.0000
 11
36.1719
 21
5.9288
 31
0.0000
  0
LINE
  8
21
 10
36.1719
 20
5.8243
 30
0.0000
 11
36.1719
 21
6.0332
 31
0.0000
  0
LINE
  8
21
 10
35.2321
 20
5.8243
 30
0.0000
 11
35.2321
 21
6.0332
 31
0.0000
  0
LINE
  8
21
 10
35.9108
 20
6.3992
 30
0.0000
 11
35.4932
 21
6.3992
 31
0.0000
  0
ARC
  8
21
 10
35.4932
 20
6.6603
 30
0.0000
 40
0.2611
 50
90.0000
 51
270.0000
  0
LINE
  8
21
 10
35.4932
 20
6.9213
 30
0.0000
 11
35.9108
 21
6.9213
 31
0.0000
  0
ARC
  8
21
 10
35.9108
 20
6.6603
 30
0.0000
 40
0.2611
 50
270.0000
 51
90.0000
  0
LINE
  8
21
 10
36.1719
 20
7.3136
 30
0.0000
 11
36.1719
 21
7.6269
 31
0.0000
  0
ARC
  8
21
 10
35.9631
 20
7.6269
 30
0.0000
 40
0.2088
 50
0.0000
 51
90.0000
  0
LINE
  8
21
 10
35.9631
 20
7.8357
 30
0.0000
 11
35.8586
 21
7.8357
 31
0.0000
  0
ARC
  8
21
 10
35.8586
 20
7.6269
 30
0.0000
 40
0.2088
 50
90.0000
 51
180.0000
  0
LINE
  8
21
 10
35.6498
 20
7.6269
 30
0.0000
 11
35.6498
 21
7.3136
 31
0.0000
  0
LINE
  8
21
 10
35.6498
 20
7.3136
 30
0.0000
 11
35.2321
 21
7.3136
 31
0.0000
  0
LINE
  8
21
 10
35.2321
 20
7.3136
 30
0.0000
 11
35.2321
 21
7.8357
 31
0.0000
  0
LINE
  8
21
 10
37.7721
 20
5.9288
 30
0.0000
 11
38.7119
 21
5.9288
 31
0.0000
  0
LINE
  8
21
 10
38.7119
 20
5.8243
 30
0.0000
 11
38.7119
 21
6.0332
 31
0.0000
  0
LINE
  8
21
 10
37.7721
 20
5.8243
 30
0.0000
 11
37.7721
 21
6.0332
 31
0.0000
  0
LINE
  8
21
 10
38.4508
 20
6.3992
 30
0.0000
 11
38.0332
 21
6.3992
 31
0.0000
  0
ARC
  8
21
 10
38.0332
 20
6.6603
 30
0.0000
 40
0.2611
 50
90.0000
 51
270.0000
  0
LINE
  8
21
 10
38.0332
 20
6.9213
 30
0.0000
 11
38.4508
 21
6.9213
 31
0.0000
  0
ARC
  8
21
 10
38.4508
 20
6.6603
 30
0.0000
 40
0.2611
 50
270.0000
 51
90.0000
  0
LINE
  8
21
 10
37.9809
 20
7.3136
 30
0.0000
 11
37.7721
 21
7.5747
 31
0.0000
  0
LINE
  8
21
 10
37.7721
 20
7.5747
 30
0.0000
 11
38.7119
 21
7.5747
 31
0.0000
  0
LINE
  8
21
 10
38.7119
 20
7.3136
 30
0.0000
 11
38.7119
 21
7.8357
 31
0.0000
  0
ARC
  8
21
 10
38.4508
 20
8.4891
 30
0.0000
 40
0.2611
 50
90.0000
 51
270.0000
  0
ARC
  8
21
 10
38.4508
 20
8.4891
 30
0.0000
 40
0.2611
 50
270.0000
 51
90.0000
  0
ARC
  8
21
 10
37.9809
 20
8.4891
 30
0.0000
 40
0.2088
 50
90.0000
 51
270.0000
  0
ARC
  8
21
 10
37.9809
 20
8.4891
 30
0.0000
 40
0.2088
 50
270.0000
 51
90.0000
  0
LINE
  8
21
 10
40.3121
 20
5.9288
 30
0.0000
 11
41.2519
 21
5.9288
 31
0.0000
  0
LINE
  8
21
 10
41.2519
 20
5.8243
 30
0.0000
 11
41.2519
 21
6.0332
 31
0.0000
  0
LINE
  8
21
 10
40.3121
 20
5.8243
 30
0.0000
 11
40.3121
 21
6.0332
 31
0.0000
  0
LINE
  8
21
 10
40.9908
 20
6.3992
 30
0.0000
 11
40.5732
 21
6.3992
 31
0.0000
  0
ARC
  8
21
 10
40.5732
 20
6.6603
 30
0.0000
 40
0.2611
 50
90.0000
 51
270.0000
  0
LINE
  8
21
 10
40.5732
 20
6.9213
 30
0.0000
 11
40.9908
 21
6.9213
 31
0.0000
  0
ARC
  8
21
 10
40.9908
 20
6.6603
 30
0.0000
 40
0.2611
 50
270.0000
 51
90.0000
  0
LINE
  8
21
 10
40.5209
 20
7.3136
 30
0.0000
 11
40.3121
 21
7.5747
 31
0.0000
  0
LINE
  8
21
 10
40.3121
 20
7.5747
 30
0.0000
 11
41.2519
 21
7.5747
 31
0.0000
  0
LINE
  8
21
 10
41.2519
 20
7.3136
 30
0.0000
 11
41.2519
 21
7.8357
 31
0.0000
  0
LINE
  8
21
 10
40.8342
 20
8.7501
 30
0.0000
 11
40.8342
 21
8.4369
 31
0.0000
  0
ARC
  8
21
 10
40.6254
 20
8.4369
 30
0.0000
 40
0.2088
 50
270.0000
 51
0.0000
  0
LINE
  8
21
 10
40.6254
 20
8.2280
 30
0.0000
 11
40.5732
 21
8.2280
 31
0.0000
  0
ARC
  8
21
 10
40.5732
 20
8.4891
 30
0.0000
 40
0.2611
 50
90.0000
 51
270.0000
  0
LINE
  8
21
 10
40.5732
 20
8.7501
 30
0.0000
 11
40.8342
 21
8.7501
 31
0.0000
  0
ARC
  8
21
 10
40.8342
 20
8.3324
 30
0.0000
 40
0.4177
 50
0.0000
 51
90.0000
  0
LINE
  8
21
 10
42.8521
 20
5.9288
 30
0.0000
 11
43.7919
 21
5.9288
 31
0.0000
  0
LINE
  8
21
 10
43.7919
 20
5.8243
 30
0.0000
 11
43.7919
 21
6.0332
 31
0.0000
  0
LINE
  8
21
 10
42.8521
 20
5.8243
 30
0.0000
 11
42.8521
 21
6.0332
 31
0.0000
  0
LINE
  8
21
 10
43.5308
 20
6.3992
 30
0.0000
 11
43.1132
 21
6.3992
 31
0.0000
  0
ARC
  8
21
 10
43.1132
 20
6.6603
 30
0.0000
 40
0.2611
 50
90.0000
 51
270.0000
  0
LINE
  8
21
 10
43.1132
 20
6.9213
 30
0.0000
 11
43.5308
 21
6.9213
 31
0.0000
  0
ARC
  8
21
 10
43.5308
 20
6.6603
 30
0.0000
 40
0.2611
 50
270.0000
 51
90.0000
  0
ARC
  8
21
 10
43.0871
 20
7.6008
 30
0.0000
 40
0.2350
 50
90.0000
 51
180.0000
  0
ARC
  8
21
 10
43.1539
 20
7.6008
 30
0.0000
 40
0.3018
 50
180.0002
 51
252.0556
  0
ARC
  8
21
 10
43.0871
 20
7.5834
 30
0.0000
 40
0.2524
 50
43.6037
 51
90.0001
  0
LINE
  8
21
 10
43.2698
 20
7.7574
 30
0.0000
 11
43.7919
 21
7.3136
 31
0.0000
  0
LINE
  8
21
 10
43.7919
 20
7.3136
 30
0.0000
 11
43.7919
 21
7.8357
 31
0.0000
  0
LINE
  8
21
 10
43.0609
 20
8.2280
 30
0.0000
 11
42.8521
 21
8.4891
 31
0.0000
  0
LINE
  8
21
 10
42.8521
 20
8.4891
 30
0.0000
 11
43.7919
 21
8.4891
 31
0.0000
  0
LINE
  8
21
 10
43.7919
 20
8.2280
 30
0.0000
 11
43.7919
 21
8.7501
 31
0.0000
  0
LINE
  8
21
 10
45.3921
 20
5.9288
 30
0.0000
 11
46.3319
 21
5.9288
 31
0.0000
  0
LINE
  8
21
 10
46.3319
 20
5.8243
 30
0.0000
 11
46.3319
 21
6.0332
 31
0.0000
  0
LINE
  8
21
 10
45.3921
 20
5.8243
 30
0.0000
 11
45.3921
 21
6.0332
 31
0.0000
  0
LINE
  8
21
 10
46.0708
 20
6.3992
 30
0.0000
 11
45.6532
 21
6.3992
 31
0.0000
  0
ARC
  8
21
 10
45.6532
 20
6.6603
 30
0.0000
 40
0.2611
 50
90.0000
 51
270.0000
  0
LINE
  8
21
 10
45.6532
 20
6.9213
 30
0.0000
 11
46.0708
 21
6.9213
 31
0.0000
  0
ARC
  8
21
 10
46.0708
 20
6.6603
 30
0.0000
 40
0.2611
 50
270.0000
 51
90.0000
  0
LINE
  8
21
 10
46.3319
 20
7.3136
 30
0.0000
 11
46.3319
 21
7.5747
 31
0.0000
  0
ARC
  8
21
 10
46.0708
 20
7.5747
 30
0.0000
 40
0.2611
 50
0.0000
 51
180.0000
  0
LINE
  8
21
 10
45.3921
 20
7.3136
 30
0.0000
 11
45.3921
 21
7.6269
 31
0.0000
  0
ARC
  8
21
 10
45.6009
 20
7.6269
 30
0.0000
 40
0.2088
 50
0.0000
 51
180.0000
  0
LINE
  8
21
 10
45.8098
 20
7.6269
 30
0.0000
 11
45.8098
 21
7.4181
 31
0.0000
  0
LINE
  8
21
 10
47.9321
 20
5.9288
 30
0.0000
 11
48.8719
 21
5.9288
 31
0.0000
  0
LINE
  8
21
 10
48.8719
 20
5.8243
 30
0.0000
 11
48.8719
 21
6.0332
 31
0.0000
  0
LINE
  8
21
 10
47.9321
 20
5.8243
 30
0.0000
 11
47.9321
 21
6.0332
 31
0.0000
  0
LINE
  8
21
 10
48.6108
 20
6.3992
 30
0.0000
 11
48.1932
 21
6.3992
 31
0.0000
  0
ARC
  8
21
 10
48.1932
 20
6.6603
 30
0.0000
 40
0.2611
 50
90.0000
 51
270.0000
  0
LINE
  8
21
 10
48.1932
 20
6.9213
 30
0.0000
 11
48.6108
 21
6.9213
 31
0.0000
  0
ARC
  8
21
 10
48.6108
 20
6.6603
 30
0.0000
 40
0.2611
 50
270.0000
 51
90.0000
  0
LINE
  8
21
 10
48.1409
 20
7.3136
 30
0.0000
 11
47.9321
 21
7.5747
 31
0.0000
  0
LINE
  8
21
 10
47.9321
 20
7.5747
 30
0.0000
 11
48.8719
 21
7.5747
 31
0.0000
  0
LINE
  8
21
 10
48.8719
 20
7.3136
 30
0.0000
 11
48.8719
 21
7.8357
 31
0.0000
  0
LINE
  8
21
 10
50.4721
 20
5.9288
 30
0.0000
 11
51.4119
 21
5.9288
 31
0.0000
  0
LINE
  8
21
 10
51.4119
 20
5.8243
 30
0.0000
 11
51.4119
 21
6.0332
 31
0.0000
  0
LINE
  8
21
 10
50.4721
 20
5.8243
 30
0.0000
 11
50.4721
 21
6.0332
 31
0.0000
  0
LINE
  8
21
 10
51.1508
 20
6.3992
 30
0.0000
 11
50.7332
 21
6.3992
 31
0.0000
  0
ARC
  8
21
 10
50.7332
 20
6.6603
 30
0.0000
 40
0.2611
 50
90.0000
 51
270.0000
  0
LINE
  8
21
 10
50.7332
 20
6.9213
 30
0.0000
 11
51.1508
 21
6.9213
 31
0.0000
  0
ARC
  8
21
 10
51.1508
 20
6.6603
 30
0.0000
 40
0.2611
 50
270.0000
 51
90.0000
  0
ARC
  8
21
 10
50.7071
 20
7.6008
 30
0.0000
 40
0.2350
 50
90.0000
 51
180.0000
  0
ARC
  8
21
 10
50.7739
 20
7.6008
 30
0.0000
 40
0.3018
 50
180.0002
 51
252.0556
  0
ARC
  8
21
 10
50.7071
 20
7.5834
 30
0.0000
 40
0.2524
 50
43.6037
 51
90.0001
  0
LINE
  8
21
 10
50.8898
 20
7.7574
 30
0.0000
 11
51.4119
 21
7.3136
 31
0.0000
  0
LINE
  8
21
 10
51.4119
 20
7.3136
 30
0.0000
 11
51.4119
 21
7.8357
 31
0.0000
  0
ARC
  8
21
 10
50.7071
 20
8.5152
 30
0.0000
 40
0.2350
 50
90.0000
 51
180.0000
  0
ARC
  8
21
 10
50.7739
 20
8.5152
 30
0.0000
 40
0.3018
 50
180.0002
 51
252.0556
  0
ARC
  8
21
 10
50.7071
 20
8.4978
 30
0.0000
 40
0.2524
 50
43.6037
 51
90.0001
  0
LINE
  8
21
 10
50.8898
 20
8.6718
 30
0.0000
 11
51.4119
 21
8.2280
 31
0.0000
  0
LINE
  8
21
 10
51.4119
 20
8.2280
 30
0.0000
 11
51.4119
 21
8.7501
 31
0.0000
  0
LINE
  8
21
 10
53.0121
 20
5.9288
 30
0.0000
 11
53.9519
 21
5.9288
 31
0.0000
  0
LINE
  8
21
 10
53.9519
 20
5.8243
 30
0.0000
 11
53.9519
 21
6.0332
 31
0.0000
  0
LINE
  8
21
 10
53.0121
 20
5.8243
 30
0.0000
 11
53.0121
 21
6.0332
 31
0.0000
  0
LINE
  8
21
 10
53.6908
 20
6.3992
 30
0.0000
 11
53.2732
 21
6.3992
 31
0.0000
  0
ARC
  8
21
 10
53.2732
 20
6.6603
 30
0.0000
 40
0.2611
 50
90.0000
 51
270.0000
  0
LINE
  8
21
 10
53.2732
 20
6.9213
 30
0.0000
 11
53.6908
 21
6.9213
 31
0.0000
  0
ARC
  8
21
 10
53.6908
 20
6.6603
 30
0.0000
 40
0.2611
 50
270.0000
 51
90.0000
  0
ARC
  8
21
 10
53.2471
 20
7.6008
 30
0.0000
 40
0.2350
 50
90.0000
 51
180.0000
  0
ARC
  8
21
 10
53.3139
 20
7.6008
 30
0.0000
 40
0.3018
 50
180.0002
 51
252.0556
  0
ARC
  8
21
 10
53.2471
 20
7.5834
 30
0.0000
 40
0.2524
 50
43.6037
 51
90.0001
  0
LINE
  8
21
 10
53.4298
 20
7.7574
 30
0.0000
 11
53.9519
 21
7.3136
 31
0.0000
  0
LINE
  8
21
 10
53.9519
 20
7.3136
 30
0.0000
 11
53.9519
 21
7.8357
 31
0.0000
  0
LINE
  8
21
 10
53.9519
 20
8.2280
 30
0.0000
 11
53.9519
 21
8.4891
 31
0.0000
  0
ARC
  8
21
 10
53.6908
 20
8.4891
 30
0.0000
 40
0.2611
 50
0.0000
 51
180.0000
  0
LINE
  8
21
 10
53.0121
 20
8.2280
 30
0.0000
 11
53.0121
 21
8.5413
 31
0.0000
  0
ARC
  8
21
 10
53.2209
 20
8.5413
 30
0.0000
 40
0.2088
 50
0.0000
 51
180.0000
  0
LINE
  8
21
 10
53.4298
 20
8.5413
 30
0.0000
 11
53.4298
 21
8.3324
 31
0.0000
  0
LINE
  8
21
 10
17.4721
 20
23.5444
 30
0.0000
 11
18.4119
 21
23.8576
 31
0.0000
  0
LINE
  8
21
 10
18.4119
 20
23.8576
 30
0.0000
 11
17.4721
 21
24.1709
 31
0.0000
  0
LINE
  8
21
 10
17.4721
 20
24.5891
 30
0.0000
 11
18.4119
 21
24.5891
 31
0.0000
  0
LINE
  8
21
 10
18.4119
 20
24.4847
 30
0.0000
 11
18.4119
 21
24.6936
 31
0.0000
  0
LINE
  8
21
 10
17.4721
 20
24.4847
 30
0.0000
 11
17.4721
 21
24.6936
 31
0.0000
  0
LINE
  8
21
 10
18.4119
 20
25.0901
 30
0.0000
 11
17.4721
 21
25.0901
 31
0.0000
  0
LINE
  8
21
 10
17.4721
 20
25.0901
 30
0.0000
 11
18.4119
 21
25.6122
 31
0.0000
  0
LINE
  8
21
 10
18.4119
 20
25.6122
 30
0.0000
 11
17.4721
 21
25.6122
 31
0.0000
  0
LINE
  8
21
 10
20.4298
 20
23.9098
 30
0.0000
 11
20.4298
 21
24.0665
 31
0.0000
  0
LINE
  8
21
 10
20.4298
 20
24.0665
 30
0.0000
 11
20.9519
 21
24.0665
 31
0.0000
  0
LINE
  8
21
 10
20.9519
 20
24.0665
 30
0.0000
 11
20.9519
 21
23.7532
 31
0.0000
  0
ARC
  8
21
 10
20.7431
 20
23.7532
 30
0.0000
 40
0.2088
 50
270.0000
 51
0.0000
  0
LINE
  8
21
 10
20.7431
 20
23.5444
 30
0.0000
 11
20.2209
 21
23.5444
 31
0.0000
  0
ARC
  8
21
 10
20.2209
 20
23.7532
 30
0.0000
 40
0.2089
 50
180.0017
 51
270.0000
  0
LINE
  8
21
 10
20.0121
 20
23.7532
 30
0.0000
 11
20.0121
 21
24.0665
 31
0.0000
  0
LINE
  8
21
 10
20.9519
 20
24.5197
 30
0.0000
 11
20.0121
 21
24.5197
 31
0.0000
  0
LINE
  8
21
 10
20.0121
 20
24.5197
 30
0.0000
 11
20.9519
 21
25.0418
 31
0.0000
  0
LINE
  8
21
 10
20.9519
 20
25.0418
 30
0.0000
 11
20.0121
 21
25.0418
 31
0.0000
  0
LINE
  8
21
 10
20.9519
 20
25.4951
 30
0.0000
 11
20.0121
 21
25.4951
 31
0.0000
  0
LINE
  8
21
 10
20.0121
 20
25.4951
 30
0.0000
 11
20.0121
 21
25.7561
 31
0.0000
  0
ARC
  8
21
 10
20.2732
 20
25.7561
 30
0.0000
 40
0.2611
 50
90.0000
 51
180.0000
  0
LINE
  8
21
 10
20.2732
 20
26.0172
 30
0.0000
 11
20.6908
 21
26.0172
 31
0.0000
  0
ARC
  8
21
 10
20.6908
 20
25.7561
 30
0.0000
 40
0.2611
 50
359.9993
 51
90.0000
  0
LINE
  8
21
 10
20.9519
 20
25.7561
 30
0.0000
 11
20.9519
 21
25.4951
 31
0.0000
  0
LINE
  8
21
 10
22.5521
 20
23.6488
 30
0.0000
 11
23.4919
 21
23.6488
 31
0.0000
  0
LINE
  8
21
 10
23.4919
 20
23.5444
 30
0.0000
 11
23.4919
 21
23.7532
 31
0.0000
  0
LINE
  8
21
 10
22.5521
 20
23.5444
 30
0.0000
 11
22.5521
 21
23.7532
 31
0.0000
  0
LINE
  8
21
 10
23.2308
 20
24.1192
 30
0.0000
 11
22.8132
 21
24.1192
 31
0.0000
  0
ARC
  8
21
 10
22.8132
 20
24.3803
 30
0.0000
 40
0.2611
 50
90.0000
 51
270.0000
  0
LINE
  8
21
 10
22.8132
 20
24.6413
 30
0.0000
 11
23.2308
 21
24.6413
 31
0.0000
  0
ARC
  8
21
 10
23.2308
 20
24.3803
 30
0.0000
 40
0.2611
 50
270.0000
 51
90.0000
  0
LINE
  8
21
 10
22.7609
 20
25.0336
 30
0.0000
 11
22.5521
 21
25.2947
 31
0.0000
  0
LINE
  8
21
 10
22.5521
 20
25.2947
 30
0.0000
 11
23.4919
 21
25.2947
 31
0.0000
  0
LINE
  8
21
 10
23.4919
 20
25.0336
 30
0.0000
 11
23.4919
 21
25.5557
 31
0.0000
  0
LINE
  8
21
 10
23.4919
 20
25.9480
 30
0.0000
 11
23.4919
 21
26.2091
 31
0.0000
  0
ARC
  8
21
 10
23.2308
 20
26.2091
 30
0.0000
 40
0.2611
 50
0.0000
 51
180.0000
  0
LINE
  8
21
 10
22.5521
 20
25.9480
 30
0.0000
 11
22.5521
 21
26.2613
 31
0.0000
  0
ARC
  8
21
 10
22.7609
 20
26.2613
 30
0.0000
 40
0.2088
 50
0.0000
 51
180.0000
  0
LINE
  8
21
 10
22.9698
 20
26.2613
 30
0.0000
 11
22.9698
 21
26.0525
 31
0.0000
  0
LINE
  8
21
 10
25.0921
 20
23.6488
 30
0.0000
 11
26.0319
 21
23.6488
 31
0.0000
  0
LINE
  8
21
 10
26.0319
 20
23.5444
 30
0.0000
 11
26.0319
 21
23.7532
 31
0.0000
  0
LINE
  8
21
 10
25.0921
 20
23.5444
 30
0.0000
 11
25.0921
 21
23.7532
 31
0.0000
  0
LINE
  8
21
 10
25.7708
 20
24.1192
 30
0.0000
 11
25.3532
 21
24.1192
 31
0.0000
  0
ARC
  8
21
 10
25.3532
 20
24.3803
 30
0.0000
 40
0.2611
 50
90.0000
 51
270.0000
  0
LINE
  8
21
 10
25.3532
 20
24.6413
 30
0.0000
 11
25.7708
 21
24.6413
 31
0.0000
  0
ARC
  8
21
 10
25.7708
 20
24.3803
 30
0.0000
 40
0.2611
 50
270.0000
 51
90.0000
  0
LINE
  8
21
 10
25.3009
 20
25.0336
 30
0.0000
 11
25.0921
 21
25.2947
 31
0.0000
  0
LINE
  8
21
 10
25.0921
 20
25.2947
 30
0.0000
 11
26.0319
 21
25.2947
 31
0.0000
  0
LINE
  8
21
 10
26.0319
 20
25.0336
 30
0.0000
 11
26.0319
 21
25.5557
 31
0.0000
  0
ARC
  8
21
 10
25.3270
 20
26.2352
 30
0.0000
 40
0.2350
 50
90.0000
 51
180.0000
  0
ARC
  8
21
 10
25.3939
 20
26.2352
 30
0.0000
 40
0.3018
 50
180.0002
 51
252.0556
  0
ARC
  8
21
 10
25.3270
 20
26.2178
 30
0.0000
 40
0.2524
 50
43.6037
 51
90.0001
  0
LINE
  8
21
 10
25.5098
 20
26.3918
 30
0.0000
 11
26.0319
 21
25.9480
 31
0.0000
  0
LINE
  8
21
 10
26.0319
 20
25.9480
 30
0.0000
 11
26.0319
 21
26.4701
 31
0.0000
  0
LINE
  8
21
 10
27.6321
 20
23.6488
 30
0.0000
 11
28.5719
 21
23.6488
 31
0.0000
  0
LINE
  8
21
 10
28.5719
 20
23.5444
 30
0.0000
 11
28.5719
 21
23.7532
 31
0.0000
  0
LINE
  8
21
 10
27.6321
 20
23.5444
 30
0.0000
 11
27.6321
 21
23.7532
 31
0.0000
  0
LINE
  8
21
 10
28.3108
 20
24.1192
 30
0.0000
 11
27.8932
 21
24.1192
 31
0.0000
  0
ARC
  8
21
 10
27.8932
 20
24.3803
 30
0.0000
 40
0.2611
 50
90.0000
 51
270.0000
  0
LINE
  8
21
 10
27.8932
 20
24.6413
 30
0.0000
 11
28.3108
 21
24.6413
 31
0.0000
  0
ARC
  8
21
 10
28.3108
 20
24.3803
 30
0.0000
 40
0.2611
 50
270.0000
 51
90.0000
  0
LINE
  8
21
 10
27.8409
 20
25.0336
 30
0.0000
 11
27.6321
 21
25.2947
 31
0.0000
  0
LINE
  8
21
 10
27.6321
 20
25.2947
 30
0.0000
 11
28.5719
 21
25.2947
 31
0.0000
  0
LINE
  8
21
 10
28.5719
 20
25.0336
 30
0.0000
 11
28.5719
 21
25.5557
 31
0.0000
  0
LINE
  8
21
 10
27.6321
 20
26.1569
 30
0.0000
 11
28.3631
 21
25.9480
 31
0.0000
  0
LINE
  8
21
 10
28.3631
 20
25.9480
 30
0.0000
 11
28.3631
 21
26.4701
 31
0.0000
  0
LINE
  8
21
 10
28.1542
 20
26.3135
 30
0.0000
 11
28.5719
 21
26.3135
 31
0.0000
  0
LINE
  8
21
 10
30.1721
 20
23.6488
 30
0.0000
 11
31.1119
 21
23.6488
 31
0.0000
  0
LINE
  8
21
 10
31.1119
 20
23.5444
 30
0.0000
 11
31.1119
 21
23.7532
 31
0.0000
  0
LINE
  8
21
 10
30.1721
 20
23.5444
 30
0.0000
 11
30.1721
 21
23.7532
 31
0.0000
  0
LINE
  8
21
 10
30.8508
 20
24.1192
 30
0.0000
 11
30.4332
 21
24.1192
 31
0.0000
  0
ARC
  8
21
 10
30.4332
 20
24.3803
 30
0.0000
 40
0.2611
 50
90.0000
 51
270.0000
  0
LINE
  8
21
 10
30.4332
 20
24.6413
 30
0.0000
 11
30.8508
 21
24.6413
 31
0.0000
  0
ARC
  8
21
 10
30.8508
 20
24.3803
 30
0.0000
 40
0.2611
 50
270.0000
 51
90.0000
  0
ARC
  8
21
 10
30.4071
 20
25.3208
 30
0.0000
 40
0.2350
 50
90.0000
 51
180.0000
  0
ARC
  8
21
 10
30.4739
 20
25.3208
 30
0.0000
 40
0.3018
 50
180.0002
 51
252.0556
  0
ARC
  8
21
 10
30.4071
 20
25.3034
 30
0.0000
 40
0.2524
 50
43.6037
 51
90.0001
  0
LINE
  8
21
 10
30.5898
 20
25.4774
 30
0.0000
 11
31.1119
 21
25.0336
 31
0.0000
  0
LINE
  8
21
 10
31.1119
 20
25.0336
 30
0.0000
 11
31.1119
 21
25.5557
 31
0.0000
  0
LINE
  8
21
 10
30.2765
 20
25.9480
 30
0.0000
 11
30.1721
 21
25.9480
 31
0.0000
  0
LINE
  8
21
 10
30.1721
 20
25.9480
 30
0.0000
 11
30.1721
 21
26.4701
 31
0.0000
  0
LINE
  8
21
 10
30.1721
 20
26.4701
 30
0.0000
 11
31.1119
 21
26.2091
 31
0.0000
  0
LINE
  8
21
 10
32.7121
 20
23.6488
 30
0.0000
 11
33.6519
 21
23.6488
 31
0.0000
  0
LINE
  8
21
 10
33.6519
 20
23.5444
 30
0.0000
 11
33.6519
 21
23.7532
 31
0.0000
  0
LINE
  8
21
 10
32.7121
 20
23.5444
 30
0.0000
 11
32.7121
 21
23.7532
 31
0.0000
  0
LINE
  8
21
 10
33.3908
 20
24.1192
 30
0.0000
 11
32.9732
 21
24.1192
 31
0.0000
  0
ARC
  8
21
 10
32.9732
 20
24.3803
 30
0.0000
 40
0.2611
 50
90.0000
 51
270.0000
  0
LINE
  8
21
 10
32.9732
 20
24.6413
 30
0.0000
 11
33.3908
 21
24.6413
 31
0.0000
  0
ARC
  8
21
 10
33.3908
 20
24.3803
 30
0.0000
 40
0.2611
 50
270.0000
 51
90.0000
  0
ARC
  8
21
 10
32.9471
 20
25.3208
 30
0.0000
 40
0.2350
 50
90.0000
 51
180.0000
  0
ARC
  8
21
 10
33.0139
 20
25.3208
 30
0.0000
 40
0.3018
 50
180.0002
 51
252.0556
  0
ARC
  8
21
 10
32.9471
 20
25.3034
 30
0.0000
 40
0.2524
 50
43.6037
 51
90.0001
  0
LINE
  8
21
 10
33.1298
 20
25.4774
 30
0.0000
 11
33.6519
 21
25.0336
 31
0.0000
  0
LINE
  8
21
 10
33.6519
 20
25.0336
 30
0.0000
 11
33.6519
 21
25.5557
 31
0.0000
  0
LINE
  8
21
 10
33.1298
 20
25.9480
 30
0.0000
 11
33.1298
 21
26.2613
 31
0.0000
  0
ARC
  8
21
 10
33.3386
 20
26.2613
 30
0.0000
 40
0.2088
 50
90.0000
 51
180.0000
  0
LINE
  8
21
 10
33.3386
 20
26.4701
 30
0.0000
 11
33.3908
 21
26.4701
 31
0.0000
  0
ARC
  8
21
 10
33.3908
 20
26.2091
 30
0.0000
 40
0.2611
 50
270.0000
 51
90.0000
  0
LINE
  8
21
 10
33.3908
 20
25.9480
 30
0.0000
 11
33.1298
 21
25.9480
 31
0.0000
  0
ARC
  8
21
 10
33.1298
 20
26.3657
 30
0.0000
 40
0.4177
 50
180.0009
 51
270.0000
  0
LINE
  8
21
 10
35.2521
 20
23.6488
 30
0.0000
 11
36.1919
 21
23.6488
 31
0.0000
  0
LINE
  8
21
 10
36.1919
 20
23.5444
 30
0.0000
 11
36.1919
 21
23.7532
 31
0.0000
  0
LINE
  8
21
 10
35.2521
 20
23.5444
 30
0.0000
 11
35.2521
 21
23.7532
 31
0.0000
  0
LINE
  8
21
 10
35.9308
 20
24.1192
 30
0.0000
 11
35.5132
 21
24.1192
 31
0.0000
  0
ARC
  8
21
 10
35.5132
 20
24.3803
 30
0.0000
 40
0.2611
 50
90.0000
 51
270.0000
  0
LINE
  8
21
 10
35.5132
 20
24.6413
 30
0.0000
 11
35.9308
 21
24.6413
 31
0.0000
  0
ARC
  8
21
 10
35.9308
 20
24.3803
 30
0.0000
 40
0.2611
 50
270.0000
 51
90.0000
  0
ARC
  8
21
 10
35.4871
 20
25.3208
 30
0.0000
 40
0.2350
 50
90.0000
 51
180.0000
  0
ARC
  8
21
 10
35.5539
 20
25.3208
 30
0.0000
 40
0.3018
 50
180.0002
 51
252.0556
  0
ARC
  8
21
 10
35.4871
 20
25.3034
 30
0.0000
 40
0.2524
 50
43.6037
 51
90.0001
  0
LINE
  8
21
 10
35.6698
 20
25.4774
 30
0.0000
 11
36.1919
 21
25.0336
 31
0.0000
  0
LINE
  8
21
 10
36.1919
 20
25.0336
 30
0.0000
 11
36.1919
 21
25.5557
 31
0.0000
  0
LINE
  8
21
 10
36.1919
 20
25.9480
 30
0.0000
 11
36.1919
 21
26.2613
 31
0.0000
  0
ARC
  8
21
 10
35.9831
 20
26.2613
 30
0.0000
 40
0.2088
 50
0.0000
 51
90.0000
  0
LINE
  8
21
 10
35.9831
 20
26.4701
 30
0.0000
 11
35.8786
 21
26.4701
 31
0.0000
  0
ARC
  8
21
 10
35.8786
 20
26.2613
 30
0.0000
 40
0.2088
 50
90.0000
 51
180.0000
  0
LINE
  8
21
 10
35.6698
 20
26.2613
 30
0.0000
 11
35.6698
 21
25.9480
 31
0.0000
  0
LINE
  8
21
 10
35.6698
 20
25.9480
 30
0.0000
 11
35.2521
 21
25.9480
 31
0.0000
  0
LINE
  8
21
 10
35.2521
 20
25.9480
 30
0.0000
 11
35.2521
 21
26.4701
 31
0.0000
  0
LINE
  8
21
 10
37.7921
 20
23.6488
 30
0.0000
 11
38.7319
 21
23.6488
 31
0.0000
  0
LINE
  8
21
 10
38.7319
 20
23.5444
 30
0.0000
 11
38.7319
 21
23.7532
 31
0.0000
  0
LINE
  8
21
 10
37.7921
 20
23.5444
 30
0.0000
 11
37.7921
 21
23.7532
 31
0.0000
  0
LINE
  8
21
 10
38.4708
 20
24.1192
 30
0.0000
 11
38.0532
 21
24.1192
 31
0.0000
  0
ARC
  8
21
 10
38.0532
 20
24.3803
 30
0.0000
 40
0.2611
 50
90.0000
 51
270.0000
  0
LINE
  8
21
 10
38.0532
 20
24.6413
 30
0.0000
 11
38.4708
 21
24.6413
 31
0.0000
  0
ARC
  8
21
 10
38.4708
 20
24.3803
 30
0.0000
 40
0.2611
 50
270.0000
 51
90.0000
  0
LINE
  8
21
 10
38.7319
 20
25.0336
 30
0.0000
 11
38.7319
 21
25.2947
 31
0.0000
  0
ARC
  8
21
 10
38.4708
 20
25.2947
 30
0.0000
 40
0.2611
 50
0.0000
 51
180.0000
  0
LINE
  8
21
 10
37.7921
 20
25.0336
 30
0.0000
 11
37.7921
 21
25.3469
 31
0.0000
  0
ARC
  8
21
 10
38.0009
 20
25.3469
 30
0.0000
 40
0.2088
 50
0.0000
 51
180.0000
  0
LINE
  8
21
 10
38.2098
 20
25.3469
 30
0.0000
 11
38.2098
 21
25.1381
 31
0.0000
  0
LINE
  8
21
 10
38.7319
 20
25.9480
 30
0.0000
 11
38.7319
 21
26.2091
 31
0.0000
  0
ARC
  8
21
 10
38.4708
 20
26.2091
 30
0.0000
 40
0.2611
 50
0.0000
 51
180.0000
  0
LINE
  8
21
 10
37.7921
 20
25.9480
 30
0.0000
 11
37.7921
 21
26.2613
 31
0.0000
  0
ARC
  8
21
 10
38.0009
 20
26.2613
 30
0.0000
 40
0.2088
 50
0.0000
 51
180.0000
  0
LINE
  8
21
 10
38.2098
 20
26.2613
 30
0.0000
 11
38.2098
 21
26.0525
 31
0.0000
  0
LINE
  8
21
 10
40.3321
 20
23.6488
 30
0.0000
 11
41.2719
 21
23.6488
 31
0.0000
  0
LINE
  8
21
 10
41.2719
 20
23.5444
 30
0.0000
 11
41.2719
 21
23.7532
 31
0.0000
  0
LINE
  8
21
 10
40.3321
 20
23.5444
 30
0.0000
 11
40.3321
 21
23.7532
 31
0.0000
  0
LINE
  8
21
 10
41.0108
 20
24.1192
 30
0.0000
 11
40.5932
 21
24.1192
 31
0.0000
  0
ARC
  8
21
 10
40.5932
 20
24.3803
 30
0.0000
 40
0.2611
 50
90.0000
 51
270.0000
  0
LINE
  8
21
 10
40.5932
 20
24.6413
 30
0.0000
 11
41.0108
 21
24.6413
 31
0.0000
  0
ARC
  8
21
 10
41.0108
 20
24.3803
 30
0.0000
 40
0.2611
 50
270.0000
 51
90.0000
  0
LINE
  8
21
 10
41.2719
 20
25.0336
 30
0.0000
 11
41.2719
 21
25.2947
 31
0.0000
  0
ARC
  8
21
 10
41.0108
 20
25.2947
 30
0.0000
 40
0.2611
 50
0.0000
 51
180.0000
  0
LINE
  8
21
 10
40.3321
 20
25.0336
 30
0.0000
 11
40.3321
 21
25.3469
 31
0.0000
  0
ARC
  8
21
 10
40.5409
 20
25.3469
 30
0.0000
 40
0.2088
 50
0.0000
 51
180.0000
  0
LINE
  8
21
 10
40.7498
 20
25.3469
 30
0.0000
 11
40.7498
 21
25.1381
 31
0.0000
  0
ARC
  8
21
 10
40.5671
 20
26.2352
 30
0.0000
 40
0.2350
 50
90.0000
 51
180.0000
  0
ARC
  8
21
 10
40.6339
 20
26.2352
 30
0.0000
 40
0.3018
 50
180.0002
 51
252.0556
  0
ARC
  8
21
 10
40.5671
 20
26.2178
 30
0.0000
 40
0.2524
 50
43.6037
 51
90.0001
  0
LINE
  8
21
 10
40.7498
 20
26.3918
 30
0.0000
 11
41.2719
 21
25.9480
 31
0.0000
  0
LINE
  8
21
 10
41.2719
 20
25.9480
 30
0.0000
 11
41.2719
 21
26.4701
 31
0.0000
  0
LINE
  8
21
 10
42.8721
 20
23.6488
 30
0.0000
 11
43.8119
 21
23.6488
 31
0.0000
  0
LINE
  8
21
 10
43.8119
 20
23.5444
 30
0.0000
 11
43.8119
 21
23.7532
 31
0.0000
  0
LINE
  8
21
 10
42.8721
 20
23.5444
 30
0.0000
 11
42.8721
 21
23.7532
 31
0.0000
  0
LINE
  8
21
 10
43.5508
 20
24.1192
 30
0.0000
 11
43.1332
 21
24.1192
 31
0.0000
  0
ARC
  8
21
 10
43.1332
 20
24.3803
 30
0.0000
 40
0.2611
 50
90.0000
 51
270.0000
  0
LINE
  8
21
 10
43.1332
 20
24.6413
 30
0.0000
 11
43.5508
 21
24.6413
 31
0.0000
  0
ARC
  8
21
 10
43.5508
 20
24.3803
 30
0.0000
 40
0.2611
 50
270.0000
 51
90.0000
  0
LINE
  8
21
 10
43.8119
 20
25.0336
 30
0.0000
 11
43.8119
 21
25.2947
 31
0.0000
  0
ARC
  8
21
 10
43.5508
 20
25.2947
 30
0.0000
 40
0.2611
 50
0.0000
 51
180.0000
  0
LINE
  8
21
 10
42.8721
 20
25.0336
 30
0.0000
 11
42.8721
 21
25.3469
 31
0.0000
  0
ARC
  8
21
 10
43.0809
 20
25.3469
 30
0.0000
 40
0.2088
 50
0.0000
 51
180.0000
  0
LINE
  8
21
 10
43.2898
 20
25.3469
 30
0.0000
 11
43.2898
 21
25.1381
 31
0.0000
  0
LINE
  8
21
 10
43.8119
 20
25.9480
 30
0.0000
 11
43.8119
 21
26.2613
 31
0.0000
  0
ARC
  8
21
 10
43.6031
 20
26.2613
 30
0.0000
 40
0.2088
 50
0.0000
 51
90.0000
  0
LINE
  8
21
 10
43.6031
 20
26.4701
 30
0.0000
 11
43.4986
 21
26.4701
 31
0.0000
  0
ARC
  8
21
 10
43.4986
 20
26.2613
 30
0.0000
 40
0.2088
 50
90.0000
 51
180.0000
  0
LINE
  8
21
 10
43.2898
 20
26.2613
 30
0.0000
 11
43.2898
 21
25.9480
 31
0.0000
  0
LINE
  8
21
 10
43.2898
 20
25.9480
 30
0.0000
 11
42.8721
 21
25.9480
 31
0.0000
  0
LINE
  8
21
 10
42.8721
 20
25.9480
 30
0.0000
 11
42.8721
 21
26.4701
 31
0.0000
  0
LINE
  8
21
 10
45.4121
 20
23.6488
 30
0.0000
 11
46.3519
 21
23.6488
 31
0.0000
  0
LINE
  8
21
 10
46.3519
 20
23.5444
 30
0.0000
 11
46.3519
 21
23.7532
 31
0.0000
  0
LINE
  8
21
 10
45.4121
 20
23.5444
 30
0.0000
 11
45.4121
 21
23.7532
 31
0.0000
  0
LINE
  8
21
 10
46.0908
 20
24.1192
 30
0.0000
 11
45.6732
 21
24.1192
 31
0.0000
  0
ARC
  8
21
 10
45.6732
 20
24.3803
 30
0.0000
 40
0.2611
 50
90.0000
 51
270.0000
  0
LINE
  8
21
 10
45.6732
 20
24.6413
 30
0.0000
 11
46.0908
 21
24.6413
 31
0.0000
  0
ARC
  8
21
 10
46.0908
 20
24.3803
 30
0.0000
 40
0.2611
 50
270.0000
 51
90.0000
  0
LINE
  8
21
 10
46.3519
 20
25.0336
 30
0.0000
 11
46.3519
 21
25.2947
 31
0.0000
  0
ARC
  8
21
 10
46.0908
 20
25.2947
 30
0.0000
 40
0.2611
 50
0.0000
 51
180.0000
  0
LINE
  8
21
 10
45.4121
 20
25.0336
 30
0.0000
 11
45.4121
 21
25.3469
 31
0.0000
  0
ARC
  8
21
 10
45.6209
 20
25.3469
 30
0.0000
 40
0.2088
 50
0.0000
 51
180.0000
  0
LINE
  8
21
 10
45.8298
 20
25.3469
 30
0.0000
 11
45.8298
 21
25.1381
 31
0.0000
  0
LINE
  8
21
 10
45.4121
 20
26.1569
 30
0.0000
 11
46.1431
 21
25.9480
 31
0.0000
  0
LINE
  8
21
 10
46.1431
 20
25.9480
 30
0.0000
 11
46.1431
 21
26.4701
 31
0.0000
  0
LINE
  8
21
 10
45.9342
 20
26.3135
 30
0.0000
 11
46.3519
 21
26.3135
 31
0.0000
  0
LINE
  8
21
 10
47.9521
 20
21.0044
 30
0.0000
 11
48.8919
 21
21.3176
 31
0.0000
  0
LINE
  8
21
 10
48.8919
 20
21.3176
 30
0.0000
 11
47.9521
 21
21.6309
 31
0.0000
  0
LINE
  8
21
 10
48.8919
 20
22.0014
 30
0.0000
 11
47.9521
 21
22.0014
 31
0.0000
  0
LINE
  8
21
 10
47.9521
 20
22.0014
 30
0.0000
 11
48.8919
 21
22.5235
 31
0.0000
  0
LINE
  8
21
 10
48.8919
 20
22.5235
 30
0.0000
 11
47.9521
 21
22.5235
 31
0.0000
  0
LINE
  8
21
 10
48.9963
 20
22.9071
 30
0.0000
 11
47.8477
 21
23.3248
 31
0.0000
  0
LINE
  8
21
 10
47.9521
 20
23.7560
 30
0.0000
 11
48.8919
 21
23.7560
 31
0.0000
  0
LINE
  8
21
 10
48.8919
 20
23.6516
 30
0.0000
 11
48.8919
 21
23.8604
 31
0.0000
  0
LINE
  8
21
 10
47.9521
 20
23.6516
 30
0.0000
 11
47.9521
 21
23.8604
 31
0.0000
  0
LINE
  8
21
 10
48.6308
 20
24.2265
 30
0.0000
 11
48.2132
 21
24.2265
 31
0.0000
  0
ARC
  8
21
 10
48.2132
 20
24.4875
 30
0.0000
 40
0.2611
 50
90.0000
 51
270.0000
  0
LINE
  8
21
 10
48.2132
 20
24.7486
 30
0.0000
 11
48.6308
 21
24.7486
 31
0.0000
  0
ARC
  8
21
 10
48.6308
 20
24.4875
 30
0.0000
 40
0.2611
 50
270.0000
 51
90.0000
  0
LINE
  8
21
 10
48.8919
 20
25.1409
 30
0.0000
 11
48.8919
 21
25.4019
 31
0.0000
  0
ARC
  8
21
 10
48.6308
 20
25.4019
 30
0.0000
 40
0.2611
 50
0.0000
 51
180.0000
  0
LINE
  8
21
 10
47.9521
 20
25.1409
 30
0.0000
 11
47.9521
 21
25.4541
 31
0.0000
  0
ARC
  8
21
 10
48.1609
 20
25.4541
 30
0.0000
 40
0.2088
 50
0.0000
 51
180.0000
  0
LINE
  8
21
 10
48.3698
 20
25.4541
 30
0.0000
 11
48.3698
 21
25.2453
 31
0.0000
  0
LINE
  8
21
 10
48.4742
 20
26.5774
 30
0.0000
 11
48.4742
 21
26.2641
 31
0.0000
  0
ARC
  8
21
 10
48.2654
 20
26.2641
 30
0.0000
 40
0.2088
 50
270.0000
 51
0.0000
  0
LINE
  8
21
 10
48.2654
 20
26.0553
 30
0.0000
 11
48.2132
 21
26.0553
 31
0.0000
  0
ARC
  8
21
 10
48.2132
 20
26.3163
 30
0.0000
 40
0.2611
 50
90.0000
 51
270.0000
  0
LINE
  8
21
 10
48.2132
 20
26.5774
 30
0.0000
 11
48.4742
 21
26.5774
 31
0.0000
  0
ARC
  8
21
 10
48.4742
 20
26.1597
 30
0.0000
 40
0.4177
 50
0.0000
 51
90.0000
  0
LINE
  8
21
 10
50.4921
 20
21.0044
 30
0.0000
 11
51.4319
 21
21.3176
 31
0.0000
  0
LINE
  8
21
 10
51.4319
 20
21.3176
 30
0.0000
 11
50.4921
 21
21.6309
 31
0.0000
  0
LINE
  8
21
 10
51.4319
 20
22.0146
 30
0.0000
 11
50.4921
 21
22.0146
 31
0.0000
  0
LINE
  8
21
 10
50.4921
 20
22.0146
 30
0.0000
 11
50.4921
 21
22.2756
 31
0.0000
  0
ARC
  8
21
 10
50.7532
 20
22.2756
 30
0.0000
 40
0.2611
 50
0.0000
 51
180.0000
  0
LINE
  8
21
 10
51.0142
 20
22.2756
 30
0.0000
 11
51.0142
 21
22.0146
 31
0.0000
  0
LINE
  8
21
 10
51.5363
 20
22.8461
 30
0.0000
 11
50.3877
 21
23.2638
 31
0.0000
  0
LINE
  8
21
 10
50.4921
 20
23.6950
 30
0.0000
 11
51.4319
 21
23.6950
 31
0.0000
  0
LINE
  8
21
 10
51.4319
 20
23.5906
 30
0.0000
 11
51.4319
 21
23.7995
 31
0.0000
  0
LINE
  8
21
 10
50.4921
 20
23.5906
 30
0.0000
 11
50.4921
 21
23.7995
 31
0.0000
  0
LINE
  8
21
 10
51.1708
 20
24.1655
 30
0.0000
 11
50.7532
 21
24.1655
 31
0.0000
  0
ARC
  8
21
 10
50.7532
 20
24.4266
 30
0.0000
 40
0.2611
 50
90.0000
 51
270.0000
  0
LINE
  8
21
 10
50.7532
 20
24.6876
 30
0.0000
 11
51.1708
 21
24.6876
 31
0.0000
  0
ARC
  8
21
 10
51.1708
 20
24.4266
 30
0.0000
 40
0.2611
 50
270.0000
 51
90.0000
  0
LINE
  8
21
 10
51.4319
 20
25.0799
 30
0.0000
 11
51.4319
 21
25.3410
 31
0.0000
  0
ARC
  8
21
 10
51.1708
 20
25.3410
 30
0.0000
 40
0.2611
 50
0.0000
 51
180.0000
  0
LINE
  8
21
 10
50.4921
 20
25.0799
 30
0.0000
 11
50.4921
 21
25.3932
 31
0.0000
  0
ARC
  8
21
 10
50.7009
 20
25.3932
 30
0.0000
 40
0.2088
 50
0.0000
 51
180.0000
  0
LINE
  8
21
 10
50.9098
 20
25.3932
 30
0.0000
 11
50.9098
 21
25.1843
 31
0.0000
  0
LINE
  8
21
 10
50.9098
 20
25.9943
 30
0.0000
 11
50.9098
 21
26.3076
 31
0.0000
  0
ARC
  8
21
 10
51.1186
 20
26.3076
 30
0.0000
 40
0.2088
 50
90.0000
 51
180.0000
  0
LINE
  8
21
 10
51.1186
 20
26.5164
 30
0.0000
 11
51.1708
 21
26.5164
 31
0.0000
  0
ARC
  8
21
 10
51.1708
 20
26.2553
 30
0.0000
 40
0.2611
 50
270.0000
 51
90.0000
  0
LINE
  8
21
 10
51.1708
 20
25.9943
 30
0.0000
 11
50.9098
 21
25.9943
 31
0.0000
  0
ARC
  8
21
 10
50.9098
 20
26.4120
 30
0.0000
 40
0.4177
 50
180.0009
 51
270.0000
  0
LINE
  8
21
 10
53.9719
 20
23.9620
 30
0.0000
 11
53.9719
 21
23.5444
 31
0.0000
  0
LINE
  8
21
 10
53.9719
 20
23.5444
 30
0.0000
 11
53.0321
 21
23.5444
 31
0.0000
  0
LINE
  8
21
 10
53.0321
 20
23.5444
 30
0.0000
 11
53.0321
 21
23.9620
 31
0.0000
  0
LINE
  8
21
 10
53.4498
 20
23.5444
 30
0.0000
 11
53.4498
 21
23.8576
 31
0.0000
  0
LINE
  8
21
 10
53.9719
 20
24.3351
 30
0.0000
 11
53.0321
 21
24.3351
 31
0.0000
  0
LINE
  8
21
 10
53.0321
 20
24.3351
 30
0.0000
 11
53.9719
 21
24.8572
 31
0.0000
  0
LINE
  8
21
 10
53.9719
 20
24.8572
 30
0.0000
 11
53.0321
 21
24.8572
 31
0.0000
  0
LINE
  8
21
 10
36.5764
 20
13.8825
 30
0.0000
 11
35.7862
 21
13.8825
 31
0.0000
  0
LINE
  8
21
 10
35.7862
 20
13.8825
 30
0.0000
 11
35.7862
 21
15.6605
 31
0.0000
  0
LINE
  8
21
 10
35.7862
 20
15.6605
 30
0.0000
 11
36.5764
 21
15.6605
 31
0.0000
  0
LINE
  8
21
 10
35.7862
 20
14.8702
 30
0.0000
 11
36.3789
 21
14.8702
 31
0.0000
  0
ARC
  8
21
 10
37.7160
 20
14.2776
 30
0.0000
 40
0.3951
 50
270.0005
 51
0.0000
  0
ARC
  8
21
 10
37.7160
 20
14.7171
 30
0.0000
 40
0.8347
 50
224.7600
 51
270.0004
  0
ARC
  8
21
 10
37.5679
 20
15.2653
 30
0.0000
 40
0.3951
 50
90.0000
 51
180.0000
  0
ARC
  8
21
 10
37.5679
 20
14.9196
 30
0.0000
 40
0.7408
 50
53.1296
 51
90.0000
  0
ARC
  8
21
 10
37.5740
 20
15.2653
 30
0.0000
 40
0.4013
 50
180.0000
 51
239.4895
  0
ARC
  8
21
 10
37.7099
 20
14.2776
 30
0.0000
 40
0.4013
 50
359.9999
 51
59.4893
  0
LINE
  8
21
 10
37.9136
 20
14.6233
 30
0.0000
 11
37.3703
 21
14.9196
 31
0.0000
  0
LINE
  8
21
 10
38.8181
 20
13.8825
 30
0.0000
 11
38.8181
 21
15.6605
 31
0.0000
  0
LINE
  8
21
 10
38.8181
 20
15.6605
 30
0.0000
 11
39.3120
 21
15.6605
 31
0.0000
  0
ARC
  8
21
 10
39.3120
 20
15.1666
 30
0.0000
 40
0.4939
 50
270.0000
 51
90.0000
  0
LINE
  8
21
 10
39.3120
 20
14.6727
 30
0.0000
 11
38.8181
 21
14.6727
 31
0.0000
  0
LINE
  8
21
 10
40.4176
 20
13.8825
 30
0.0000
 11
40.9115
 21
13.8825
 31
0.0000
  0
ARC
  8
21
 10
40.9115
 20
14.3763
 30
0.0000
 40
0.4939
 50
270.0000
 51
90.0000
  0
LINE
  8
21
 10
40.4176
 20
15.6605
 30
0.0000
 11
41.0103
 21
15.6605
 31
0.0000
  0
ARC
  8
21
 10
41.0103
 20
15.2653
 30
0.0000
 40
0.3951
 50
270.0000
 51
90.0000
  0
LINE
  8
21
 10
41.0103
 20
14.8702
 30
0.0000
 11
40.6152
 21
14.8702
 31
0.0000
  0
ARC
  8
21
 10
42.6359
 20
15.2160
 30
0.0000
 40
0.4445
 50
0.0000
 51
90.0000
  0
ARC
  8
21
 10
42.6359
 20
15.0894
 30
0.0000
 40
0.5711
 50
89.9999
 51
162.0553
  0
ARC
  8
21
 10
42.6030
 20
15.2160
 30
0.0000
 40
0.4774
 50
313.6036
 51
359.9999
  0
LINE
  8
21
 10
42.9323
 20
14.8702
 30
0.0000
 11
42.0927
 21
13.8825
 31
0.0000
  0
LINE
  8
21
 10
42.0927
 20
13.8825
 30
0.0000
 11
43.0804
 21
13.8825
 31
0.0000
  0
LINE
  8
21
 10
43.7806
 20
14.5739
 30
0.0000
 11
44.9659
 21
14.5739
 31
0.0000
  0
LINE
  8
21
 10
45.7219
 20
13.8825
 30
0.0000
 11
45.7219
 21
15.6605
 31
0.0000
  0
LINE
  8
21
 10
45.7219
 20
15.6605
 30
0.0000
 11
46.2158
 21
15.6605
 31
0.0000
  0
ARC
  8
21
 10
46.2158
 20
15.1666
 30
0.0000
 40
0.4939
 50
0.0000
 51
90.0000
  0
LINE
  8
21
 10
46.7097
 20
15.1666
 30
0.0000
 11
46.7097
 21
14.3763
 31
0.0000
  0
ARC
  8
21
 10
46.2158
 20
14.3763
 30
0.0000
 40
0.4939
 50
270.0000
 51
0.0000
  0
LINE
  8
21
 10
46.2158
 20
13.8825
 30
0.0000
 11
45.7219
 21
13.8825
 31
0.0000
  0
LINE
  8
21
 10
48.2301
 20
13.8825
 30
0.0000
 11
47.7362
 21
13.8825
 31
0.0000
  0
ARC
  8
21
 10
47.7362
 20
14.1788
 30
0.0000
 40
0.2963
 50
180.0000
 51
270.0000
  0
LINE
  8
21
 10
47.4399
 20
14.1788
 30
0.0000
 11
47.4399
 21
14.6727
 31
0.0000
  0
ARC
  8
21
 10
47.8350
 20
14.6727
 30
0.0000
 40
0.3951
 50
0.0000
 51
180.0000
  0
LINE
  8
21
 10
48.2301
 20
14.6727
 30
0.0000
 11
48.2301
 21
14.4751
 31
0.0000
  0
LINE
  8
21
 10
48.2301
 20
14.4751
 30
0.0000
 11
47.4399
 21
14.4751
 31
0.0000
  0
LINE
  8
21
 10
48.8358
 20
15.0678
 30
0.0000
 11
49.2309
 21
13.8825
 31
0.0000
  0
LINE
  8
21
 10
49.2309
 20
13.8825
 30
0.0000
 11
49.6260
 21
15.0678
 31
0.0000
  0
LINE
  8
21
 10
50.3032
 20
13.8825
 30
0.0000
 11
50.3032
 21
15.6605
 31
0.0000
  0
LINE
  8
21
 10
51.0935
 20
15.0678
 30
0.0000
 11
50.3032
 21
14.4751
 31
0.0000
  0
LINE
  8
21
 10
51.0935
 20
13.8825
 30
0.0000
 11
50.6490
 21
14.7221
 31
0.0000
  0
LINE
  8
21
 10
51.6876
 20
13.8825
 30
0.0000
 11
51.6876
 21
15.0678
 31
0.0000
  0
LINE
  8
21
 10
51.6382
 20
15.5617
 30
0.0000
 11
51.6382
 21
15.6605
 31
0.0000
  0
LINE
  8
21
 10
51.6382
 20
15.6605
 30
0.0000
 11
51.7370
 21
15.6605
 31
0.0000
  0
LINE
  8
21
 10
51.7370
 20
15.6605
 30
0.0000
 11
51.7370
 21
15.5617
 31
0.0000
  0
LINE
  8
21
 10
51.7370
 20
15.5617
 30
0.0000
 11
51.6382
 21
15.5617
 31
0.0000
  0
LINE
  8
21
 10
52.2179
 20
15.0678
 30
0.0000
 11
52.8105
 21
15.0678
 31
0.0000
  0
LINE
  8
21
 10
52.4154
 20
15.6605
 30
0.0000
 11
52.4154
 21
14.1788
 31
0.0000
  0
ARC
  8
21
 10
52.7118
 20
14.1788
 30
0.0000
 40
0.2963
 50
180.0000
 51
270.0006
  0
LINE
  8
21
 10
52.7118
 20
13.8825
 30
0.0000
 11
52.8105
 21
13.8825
 31
0.0000
  0
LINE
  8
21
 10
54.2217
 20
15.6605
 30
0.0000
 11
54.8144
 21
13.8825
 31
0.0000
  0
LINE
  8
21
 10
54.8144
 20
13.8825
 30
0.0000
 11
55.4070
 21
15.6605
 31
0.0000
  0
LINE
  8
21
 10
55.9955
 20
15.2653
 30
0.0000
 11
56.4894
 21
15.6605
 31
0.0000
  0
LINE
  8
21
 10
56.4894
 20
15.6605
 30
0.0000
 11
56.4894
 21
13.8825
 31
0.0000
  0
LINE
  8
21
 10
55.9955
 20
13.8825
 30
0.0000
 11
56.9833
 21
13.8825
 31
0.0000
  0
LINE
  8
27
 10
46.2101
 20
-0.2030
 30
0.0000
 11
45.6908
 21
-0.2030
 31
0.0000
  0
LINE
  8
27
 10
45.6908
 20
-0.2030
 30
0.0000
 11
45.6908
 21
0.9655
 31
0.0000
  0
LINE
  8
27
 10
45.6908
 20
0.9655
 30
0.0000
 11
46.2101
 21
0.9655
 31
0.0000
  0
LINE
  8
27
 10
45.6908
 20
0.4462
 30
0.0000
 11
46.0803
 21
0.4462
 31
0.0000
  0
ARC
  8
27
 10
46.9924
 20
0.0567
 30
0.0000
 40
0.2596
 50
270.0000
 51
0.0000
  0
ARC
  8
27
 10
46.9924
 20
0.3456
 30
0.0000
 40
0.5485
 50
224.7610
 51
269.9999
  0
ARC
  8
27
 10
46.8950
 20
0.7058
 30
0.0000
 40
0.2596
 50
89.9993
 51
180.0000
  0
ARC
  8
27
 10
46.8950
 20
0.4786
 30
0.0000
 40
0.4868
 50
53.1301
 51
89.9993
  0
ARC
  8
27
 10
46.8991
 20
0.7058
 30
0.0000
 40
0.2637
 50
179.9998
 51
239.4902
  0
ARC
  8
27
 10
46.9884
 20
0.0567
 30
0.0000
 40
0.2637
 50
0.0001
 51
59.4899
  0
LINE
  8
27
 10
47.1222
 20
0.2839
 30
0.0000
 11
46.7652
 21
0.4786
 31
0.0000
  0
LINE
  8
27
 10
47.7629
 20
-0.2030
 30
0.0000
 11
47.7629
 21
0.9655
 31
0.0000
  0
LINE
  8
27
 10
47.7629
 20
0.9655
 30
0.0000
 11
48.0874
 21
0.9655
 31
0.0000
  0
ARC
  8
27
 10
48.0874
 20
0.6409
 30
0.0000
 40
0.3246
 50
270.0000
 51
90.0000
  0
LINE
  8
27
 10
48.0874
 20
0.3163
 30
0.0000
 11
47.7629
 21
0.3163
 31
0.0000
  0
LINE
  8
27
 10
48.8508
 20
-0.2030
 30
0.0000
 11
49.1754
 21
-0.2030
 31
0.0000
  0
ARC
  8
27
 10
49.1754
 20
0.1216
 30
0.0000
 40
0.3246
 50
270.0000
 51
90.0000
  0
LINE
  8
27
 10
48.8508
 20
0.9655
 30
0.0000
 11
49.2403
 21
0.9655
 31
0.0000
  0
ARC
  8
27
 10
49.2403
 20
0.7058
 30
0.0000
 40
0.2596
 50
270.0000
 51
90.0000
  0
LINE
  8
27
 10
49.2403
 20
0.4462
 30
0.0000
 11
48.9807
 21
0.4462
 31
0.0000
  0
ARC
  8
27
 10
50.3508
 20
0.6734
 30
0.0000
 40
0.2921
 50
0.0000
 51
90.0000
  0
ARC
  8
27
 10
50.3508
 20
0.5902
 30
0.0000
 40
0.3753
 50
90.0001
 51
162.0549
  0
ARC
  8
27
 10
50.3292
 20
0.6734
 30
0.0000
 40
0.3138
 50
313.6040
 51
359.9996
  0
LINE
  8
27
 10
50.5456
 20
0.4462
 30
0.0000
 11
49.9938
 21
-0.2030
 31
0.0000
  0
LINE
  8
27
 10
49.9938
 20
-0.2030
 30
0.0000
 11
50.6429
 21
-0.2030
 31
0.0000
  0
LINE
  8
27
 10
51.1481
 20
0.2514
 30
0.0000
 11
51.9271
 21
0.2514
 31
0.0000
  0
LINE
  8
27
 10
52.4703
 20
-0.2030
 30
0.0000
 11
52.4703
 21
0.9655
 31
0.0000
  0
LINE
  8
27
 10
52.4703
 20
0.9655
 30
0.0000
 11
52.7949
 21
0.9655
 31
0.0000
  0
ARC
  8
27
 10
52.7949
 20
0.6409
 30
0.0000
 40
0.3246
 50
0.0000
 51
90.0000
  0
LINE
  8
27
 10
53.1194
 20
0.6409
 30
0.0000
 11
53.1194
 21
0.1216
 31
0.0000
  0
ARC
  8
27
 10
52.7949
 20
0.1216
 30
0.0000
 40
0.3246
 50
269.9994
 51
0.0000
  0
LINE
  8
27
 10
52.7949
 20
-0.2030
 30
0.0000
 11
52.4703
 21
-0.2030
 31
0.0000
  0
LINE
  8
27
 10
54.2111
 20
-0.2030
 30
0.0000
 11
53.6918
 21
-0.2030
 31
0.0000
  0
LINE
  8
27
 10
53.6918
 20
-0.2030
 30
0.0000
 11
53.6918
 21
0.9655
 31
0.0000
  0
LINE
  8
27
 10
53.6918
 20
0.9655
 30
0.0000
 11
54.2111
 21
0.9655
 31
0.0000
  0
LINE
  8
27
 10
53.6918
 20
0.4462
 30
0.0000
 11
54.0813
 21
0.4462
 31
0.0000
  0
LINE
  8
27
 10
54.5771
 20
0.9655
 30
0.0000
 11
54.9666
 21
-0.2030
 31
0.0000
  0
LINE
  8
27
 10
54.9666
 20
-0.2030
 30
0.0000
 11
55.3560
 21
0.9655
 31
0.0000
  0
LINE
  8
27
 10
55.8401
 20
-0.2030
 30
0.0000
 11
55.8401
 21
0.9655
 31
0.0000
  0
LINE
  8
27
 10
56.4892
 20
0.9655
 30
0.0000
 11
55.8401
 21
0.2514
 31
0.0000
  0
LINE
  8
27
 10
56.4892
 20
-0.2030
 30
0.0000
 11
56.0997
 21
0.5111
 31
0.0000
  0
LINE
  8
27
 10
57.0240
 20
0.9655
 30
0.0000
 11
57.0240
 21
-0.2030
 31
0.0000
  0
LINE
  8
27
 10
56.8942
 20
-0.2030
 30
0.0000
 11
57.1538
 21
-0.2030
 31
0.0000
  0
LINE
  8
27
 10
56.8942
 20
0.9655
 30
0.0000
 11
57.1538
 21
0.9655
 31
0.0000
  0
LINE
  8
27
 10
57.8622
 20
-0.2030
 30
0.0000
 11
57.8622
 21
0.9655
 31
0.0000
  0
LINE
  8
27
 10
57.5376
 20
0.9655
 30
0.0000
 11
58.1867
 21
0.9655
 31
0.0000
  0
LINE
  8
27
 10
58.5395
 20
0.9655
 30
0.0000
 11
58.9290
 21
-0.2030
 31
0.0000
  0
LINE
  8
27
 10
58.9290
 20
-0.2030
 30
0.0000
 11
59.3184
 21
0.9655
 31
0.0000
  0
LINE
  8
27
 10
59.7474
 20
0.7058
 30
0.0000
 11
60.0720
 21
0.9655
 31
0.0000
  0
LINE
  8
27
 10
60.0720
 20
0.9655
 30
0.0000
 11
60.0720
 21
-0.2030
 31
0.0000
  0
LINE
  8
27
 10
59.7474
 20
-0.2030
 30
0.0000
 11
60.3965
 21
-0.2030
 31
0.0000
  0
INSERT
  8
17
  2
ROUNDP
 10
17.7700
 20
3.4463
 30
0.0000
 41
1.9304
 42
1.9304
 43
1.0000
 50
0.0000
  0
INSERT
  8
17
  2
ROUNDP
 10
17.7700
 20
3.4463
 30
0.0000
 41
1.9304
 42
1.9304
 43
1.0000
 50
0.0000
  0
INSERT
  8
17
  2
ROUNDP
 10
48.2500
 20
3.4463
 30
0.0000
 41
1.9304
 42
1.9304
 43
1.0000
 50
0.0000
  0
INSERT
  8
17
  2
ROUNDP
 10
48.2500
 20
3.4463
 30
0.0000
 41
1.9304
 42
1.9304
 43
1.0000
 50
0.0000
  0
INSERT
  8
17
  2
ROUNDP
 10
25.3900
 20
3.4463
 30
0.0000
 41
1.9304
 42
1.9304
 43
1.0000
 50
0.0000
  0
INSERT
  8
17
  2
ROUNDP
 10
25.3900
 20
3.4463
 30
0.0000
 41
1.9304
 42
1.9304
 43
1.0000
 50
0.0000
  0
INSERT
  8
17
  2
ROUNDP
 10
45.7100
 20
3.4463
 30
0.0000
 41
1.9304
 42
1.9304
 43
1.0000
 50
0.0000
  0
INSERT
  8
17
  2
ROUNDP
 10
45.7100
 20
3.4463
 30
0.0000
 41
1.9304
 42
1.9304
 43
1.0000
 50
0.0000
  0
INSERT
  8
17
  2
ROUNDP
 10
27.9300
 20
3.4463
 30
0.0000
 41
1.9304
 42
1.9304
 43
1.0000
 50
0.0000
  0
INSERT
  8
17
  2
ROUNDP
 10
27.9300
 20
3.4463
 30
0.0000
 41
1.9304
 42
1.9304
 43
1.0000
 50
0.0000
  0
INSERT
  8
17
  2
ROUNDP
 10
35.5500
 20
3.4463
 30
0.0000
 41
1.9304
 42
1.9304
 43
1.0000
 50
0.0000
  0
INSERT
  8
17
  2
ROUNDP
 10
35.5500
 20
3.4463
 30
0.0000
 41
1.9304
 42
1.9304
 43
1.0000
 50
0.0000
  0
INSERT
  8
17
  2
ROUNDP
 10
25.3900
 20
28.8513
 30
0.0000
 41
1.9304
 42
1.9304
 43
1.0000
 50
0.0000
  0
INSERT
  8
17
  2
ROUNDP
 10
25.3900
 20
28.8513
 30
0.0000
 41
1.9304
 42
1.9304
 43
1.0000
 50
0.0000
  0
INSERT
  8
17
  2
ROUNDP
 10
22.8500
 20
28.8513
 30
0.0000
 41
1.9304
 42
1.9304
 43
1.0000
 50
0.0000
  0
INSERT
  8
17
  2
ROUNDP
 10
22.8500
 20
28.8513
 30
0.0000
 41
1.9304
 42
1.9304
 43
1.0000
 50
0.0000
  0
INSERT
  8
17
  2
ROUNDP
 10
27.9300
 20
28.8513
 30
0.0000
 41
1.9304
 42
1.9304
 43
1.0000
 50
0.0000
  0
INSERT
  8
17
  2
ROUNDP
 10
27.9300
 20
28.8513
 30
0.0000
 41
1.9304
 42
1.9304
 43
1.0000
 50
0.0000
  0
INSERT
  8
17
  2
ROUNDP
 10
22.8500
 20
3.4463
 30
0.0000
 41
1.9304
 42
1.9304
 43
1.0000
 50
0.0000
  0
INSERT
  8
17
  2
ROUNDP
 10
22.8500
 20
3.4463
 30
0.0000
 41
1.9304
 42
1.9304
 43
1.0000
 50
0.0000
  0
INSERT
  8
17
  2
ROUNDP
 10
30.4700
 20
3.4463
 30
0.0000
 41
1.9304
 42
1.9304
 43
1.0000
 50
0.0000
  0
INSERT
  8
17
  2
ROUNDP
 10
30.4700
 20
3.4463
 30
0.0000
 41
1.9304
 42
1.9304
 43
1.0000
 50
0.0000
  0
INSERT
  8
17
  2
ROUNDP
 10
33.0100
 20
3.4463
 30
0.0000
 41
1.9304
 42
1.9304
 43
1.0000
 50
0.0000
  0
INSERT
  8
17
  2
ROUNDP
 10
33.0100
 20
3.4463
 30
0.0000
 41
1.9304
 42
1.9304
 43
1.0000
 50
0.0000
  0
INSERT
  8
17
  2
ROUNDP
 10
38.0900
 20
3.4463
 30
0.0000
 41
1.9304
 42
1.9304
 43
1.0000
 50
0.0000
  0
INSERT
  8
17
  2
ROUNDP
 10
38.0900
 20
3.4463
 30
0.0000
 41
1.9304
 42
1.9304
 43
1.0000
 50
0.0000
  0
INSERT
  8
17
  2
ROUNDP
 10
40.6300
 20
3.4463
 30
0.0000
 41
1.9304
 42
1.9304
 43
1.0000
 50
0.0000
  0
INSERT
  8
17
  2
ROUNDP
 10
40.6300
 20
3.4463
 30
0.0000
 41
1.9304
 42
1.9304
 43
1.0000
 50
0.0000
  0
INSERT
  8
17
  2
ROUNDP
 10
43.1700
 20
3.4463
 30
0.0000
 41
1.9304
 42
1.9304
 43
1.0000
 50
0.0000
  0
INSERT
  8
17
  2
ROUNDP
 10
43.1700
 20
3.4463
 30
0.0000
 41
1.9304
 42
1.9304
 43
1.0000
 50
0.0000
  0
INSERT
  8
17
  2
ROUNDP
 10
50.7900
 20
3.4463
 30
0.0000
 41
1.9304
 42
1.9304
 43
1.0000
 50
0.0000
  0
INSERT
  8
17
  2
ROUNDP
 10
50.7900
 20
3.4463
 30
0.0000
 41
1.9304
 42
1.9304
 43
1.0000
 50
0.0000
  0
INSERT
  8
17
  2
ROUNDP
 10
53.3300
 20
3.4463
 30
0.0000
 41
1.9304
 42
1.9304
 43
1.0000
 50
0.0000
  0
INSERT
  8
17
  2
ROUNDP
 10
53.3300
 20
3.4463
 30
0.0000
 41
1.9304
 42
1.9304
 43
1.0000
 50
0.0000
  0
INSERT
  8
17
  2
ROUNDP
 10
35.5500
 20
28.8513
 30
0.0000
 41
1.9304
 42
1.9304
 43
1.0000
 50
0.0000
  0
INSERT
  8
17
  2
ROUNDP
 10
35.5500
 20
28.8513
 30
0.0000
 41
1.9304
 42
1.9304
 43
1.0000
 50
0.0000
  0
INSERT
  8
17
  2
ROUNDP
 10
33.0100
 20
28.8513
 30
0.0000
 41
1.9304
 42
1.9304
 43
1.0000
 50
0.0000
  0
INSERT
  8
17
  2
ROUNDP
 10
33.0100
 20
28.8513
 30
0.0000
 41
1.9304
 42
1.9304
 43
1.0000
 50
0.0000
  0
INSERT
  8
17
  2
ROUNDP
 10
30.4700
 20
28.8513
 30
0.0000
 41
1.9304
 42
1.9304
 43
1.0000
 50
0.0000
  0
INSERT
  8
17
  2
ROUNDP
 10
30.4700
 20
28.8513
 30
0.0000
 41
1.9304
 42
1.9304
 43
1.0000
 50
0.0000
  0
INSERT
  8
17
  2
ROUNDP
 10
40.6300
 20
28.8513
 30
0.0000
 41
1.9304
 42
1.9304
 43
1.0000
 50
0.0000
  0
INSERT
  8
17
  2
ROUNDP
 10
40.6300
 20
28.8513
 30
0.0000
 41
1.9304
 42
1.9304
 43
1.0000
 50
0.0000
  0
INSERT
  8
17
  2
ROUNDP
 10
38.0900
 20
28.8513
 30
0.0000
 41
1.9304
 42
1.9304
 43
1.0000
 50
0.0000
  0
INSERT
  8
17
  2
ROUNDP
 10
38.0900
 20
28.8513
 30
0.0000
 41
1.9304
 42
1.9304
 43
1.0000
 50
0.0000
  0
INSERT
  8
17
  2
ROUNDP
 10
45.7100
 20
28.8513
 30
0.0000
 41
1.9304
 42
1.9304
 43
1.0000
 50
0.0000
  0
INSERT
  8
17
  2
ROUNDP
 10
45.7100
 20
28.8513
 30
0.0000
 41
1.9304
 42
1.9304
 43
1.0000
 50
0.0000
  0
INSERT
  8
17
  2
ROUNDP
 10
43.1700
 20
28.8513
 30
0.0000
 41
1.9304
 42
1.9304
 43
1.0000
 50
0.0000
  0
INSERT
  8
17
  2
ROUNDP
 10
43.1700
 20
28.8513
 30
0.0000
 41
1.9304
 42
1.9304
 43
1.0000
 50
0.0000
  0
INSERT
  8
17
  2
ROUNDP
 10
50.7900
 20
28.8513
 30
0.0000
 41
1.9304
 42
1.9304
 43
1.0000
 50
0.0000
  0
INSERT
  8
17
  2
ROUNDP
 10
50.7900
 20
28.8513
 30
0.0000
 41
1.9304
 42
1.9304
 43
1.0000
 50
0.0000
  0
INSERT
  8
17
  2
ROUNDP
 10
48.2500
 20
28.8513
 30
0.0000
 41
1.9304
 42
1.9304
 43
1.0000
 50
0.0000
  0
INSERT
  8
17
  2
ROUNDP
 10
48.2500
 20
28.8513
 30
0.0000
 41
1.9304
 42
1.9304
 43
1.0000
 50
0.0000
  0
INSERT
  8
17
  2
ROUNDP
 10
53.3300
 20
28.8513
 30
0.0000
 41
1.9304
 42
1.9304
 43
1.0000
 50
0.0000
  0
INSERT
  8
17
  2
ROUNDP
 10
53.3300
 20
28.8513
 30
0.0000
 41
1.9304
 42
1.9304
 43
1.0000
 50
0.0000
  0
INSERT
  8
17
  2
ROUNDP
 10
20.3100
 20
28.8513
 30
0.0000
 41
1.9304
 42
1.9304
 43
1.0000
 50
0.0000
  0
INSERT
  8
17
  2
ROUNDP
 10
20.3100
 20
28.8513
 30
0.0000
 41
1.9304
 42
1.9304
 43
1.0000
 50
0.0000
  0
INSERT
  8
17
  2
ROUNDP
 10
20.3100
 20
3.4463
 30
0.0000
 41
1.9304
 42
1.9304
 43
1.0000
 50
0.0000
  0
INSERT
  8
17
  2
ROUNDP
 10
20.3100
 20
3.4463
 30
0.0000
 41
1.9304
 42
1.9304
 43
1.0000
 50
0.0000
  0
INSERT
  8
17
  2
ROUNDP
 10
17.7700
 20
28.8513
 30
0.0000
 41
1.9304
 42
1.9304
 43
1.0000
 50
0.0000
  0
INSERT
  8
17
  2
ROUNDP
 10
17.7700
 20
28.8513
 30
0.0000
 41
1.9304
 42
1.9304
 43
1.0000
 50
0.0000
  0
POINT
  8
24
 10
44.4500
 20
9.3663
 30
0.0000
  0
LINE
  8
22
 10
53.4500
 20
14.8663
 30
0.0000
 11
53.4500
 21
3.8662
 31
0.0000
  0
LINE
  8
22
 10
53.4500
 20
3.8662
 30
0.0000
 11
35.4500
 21
3.8662
 31
0.0000
  0
LINE
  8
22
 10
35.4500
 20
3.8662
 30
0.0000
 11
35.4500
 21
14.8663
 31
0.0000
  0
LINE
  8
22
 10
35.4500
 20
14.8663
 30
0.0000
 11
53.4500
 21
14.8663
 31
0.0000
  0
LINE
  8
22
 10
49.2950
 20
9.4689
 30
0.0000
 11
48.7818
 21
9.4689
 31
0.0000
  0
ARC
  8
22
 10
48.7818
 20
8.9557
 30
0.0000
 40
0.5132
 50
90.0000
 51
270.0000
  0
LINE
  8
22
 10
48.7818
 20
8.4425
 30
0.0000
 11
49.2950
 21
8.4425
 31
0.0000
  0
LINE
  8
22
 10
49.2950
 20
8.4425
 30
0.0000
 11
49.2950
 21
10.2901
 31
0.0000
  0
LINE
  8
22
 10
49.2950
 20
10.2901
 30
0.0000
 11
48.7818
 21
10.2901
 31
0.0000
  0
ARC
  8
22
 10
48.7818
 20
9.8795
 30
0.0000
 40
0.4106
 50
90.0000
 51
270.0000
  0
LINE
  8
22
 10
47.5889
 20
8.4425
 30
0.0000
 11
47.5889
 21
10.2901
 31
0.0000
  0
LINE
  8
22
 10
47.5889
 20
10.2901
 30
0.0000
 11
46.5625
 21
8.4425
 31
0.0000
  0
LINE
  8
22
 10
46.5625
 20
8.4425
 30
0.0000
 11
46.5625
 21
10.2901
 31
0.0000
  0
LINE
  8
22
 10
45.8064
 20
8.9557
 30
0.0000
 11
45.8064
 21
9.7768
 31
0.0000
  0
ARC
  8
22
 10
45.2932
 20
9.7768
 30
0.0000
 40
0.5132
 50
0.0000
 51
180.0000
  0
LINE
  8
22
 10
44.7800
 20
9.7768
 30
0.0000
 11
44.7800
 21
8.9557
 31
0.0000
  0
ARC
  8
22
 10
45.2932
 20
8.9557
 30
0.0000
 40
0.5132
 50
180.0000
 51
0.0000
  0
ARC
  8
22
 10
42.5589
 20
9.3663
 30
0.0000
 40
1.5226
 50
0.0000
 51
25.9891
  0
ARC
  8
22
 10
43.5682
 20
9.9103
 30
0.0000
 40
0.3798
 50
18.9244
 51
90.0000
  0
ARC
  8
22
 10
43.5682
 20
9.9103
 30
0.0000
 40
0.3798
 50
90.0001
 51
161.0760
  0
ARC
  8
22
 10
44.5775
 20
9.3663
 30
0.0000
 40
1.5225
 50
154.0104
 51
180.0000
  0
ARC
  8
22
 10
42.5589
 20
9.3663
 30
0.0000
 40
1.5226
 50
334.0111
 51
359.9999
  0
ARC
  8
22
 10
43.5682
 20
8.8222
 30
0.0000
 40
0.3798
 50
269.9999
 51
341.0750
  0
ARC
  8
22
 10
44.5776
 20
9.3663
 30
0.0000
 40
1.5226
 50
180.0001
 51
205.9894
  0
ARC
  8
22
 10
43.5682
 20
8.8222
 30
0.0000
 40
0.3798
 50
198.9246
 51
270.0000
  0
LINE
  8
22
 10
43.9788
 20
8.8530
 30
0.0000
 11
43.1576
 21
9.8795
 31
0.0000
  0
LINE
  8
22
 10
42.3564
 20
8.4425
 30
0.0000
 11
41.7406
 21
8.4425
 31
0.0000
  0
ARC
  8
22
 10
41.7406
 20
8.8530
 30
0.0000
 40
0.4106
 50
180.0009
 51
270.0000
  0
LINE
  8
22
 10
41.3300
 20
8.8530
 30
0.0000
 11
41.3300
 21
9.0583
 31
0.0000
  0
ARC
  8
22
 10
41.7406
 20
9.0583
 30
0.0000
 40
0.4106
 50
89.9996
 51
180.0000
  0
LINE
  8
22
 10
41.7406
 20
9.4689
 30
0.0000
 11
42.3564
 21
9.4689
 31
0.0000
  0
LINE
  8
22
 10
42.3564
 20
9.4689
 30
0.0000
 11
42.3564
 21
10.2901
 31
0.0000
  0
LINE
  8
22
 10
42.3564
 20
10.2901
 30
0.0000
 11
41.3300
 21
10.2901
 31
0.0000
  0
LINE
  8
22
 10
40.6314
 20
8.4425
 30
0.0000
 11
40.0156
 21
8.4425
 31
0.0000
  0
ARC
  8
22
 10
40.0156
 20
8.8530
 30
0.0000
 40
0.4106
 50
180.0009
 51
270.0000
  0
LINE
  8
22
 10
39.6050
 20
8.8530
 30
0.0000
 11
39.6050
 21
9.0583
 31
0.0000
  0
ARC
  8
22
 10
40.0156
 20
9.0583
 30
0.0000
 40
0.4106
 50
89.9996
 51
180.0000
  0
LINE
  8
22
 10
40.0156
 20
9.4689
 30
0.0000
 11
40.6314
 21
9.4689
 31
0.0000
  0
LINE
  8
22
 10
40.6314
 20
9.4689
 30
0.0000
 11
40.6314
 21
10.2901
 31
0.0000
  0
LINE
  8
22
 10
40.6314
 20
10.2901
 30
0.0000
 11
39.6050
 21
10.2901
 31
0.0000
  0
INSERT
  8
17
  2
SQUAREP
 10
45.7200
 20
5.5563
 30
0.0000
 41
1.2000
 42
1.2000
 43
1.0000
 50
90.0000
  0
INSERT
  8
17
  2
SQUAREP
 10
45.7200
 20
5.5563
 30
0.0000
 41
1.2000
 42
1.2000
 43
1.0000
 50
90.0000
  0
INSERT
  8
17
  2
SQUAREP
 10
40.6400
 20
5.5563
 30
0.0000
 41
1.2000
 42
1.2000
 43
1.0000
 50
90.0000
  0
INSERT
  8
17
  2
SQUAREP
 10
40.6400
 20
5.5563
 30
0.0000
 41
1.2000
 42
1.2000
 43
1.0000
 50
90.0000
  0
INSERT
  8
17
  2
SQUAREP
 10
43.1800
 20
5.5563
 30
0.0000
 41
1.2000
 42
1.2000
 43
1.0000
 50
90.0000
  0
INSERT
  8
17
  2
SQUAREP
 10
43.1800
 20
5.5563
 30
0.0000
 41
1.2000
 42
1.2000
 43
1.0000
 50
90.0000
  0
INSERT
  8
17
  2
SQUAREP
 10
48.2600
 20
5.5563
 30
0.0000
 41
1.2000
 42
1.2000
 43
1.0000
 50
90.0000
  0
INSERT
  8
17
  2
SQUAREP
 10
48.2600
 20
5.5563
 30
0.0000
 41
1.2000
 42
1.2000
 43
1.0000
 50
90.0000
  0
POINT
  8
24
 10
52.3875
 20
20.4788
 30
0.0000
  0
LINE
  8
52
 10
48.8315
 20
15.3988
 30
0.0000
 11
55.9435
 21
15.3988
 31
0.0000
  0
LINE
  8
52
 10
48.8315
 20
25.5587
 30
0.0000
 11
55.9435
 21
25.5587
 31
0.0000
  0
LINE
  8
22
 10
48.8315
 20
15.3988
 30
0.0000
 11
55.9435
 21
15.3988
 31
0.0000
  0
LINE
  8
22
 10
48.8315
 20
25.5587
 30
0.0000
 11
55.9435
 21
25.5587
 31
0.0000
  0
LINE
  8
52
 10
48.8315
 20
15.3988
 30
0.0000
 11
48.8315
 21
25.5587
 31
0.0000
  0
LINE
  8
52
 10
55.9435
 20
15.3988
 30
0.0000
 11
55.9435
 21
25.5587
 31
0.0000
  0
LINE
  8
40
 10
57.2075
 20
15.1488
 30
0.0000
 11
47.5675
 21
15.1488
 31
0.0000
  0
LINE
  8
40
 10
57.2075
 20
25.8087
 30
0.0000
 11
47.5675
 21
25.8087
 31
0.0000
  0
LINE
  8
40
 10
57.2075
 20
15.1488
 30
0.0000
 11
57.2075
 21
25.8087
 31
0.0000
  0
LINE
  8
40
 10
47.5675
 20
15.1488
 30
0.0000
 11
47.5675
 21
25.8087
 31
0.0000
  0
CIRCLE
  8
22
 10
47.1500
 20
16.6687
 30
0.0000
 40
0.1000
  0
CIRCLE
  8
52
 10
47.1500
 20
16.6687
 30
0.0000
 40
0.1000
  0
INSERT
  8
17
  2
SQUAREP
 10
48.4505
 20
16.6687
 30
0.0000
 41
1.2450
 42
1.2450
 43
1.0000
 50
0.0000
  0
INSERT
  8
17
  2
SQUAREP
 10
48.4505
 20
16.6687
 30
0.0000
 41
1.2450
 42
1.2450
 43
1.0000
 50
0.0000
  0
INSERT
  8
17
  2
ROUNDP
 10
48.4505
 20
19.2088
 30
0.0000
 41
1.2450
 42
1.2450
 43
1.0000
 50
0.0000
  0
INSERT
  8
17
  2
ROUNDP
 10
48.4505
 20
19.2088
 30
0.0000
 41
1.2450
 42
1.2450
 43
1.0000
 50
0.0000
  0
INSERT
  8
17
  2
ROUNDP
 10
48.4505
 20
21.7488
 30
0.0000
 41
1.2450
 42
1.2450
 43
1.0000
 50
0.0000
  0
INSERT
  8
17
  2
ROUNDP
 10
48.4505
 20
21.7488
 30
0.0000
 41
1.2450
 42
1.2450
 43
1.0000
 50
0.0000
  0
INSERT
  8
17
  2
ROUNDP
 10
48.4505
 20
24.2888
 30
0.0000
 41
1.2450
 42
1.2450
 43
1.0000
 50
0.0000
  0
INSERT
  8
17
  2
ROUNDP
 10
48.4505
 20
24.2888
 30
0.0000
 41
1.2450
 42
1.2450
 43
1.0000
 50
0.0000
  0
INSERT
  8
17
  2
ROUNDP
 10
56.3245
 20
24.2888
 30
0.0000
 41
1.2450
 42
1.2450
 43
1.0000
 50
0.0000
  0
INSERT
  8
17
  2
ROUNDP
 10
56.3245
 20
24.2888
 30
0.0000
 41
1.2450
 42
1.2450
 43
1.0000
 50
0.0000
  0
INSERT
  8
17
  2
ROUNDP
 10
56.3245
 20
21.7488
 30
0.0000
 41
1.2450
 42
1.2450
 43
1.0000
 50
0.0000
  0
INSERT
  8
17
  2
ROUNDP
 10
56.3245
 20
21.7488
 30
0.0000
 41
1.2450
 42
1.2450
 43
1.0000
 50
0.0000
  0
INSERT
  8
17
  2
ROUNDP
 10
56.3245
 20
19.2088
 30
0.0000
 41
1.2450
 42
1.2450
 43
1.0000
 50
0.0000
  0
INSERT
  8
17
  2
ROUNDP
 10
56.3245
 20
19.2088
 30
0.0000
 41
1.2450
 42
1.2450
 43
1.0000
 50
0.0000
  0
INSERT
  8
17
  2
ROUNDP
 10
56.3245
 20
16.6687
 30
0.0000
 41
1.2450
 42
1.2450
 43
1.0000
 50
0.0000
  0
INSERT
  8
17
  2
ROUNDP
 10
56.3245
 20
16.6687
 30
0.0000
 41
1.2450
 42
1.2450
 43
1.0000
 50
0.0000
  0
LINE
  8
26
 10
50.1025
 20
15.1710
 30
0.0000
 11
50.1025
 21
14.3271
 31
0.0000
  0
ARC
  8
26
 10
49.7780
 20
14.3271
 30
0.0000
 40
0.3246
 50
180.0000
 51
0.0000
  0
LINE
  8
26
 10
49.4534
 20
14.3271
 30
0.0000
 11
49.4534
 21
15.1710
 31
0.0000
  0
LINE
  8
26
 10
48.9214
 20
14.9113
 30
0.0000
 11
48.5969
 21
15.1710
 31
0.0000
  0
LINE
  8
26
 10
48.5969
 20
15.1710
 30
0.0000
 11
48.5969
 21
14.0026
 31
0.0000
  0
LINE
  8
26
 10
48.9214
 20
14.0026
 30
0.0000
 11
48.2723
 21
14.0026
 31
0.0000
  0
POINT
  8
24
 10
24.4475
 20
10.0013
 30
0.0000
  0
LINE
  8
22
 10
22.0900
 20
14.9512
 30
0.0000
 11
27.8400
 21
14.9512
 31
0.0000
  0
LINE
  8
22
 10
27.8400
 20
14.9512
 30
0.0000
 11
27.8400
 21
5.0513
 31
0.0000
  0
LINE
  8
22
 10
27.8400
 20
5.0513
 30
0.0000
 11
22.0900
 21
5.0513
 31
0.0000
  0
LINE
  8
22
 10
22.0900
 20
5.0513
 30
0.0000
 11
22.0900
 21
14.9512
 31
0.0000
  0
LINE
  8
22
 10
22.1475
 20
7.4013
 30
0.0000
 11
22.6475
 21
7.4013
 31
0.0000
  0
LINE
  8
22
 10
22.1475
 20
12.5013
 30
0.0000
 11
22.6475
 21
12.5013
 31
0.0000
  0
LINE
  8
52
 10
23.7220
 20
5.8845
 30
0.0000
 11
23.9252
 21
6.1386
 31
0.0000
  0
LINE
  8
52
 10
23.9252
 20
6.1386
 30
0.0000
 11
23.0108
 21
6.1386
 31
0.0000
  0
LINE
  8
52
 10
23.0108
 20
5.8845
 30
0.0000
 11
23.0108
 21
6.3925
 31
0.0000
  0
INSERT
  8
17
  2
LONGP100
 10
24.4475
 20
7.4613
 30
0.0000
 41
1.5240
 42
1.5240
 43
1.0000
 50
0.0000
  0
INSERT
  8
17
  2
LONGP100
 10
24.4475
 20
7.4613
 30
0.0000
 41
1.5240
 42
1.5240
 43
1.0000
 50
0.0000
  0
INSERT
  8
17
  2
LONGP100
 10
24.4475
 20
10.0013
 30
0.0000
 41
1.5240
 42
1.5240
 43
1.0000
 50
0.0000
  0
INSERT
  8
17
  2
LONGP100
 10
24.4475
 20
10.0013
 30
0.0000
 41
1.5240
 42
1.5240
 43
1.0000
 50
0.0000
  0
INSERT
  8
17
  2
LONGP100
 10
24.4475
 20
12.5412
 30
0.0000
 41
1.5240
 42
1.5240
 43
1.0000
 50
0.0000
  0
INSERT
  8
17
  2
LONGP100
 10
24.4475
 20
12.5412
 30
0.0000
 41
1.5240
 42
1.5240
 43
1.0000
 50
0.0000
  0
LINE
  8
26
 10
23.9315
 20
3.4811
 30
0.0000
 11
23.3219
 21
4.3955
 31
0.0000
  0
LINE
  8
26
 10
23.9315
 20
4.3955
 30
0.0000
 11
23.3219
 21
3.4811
 31
0.0000
  0
LINE
  8
26
 10
22.9663
 20
4.1923
 30
0.0000
 11
22.7123
 21
4.3955
 31
0.0000
  0
LINE
  8
26
 10
22.7123
 20
4.3955
 30
0.0000
 11
22.7123
 21
3.4811
 31
0.0000
  0
LINE
  8
26
 10
22.9663
 20
3.4811
 30
0.0000
 11
22.4583
 21
3.4811
 31
0.0000
  0
POINT
  8
23
 10
2.3813
 20
15.7163
 30
0.0000
  0
LINE
  8
21
 10
0.0238
 20
9.5163
 30
0.0000
 11
5.7738
 21
9.5163
 31
0.0000
  0
LINE
  8
21
 10
5.7738
 20
9.5163
 30
0.0000
 11
5.7738
 21
21.9163
 31
0.0000
  0
LINE
  8
21
 10
5.7738
 20
21.9163
 30
0.0000
 11
0.0238
 21
21.9163
 31
0.0000
  0
LINE
  8
21
 10
0.0238
 20
21.9163
 30
0.0000
 11
0.0238
 21
9.5163
 31
0.0000
  0
LINE
  8
21
 10
0.0813
 20
19.5162
 30
0.0000
 11
0.5813
 21
19.5162
 31
0.0000
  0
LINE
  8
21
 10
0.0813
 20
11.8163
 30
0.0000
 11
0.5813
 21
11.8163
 31
0.0000
  0
LINE
  8
51
 10
1.1478
 20
20.6250
 30
0.0000
 11
0.9446
 21
20.8789
 31
0.0000
  0
LINE
  8
51
 10
0.9446
 20
20.8789
 30
0.0000
 11
1.8590
 21
20.8789
 31
0.0000
  0
LINE
  8
51
 10
1.8590
 20
20.6250
 30
0.0000
 11
1.8590
 21
21.1330
 31
0.0000
  0
INSERT
  8
17
  2
LONGP100
 10
2.3813
 20
19.5263
 30
0.0000
 41
1.5240
 42
1.5240
 43
1.0000
 50
0.0000
  0
INSERT
  8
17
  2
LONGP100
 10
2.3813
 20
19.5263
 30
0.0000
 41
1.5240
 42
1.5240
 43
1.0000
 50
0.0000
  0
INSERT
  8
17
  2
LONGP100
 10
2.3813
 20
16.9863
 30
0.0000
 41
1.5240
 42
1.5240
 43
1.0000
 50
0.0000
  0
INSERT
  8
17
  2
LONGP100
 10
2.3813
 20
16.9863
 30
0.0000
 41
1.5240
 42
1.5240
 43
1.0000
 50
0.0000
  0
INSERT
  8
17
  2
LONGP100
 10
2.3813
 20
14.4463
 30
0.0000
 41
1.5240
 42
1.5240
 43
1.0000
 50
0.0000
  0
INSERT
  8
17
  2
LONGP100
 10
2.3813
 20
14.4463
 30
0.0000
 41
1.5240
 42
1.5240
 43
1.0000
 50
0.0000
  0
INSERT
  8
17
  2
LONGP100
 10
2.3813
 20
11.9063
 30
0.0000
 41
1.5240
 42
1.5240
 43
1.0000
 50
0.0000
  0
INSERT
  8
17
  2
LONGP100
 10
2.3813
 20
11.9063
 30
0.0000
 41
1.5240
 42
1.5240
 43
1.0000
 50
0.0000
  0
LINE
  8
25
 10
0.3921
 20
22.4221
 30
0.0000
 11
1.0017
 21
23.3365
 31
0.0000
  0
LINE
  8
25
 10
0.3921
 20
23.3365
 30
0.0000
 11
1.0017
 21
22.4221
 31
0.0000
  0
ARC
  8
25
 10
1.6366
 20
23.1079
 30
0.0000
 40
0.2286
 50
0.0000
 51
90.0000
  0
ARC
  8
25
 10
1.6366
 20
23.0428
 30
0.0000
 40
0.2937
 50
90.0000
 51
162.0547
  0
ARC
  8
25
 10
1.6197
 20
23.1079
 30
0.0000
 40
0.2455
 50
313.6029
 51
359.9999
  0
LINE
  8
25
 10
1.7890
 20
22.9301
 30
0.0000
 11
1.3572
 21
22.4221
 31
0.0000
  0
LINE
  8
25
 10
1.3572
 20
22.4221
 30
0.0000
 11
1.8652
 21
22.4221
 31
0.0000
  0
POINT
  8
23
 10
64.7700
 20
15.7163
 30
0.0000
  0
LINE
  8
21
 10
67.1275
 20
21.9163
 30
0.0000
 11
61.3775
 21
21.9163
 31
0.0000
  0
LINE
  8
21
 10
61.3775
 20
21.9163
 30
0.0000
 11
61.3775
 21
9.5163
 31
0.0000
  0
LINE
  8
21
 10
61.3775
 20
9.5163
 30
0.0000
 11
67.1275
 21
9.5163
 31
0.0000
  0
LINE
  8
21
 10
67.1275
 20
9.5163
 30
0.0000
 11
67.1275
 21
21.9163
 31
0.0000
  0
LINE
  8
21
 10
67.0700
 20
11.9162
 30
0.0000
 11
66.5700
 21
11.9162
 31
0.0000
  0
LINE
  8
21
 10
67.0700
 20
19.6163
 30
0.0000
 11
66.5700
 21
19.6163
 31
0.0000
  0
LINE
  8
51
 10
65.4955
 20
10.2995
 30
0.0000
 11
65.2923
 21
10.5536
 31
0.0000
  0
LINE
  8
51
 10
65.2923
 20
10.5536
 30
0.0000
 11
66.2067
 21
10.5536
 31
0.0000
  0
LINE
  8
51
 10
66.2067
 20
10.2995
 30
0.0000
 11
66.2067
 21
10.8076
 31
0.0000
  0
INSERT
  8
17
  2
LONGP100
 10
64.7700
 20
11.9063
 30
0.0000
 41
1.5240
 42
1.5240
 43
1.0000
 50
180.0000
  0
INSERT
  8
17
  2
LONGP100
 10
64.7700
 20
11.9063
 30
0.0000
 41
1.5240
 42
1.5240
 43
1.0000
 50
180.0000
  0
INSERT
  8
17
  2
LONGP100
 10
64.7700
 20
14.4463
 30
0.0000
 41
1.5240
 42
1.5240
 43
1.0000
 50
180.0000
  0
INSERT
  8
17
  2
LONGP100
 10
64.7700
 20
14.4463
 30
0.0000
 41
1.5240
 42
1.5240
 43
1.0000
 50
180.0000
  0
INSERT
  8
17
  2
LONGP100
 10
64.7700
 20
16.9863
 30
0.0000
 41
1.5240
 42
1.5240
 43
1.0000
 50
180.0000
  0
INSERT
  8
17
  2
LONGP100
 10
64.7700
 20
16.9863
 30
0.0000
 41
1.5240
 42
1.5240
 43
1.0000
 50
180.0000
  0
INSERT
  8
17
  2
LONGP100
 10
64.7700
 20
19.5263
 30
0.0000
 41
1.5240
 42
1.5240
 43
1.0000
 50
180.0000
  0
INSERT
  8
17
  2
LONGP100
 10
64.7700
 20
19.5263
 30
0.0000
 41
1.5240
 42
1.5240
 43
1.0000
 50
180.0000
  0
POINT
  8
24
 10
19.0500
 20
10.0013
 30
0.0000
  0
LINE
  8
22
 10
21.4075
 20
5.0513
 30
0.0000
 11
15.6575
 21
5.0513
 31
0.0000
  0
LINE
  8
22
 10
15.6575
 20
5.0513
 30
0.0000
 11
15.6575
 21
14.9512
 31
0.0000
  0
LINE
  8
22
 10
15.6575
 20
14.9512
 30
0.0000
 11
21.4075
 21
14.9512
 31
0.0000
  0
LINE
  8
22
 10
21.4075
 20
14.9512
 30
0.0000
 11
21.4075
 21
5.0513
 31
0.0000
  0
LINE
  8
22
 10
21.3500
 20
12.6013
 30
0.0000
 11
20.8500
 21
12.6013
 31
0.0000
  0
LINE
  8
22
 10
21.3500
 20
7.5013
 30
0.0000
 11
20.8500
 21
7.5013
 31
0.0000
  0
LINE
  8
52
 10
20.2835
 20
13.6100
 30
0.0000
 11
20.4867
 21
13.8640
 31
0.0000
  0
LINE
  8
52
 10
20.4867
 20
13.8640
 30
0.0000
 11
19.5723
 21
13.8640
 31
0.0000
  0
LINE
  8
52
 10
19.5723
 20
13.6100
 30
0.0000
 11
19.5723
 21
14.1180
 31
0.0000
  0
INSERT
  8
17
  2
LONGP100
 10
19.0500
 20
12.5412
 30
0.0000
 41
1.5240
 42
1.5240
 43
1.0000
 50
180.0000
  0
INSERT
  8
17
  2
LONGP100
 10
19.0500
 20
12.5412
 30
0.0000
 41
1.5240
 42
1.5240
 43
1.0000
 50
180.0000
  0
INSERT
  8
17
  2
LONGP100
 10
19.0500
 20
10.0013
 30
0.0000
 41
1.5240
 42
1.5240
 43
1.0000
 50
180.0000
  0
INSERT
  8
17
  2
LONGP100
 10
19.0500
 20
10.0013
 30
0.0000
 41
1.5240
 42
1.5240
 43
1.0000
 50
180.0000
  0
INSERT
  8
17
  2
LONGP100
 10
19.0500
 20
7.4613
 30
0.0000
 41
1.5240
 42
1.5240
 43
1.0000
 50
180.0000
  0
INSERT
  8
17
  2
LONGP100
 10
19.0500
 20
7.4613
 30
0.0000
 41
1.5240
 42
1.5240
 43
1.0000
 50
180.0000
  0
LINE
  8
26
 10
28.3417
 20
15.9245
 30
0.0000
 11
27.7321
 21
16.8390
 31
0.0000
  0
LINE
  8
26
 10
28.3417
 20
16.8390
 30
0.0000
 11
27.7321
 21
15.9245
 31
0.0000
  0
LINE
  8
26
 10
27.1733
 20
16.8390
 30
0.0000
 11
27.3765
 21
16.1278
 31
0.0000
  0
LINE
  8
26
 10
27.3765
 20
16.1278
 30
0.0000
 11
26.8685
 21
16.1278
 31
0.0000
  0
LINE
  8
26
 10
27.0209
 20
16.3310
 30
0.0000
 11
27.0209
 21
15.9245
 31
0.0000
  0
LINE
  8
16
 10
24.4475
 20
7.4613
 30
0.0000
 11
25.5587
 21
7.4613
 31
0.0000
  0
LINE
  8
16
 10
27.9143
 20
9.8168
 30
0.0000
 11
25.5587
 21
7.4613
 31
0.0000
  0
LINE
  8
16
 10
41.0905
 20
9.8168
 30
0.0000
 11
27.9143
 21
9.8168
 31
0.0000
  0
LINE
  8
16
 10
42.5450
 20
11.2713
 30
0.0000
 11
41.0905
 21
9.8168
 31
0.0000
  0
LINE
  8
1
 10
38.6548
 20
28.0331
 30
0.0000
 11
38.6548
 21
28.2865
 31
0.0000
  0
LINE
  8
1
 10
38.6548
 20
28.2865
 30
0.0000
 11
38.0900
 21
28.8513
 31
0.0000
  0
LINE
  8
1
 10
42.5450
 20
24.1429
 30
0.0000
 11
38.6548
 21
28.0331
 31
0.0000
  0
LINE
  8
1
 10
42.5450
 20
24.1429
 30
0.0000
 11
42.5450
 21
11.2713
 31
0.0000
  0
INSERT
  8
18
  2
ROUNDV
 10
42.5450
 20
11.2713
 30
0.0000
 41
0.8048
 42
0.8048
 43
1.0000
 50
0.0000
  0
INSERT
  8
18
  2
ROUNDV
 10
42.5450
 20
11.2713
 30
0.0000
 41
0.8048
 42
0.8048
 43
1.0000
 50
0.0000
  0
LINE
  8
16
 10
24.4475
 20
10.0013
 30
0.0000
 11
25.7175
 21
10.0013
 31
0.0000
  0
LINE
  8
16
 10
26.9875
 20
11.2713
 30
0.0000
 11
25.7175
 21
10.0013
 31
0.0000
  0
LINE
  8
16
 10
40.1638
 20
11.2713
 30
0.0000
 11
34.1313
 21
11.2713
 31
0.0000
  0
LINE
  8
16
 10
34.1313
 20
11.2713
 30
0.0000
 11
26.9875
 21
11.2713
 31
0.0000
  0
LINE
  8
1
 10
40.6400
 20
22.5425
 30
0.0000
 11
40.6400
 21
11.7475
 31
0.0000
  0
LINE
  8
1
 10
40.6400
 20
11.7475
 30
0.0000
 11
40.1638
 21
11.2713
 31
0.0000
  0
LINE
  8
1
 10
40.6400
 20
22.5425
 30
0.0000
 11
38.1000
 21
25.0825
 31
0.0000
  0
LINE
  8
16
 10
24.4475
 20
10.0013
 30
0.0000
 11
22.5425
 21
10.0013
 31
0.0000
  0
LINE
  8
16
 10
24.4475
 20
10.0013
 30
0.0000
 11
19.0500
 21
10.0013
 31
0.0000
  0
LINE
  8
1
 10
16.6588
 20
8.8900
 30
0.0000
 11
16.6588
 21
4.5575
 31
0.0000
  0
LINE
  8
1
 10
16.6588
 20
4.5575
 30
0.0000
 11
17.7700
 21
3.4463
 31
0.0000
  0
LINE
  8
1
 10
19.0500
 20
10.0013
 30
0.0000
 11
17.7700
 21
10.0013
 31
0.0000
  0
LINE
  8
1
 10
17.7700
 20
10.0013
 30
0.0000
 11
16.6588
 21
8.8900
 31
0.0000
  0
LINE
  8
1
 10
48.2600
 20
5.5563
 30
0.0000
 11
45.4025
 21
8.4138
 31
0.0000
  0
LINE
  8
1
 10
45.4025
 20
8.4138
 30
0.0000
 11
35.8775
 21
8.4138
 31
0.0000
  0
LINE
  8
1
 10
35.8775
 20
8.4138
 30
0.0000
 11
34.1313
 21
10.1600
 31
0.0000
  0
LINE
  8
1
 10
34.1313
 20
10.1600
 30
0.0000
 11
34.1313
 21
11.2713
 31
0.0000
  0
LINE
  8
16
 10
48.8388
 20
1.1113
 30
0.0000
 11
48.6800
 21
0.9525
 31
0.0000
  0
LINE
  8
1
 10
20.1050
 20
1.1113
 30
0.0000
 11
41.2188
 21
1.1113
 31
0.0000
  0
LINE
  8
1
 10
17.7700
 20
3.4463
 30
0.0000
 11
20.1050
 21
1.1113
 31
0.0000
  0
LINE
  8
16
 10
48.8388
 20
1.1113
 30
0.0000
 11
41.2188
 21
1.1113
 31
0.0000
  0
INSERT
  8
18
  2
ROUNDV
 10
40.1638
 20
11.2713
 30
0.0000
 41
0.8048
 42
0.8048
 43
1.0000
 50
0.0000
  0
INSERT
  8
18
  2
ROUNDV
 10
40.1638
 20
11.2713
 30
0.0000
 41
0.8048
 42
0.8048
 43
1.0000
 50
0.0000
  0
INSERT
  8
18
  2
ROUNDV
 10
34.1313
 20
11.2713
 30
0.0000
 41
0.9048
 42
0.9048
 43
1.0000
 50
0.0000
  0
INSERT
  8
18
  2
ROUNDV
 10
34.1313
 20
11.2713
 30
0.0000
 41
0.9048
 42
0.9048
 43
1.0000
 50
0.0000
  0
INSERT
  8
18
  2
ROUNDV
 10
48.8388
 20
1.1113
 30
0.0000
 41
0.9048
 42
0.9048
 43
1.0000
 50
0.0000
  0
INSERT
  8
18
  2
ROUNDV
 10
48.8388
 20
1.1113
 30
0.0000
 41
0.9048
 42
0.9048
 43
1.0000
 50
0.0000
  0
INSERT
  8
18
  2
ROUNDV
 10
41.2188
 20
1.1113
 30
0.0000
 41
0.9048
 42
0.9048
 43
1.0000
 50
0.0000
  0
INSERT
  8
18
  2
ROUNDV
 10
41.2188
 20
1.1113
 30
0.0000
 41
0.9048
 42
0.9048
 43
1.0000
 50
0.0000
  0
LINE
  8
1
 10
40.6300
 20
28.8513
 30
0.0000
 11
40.6300
 21
28.6925
 31
0.0000
  0
LINE
  8
1
 10
44.2913
 20
25.0313
 30
0.0000
 11
40.6300
 21
28.6925
 31
0.0000
  0
LINE
  8
1
 10
44.2913
 20
25.0313
 30
0.0000
 11
44.2913
 21
14.2875
 31
0.0000
  0
LINE
  8
16
 10
44.2913
 20
14.2875
 30
0.0000
 11
44.1325
 21
14.1288
 31
0.0000
  0
LINE
  8
16
 10
20.6375
 20
14.1288
 30
0.0000
 11
19.0500
 21
12.5412
 31
0.0000
  0
LINE
  8
16
 10
44.1325
 20
14.1288
 30
0.0000
 11
20.6375
 21
14.1288
 31
0.0000
  0
INSERT
  8
18
  2
ROUNDV
 10
44.2913
 20
14.2875
 30
0.0000
 41
0.6548
 42
0.6548
 43
1.0000
 50
0.0000
  0
INSERT
  8
18
  2
ROUNDV
 10
44.2913
 20
14.2875
 30
0.0000
 41
0.6548
 42
0.6548
 43
1.0000
 50
0.0000
  0
LINE
  8
1
 10
56.3245
 20
19.2088
 30
0.0000
 11
58.5787
 21
21.4630
 31
0.0000
  0
LINE
  8
1
 10
58.5787
 20
21.4630
 30
0.0000
 11
58.7375
 21
21.6218
 31
0.0000
  0
LINE
  8
1
 10
58.5787
 20
21.1137
 30
0.0000
 11
58.5787
 21
21.4630
 31
0.0000
  0
LINE
  8
1
 10
58.7375
 20
21.6218
 30
0.0000
 11
58.7375
 21
23.6538
 31
0.0000
  0
LINE
  8
1
 10
64.7700
 20
16.9863
 30
0.0000
 11
63.5000
 21
16.9863
 31
0.0000
  0
LINE
  8
1
 10
63.5000
 20
16.9863
 30
0.0000
 11
59.3725
 21
21.1137
 31
0.0000
  0
LINE
  8
1
 10
59.3725
 20
21.1137
 30
0.0000
 11
58.5787
 21
21.1137
 31
0.0000
  0
LINE
  8
16
 10
58.7375
 20
23.6538
 30
0.0000
 11
58.7375
 21
24.6063
 31
0.0000
  0
LINE
  8
16
 10
58.7375
 20
24.6063
 30
0.0000
 11
57.5262
 21
25.8176
 31
0.0000
  0
LINE
  8
16
 10
57.5262
 20
25.8176
 30
0.0000
 11
43.7564
 21
25.8176
 31
0.0000
  0
LINE
  8
16
 10
43.7564
 20
25.8176
 30
0.0000
 11
39.3700
 21
21.4313
 31
0.0000
  0
LINE
  8
16
 10
39.3700
 20
21.4313
 30
0.0000
 11
7.9375
 21
21.4313
 31
0.0000
  0
LINE
  8
16
 10
6.0325
 20
19.5263
 30
0.0000
 11
6.0325
 21
16.8275
 31
0.0000
  0
LINE
  8
16
 10
6.0325
 20
16.8275
 30
0.0000
 11
3.6513
 21
14.4463
 31
0.0000
  0
LINE
  8
16
 10
3.6513
 20
14.4463
 30
0.0000
 11
2.3813
 21
14.4463
 31
0.0000
  0
LINE
  8
16
 10
7.9375
 20
21.4313
 30
0.0000
 11
6.0325
 21
19.5263
 31
0.0000
  0
LINE
  8
16
 10
4.7625
 20
19.6850
 30
0.0000
 11
4.7625
 21
18.4150
 31
0.0000
  0
LINE
  8
16
 10
4.7625
 20
19.6850
 30
0.0000
 11
7.4613
 21
22.3838
 31
0.0000
  0
LINE
  8
16
 10
4.7625
 20
18.4150
 30
0.0000
 11
3.3338
 21
16.9863
 31
0.0000
  0
LINE
  8
16
 10
3.3338
 20
16.9863
 30
0.0000
 11
2.3813
 21
16.9863
 31
0.0000
  0
LINE
  8
16
 10
7.4613
 20
22.3838
 30
0.0000
 11
38.8938
 21
22.3838
 31
0.0000
  0
LINE
  8
16
 10
38.8938
 20
22.3838
 30
0.0000
 11
43.3388
 21
26.8288
 31
0.0000
  0
LINE
  8
16
 10
43.3388
 20
26.8288
 30
0.0000
 11
58.4200
 21
26.8288
 31
0.0000
  0
LINE
  8
16
 10
58.4200
 20
26.8288
 30
0.0000
 11
61.5950
 21
23.6538
 31
0.0000
  0
LINE
  8
16
 10
61.5950
 20
23.6538
 30
0.0000
 11
61.5950
 21
16.0338
 31
0.0000
  0
LINE
  8
16
 10
61.5950
 20
16.0338
 30
0.0000
 11
63.1825
 21
14.4463
 31
0.0000
  0
LINE
  8
16
 10
63.1825
 20
14.4463
 30
0.0000
 11
64.7700
 21
14.4463
 31
0.0000
  0
LINE
  8
16
 10
58.7375
 20
16.0338
 30
0.0000
 11
61.5950
 21
16.0338
 31
0.0000
  0
LINE
  8
16
 10
56.3245
 20
21.7488
 30
0.0000
 11
57.3088
 21
21.7488
 31
0.0000
  0
LINE
  8
16
 10
57.3088
 20
21.7488
 30
0.0000
 11
58.7375
 21
20.3200
 31
0.0000
  0
LINE
  8
16
 10
58.7375
 20
20.3200
 30
0.0000
 11
58.7375
 21
16.0338
 31
0.0000
  0
LINE
  8
1
 10
35.5500
 20
28.8513
 30
0.0000
 11
35.5500
 21
25.0925
 31
0.0000
  0
LINE
  8
1
 10
35.5500
 20
25.0925
 30
0.0000
 11
35.5600
 21
25.0825
 31
0.0000
  0
LINE
  8
16
 10
37.8400
 20
19.8438
 30
0.0000
 11
35.5600
 21
17.5638
 31
0.0000
  0
LINE
  8
16
 10
35.5600
 20
17.4625
 30
0.0000
 11
35.5600
 21
17.5638
 31
0.0000
  0
LINE
  8
16
 10
48.4505
 20
24.2888
 30
0.0000
 11
46.5455
 21
24.2888
 31
0.0000
  0
LINE
  8
16
 10
46.5455
 20
24.2888
 30
0.0000
 11
42.1005
 21
19.8438
 31
0.0000
  0
LINE
  8
16
 10
42.1005
 20
19.8438
 30
0.0000
 11
37.8400
 21
19.8438
 31
0.0000
  0
LINE
  8
1
 10
33.0100
 20
28.8513
 30
0.0000
 11
33.0100
 21
25.0925
 31
0.0000
  0
LINE
  8
1
 10
33.0100
 20
25.0925
 30
0.0000
 11
33.0200
 21
25.0825
 31
0.0000
  0
LINE
  8
16
 10
33.0200
 20
17.4625
 30
0.0000
 11
34.6075
 21
15.8750
 31
0.0000
  0
LINE
  8
16
 10
48.4505
 20
16.6687
 30
0.0000
 11
47.6568
 21
15.8750
 31
0.0000
  0
LINE
  8
16
 10
47.6568
 20
15.8750
 30
0.0000
 11
34.6075
 21
15.8750
 31
0.0000
  0
LINE
  8
1
 10
15.2400
 20
25.0825
 30
0.0000
 11
15.2400
 21
17.4625
 31
0.0000
  0
LINE
  8
16
 10
15.2400
 20
17.4625
 30
0.0000
 11
15.2400
 21
8.6109
 31
0.0000
  0
LINE
  8
16
 10
16.3896
 20
7.4613
 30
0.0000
 11
15.2400
 21
8.6109
 31
0.0000
  0
LINE
  8
16
 10
24.4475
 20
12.5412
 30
0.0000
 11
24.6063
 21
12.7000
 31
0.0000
  0
LINE
  8
16
 10
19.0500
 20
7.4613
 30
0.0000
 11
16.3896
 21
7.4613
 31
0.0000
  0
LINE
  8
1
 10
24.4475
 20
12.5412
 30
0.0000
 11
23.8125
 21
12.5412
 31
0.0000
  0
LINE
  8
1
 10
23.8125
 20
12.5412
 30
0.0000
 11
21.7488
 21
10.4775
 31
0.0000
  0
LINE
  8
1
 10
21.7488
 20
10.4775
 30
0.0000
 11
21.7488
 21
8.2550
 31
0.0000
  0
LINE
  8
1
 10
21.7488
 20
8.2550
 30
0.0000
 11
20.9550
 21
7.4613
 31
0.0000
  0
LINE
  8
1
 10
20.9550
 20
7.4613
 30
0.0000
 11
19.0500
 21
7.4613
 31
0.0000
  0
LINE
  8
1
 10
15.2400
 20
25.0825
 30
0.0000
 11
15.2400
 21
25.8763
 31
0.0000
  0
LINE
  8
1
 10
15.2400
 20
25.8763
 30
0.0000
 11
16.3513
 21
26.9875
 31
0.0000
  0
LINE
  8
1
 10
16.3513
 20
26.9875
 30
0.0000
 11
19.0500
 21
26.9875
 31
0.0000
  0
LINE
  8
1
 10
19.0500
 20
26.9875
 30
0.0000
 11
20.3100
 21
28.2475
 31
0.0000
  0
LINE
  8
1
 10
20.3100
 20
28.2475
 30
0.0000
 11
20.3100
 21
28.8513
 31
0.0000
  0
LINE
  8
1
 10
5.2388
 20
17.7800
 30
0.0000
 11
5.2388
 21
10.0013
 31
0.0000
  0
LINE
  8
16
 10
15.2400
 20
8.6109
 30
0.0000
 11
6.6291
 21
8.6109
 31
0.0000
  0
LINE
  8
16
 10
5.2388
 20
10.0013
 30
0.0000
 11
6.6291
 21
8.6109
 31
0.0000
  0
LINE
  8
1
 10
20.3100
 20
7.4613
 30
0.0000
 11
20.3100
 21
3.4463
 31
0.0000
  0
LINE
  8
1
 10
19.0500
 20
7.4613
 30
0.0000
 11
20.3100
 21
7.4613
 31
0.0000
  0
LINE
  8
16
 10
51.1175
 20
12.7000
 30
0.0000
 11
56.3245
 21
12.7000
 31
0.0000
  0
LINE
  8
16
 10
56.3245
 20
12.7000
 30
0.0000
 11
56.3245
 21
16.6687
 31
0.0000
  0
LINE
  8
16
 10
24.6063
 20
12.7000
 30
0.0000
 11
51.1175
 21
12.7000
 31
0.0000
  0
LINE
  8
16
 10
48.4505
 20
19.2088
 30
0.0000
 11
49.6887
 21
19.2088
 31
0.0000
  0
LINE
  8
16
 10
49.6887
 20
19.2088
 30
0.0000
 11
51.1175
 21
17.7800
 31
0.0000
  0
LINE
  8
16
 10
51.1175
 20
17.7800
 30
0.0000
 11
51.1175
 21
12.7000
 31
0.0000
  0
LINE
  8
16
 10
64.7700
 20
11.9063
 30
0.0000
 11
63.3413
 21
11.9063
 31
0.0000
  0
LINE
  8
16
 10
63.3413
 20
11.9063
 30
0.0000
 11
62.5475
 21
12.7000
 31
0.0000
  0
LINE
  8
16
 10
62.5475
 20
12.7000
 30
0.0000
 11
56.3245
 21
12.7000
 31
0.0000
  0
LINE
  8
1
 10
45.7200
 20
5.5563
 30
0.0000
 11
44.2913
 21
6.9850
 31
0.0000
  0
LINE
  8
1
 10
27.9400
 20
8.4138
 30
0.0000
 11
27.9400
 21
11.1125
 31
0.0000
  0
LINE
  8
1
 10
27.9400
 20
11.1125
 30
0.0000
 11
26.5113
 21
12.5412
 31
0.0000
  0
LINE
  8
1
 10
26.5113
 20
12.5412
 30
0.0000
 11
24.4475
 21
12.5412
 31
0.0000
  0
LINE
  8
1
 10
44.2913
 20
6.9850
 30
0.0000
 11
29.3688
 21
6.9850
 31
0.0000
  0
LINE
  8
1
 10
29.3688
 20
6.9850
 30
0.0000
 11
27.9400
 21
8.4138
 31
0.0000
  0
LINE
  8
1
 10
2.3813
 20
19.5263
 30
0.0000
 11
3.4925
 21
19.5263
 31
0.0000
  0
LINE
  8
1
 10
3.4925
 20
19.5263
 30
0.0000
 11
5.2388
 21
17.7800
 31
0.0000
  0
INSERT
  8
18
  2
ROUNDV
 10
5.2388
 20
10.0013
 30
0.0000
 41
0.8048
 42
0.8048
 43
1.0000
 50
0.0000
  0
INSERT
  8
18
  2
ROUNDV
 10
5.2388
 20
10.0013
 30
0.0000
 41
0.8048
 42
0.8048
 43
1.0000
 50
0.0000
  0
LINE
  8
16
 10
40.6400
 20
5.5563
 30
0.0000
 11
42.3863
 21
7.3025
 31
0.0000
  0
LINE
  8
16
 10
42.3863
 20
7.3025
 30
0.0000
 11
49.0538
 21
7.3025
 31
0.0000
  0
LINE
  8
16
 10
50.7900
 20
5.5663
 30
0.0000
 11
50.7900
 21
3.4463
 31
0.0000
  0
LINE
  8
16
 10
49.0538
 20
7.3025
 30
0.0000
 11
50.7900
 21
5.5663
 31
0.0000
  0
LINE
  8
1
 10
50.5388
 20
1.1113
 30
0.0000
 11
50.5388
 21
3.1950
 31
0.0000
  0
LINE
  8
1
 10
50.5388
 20
3.1950
 30
0.0000
 11
50.7900
 21
3.4463
 31
0.0000
  0
LINE
  8
1
 10
43.1700
 20
3.4463
 30
0.0000
 11
43.1700
 21
1.4680
 31
0.0000
  0
LINE
  8
1
 10
43.1700
 20
1.4680
 30
0.0000
 11
42.9188
 21
1.2167
 31
0.0000
  0
LINE
  8
1
 10
42.9188
 20
1.1113
 30
0.0000
 11
42.9188
 21
1.2167
 31
0.0000
  0
LINE
  8
1
 10
43.1700
 20
3.4463
 30
0.0000
 11
43.1700
 21
1.3625
 31
0.0000
  0
LINE
  8
1
 10
43.1700
 20
1.3625
 30
0.0000
 11
42.9188
 21
1.1113
 31
0.0000
  0
LINE
  8
1
 10
43.1700
 20
3.4463
 30
0.0000
 11
43.1700
 21
5.5463
 31
0.0000
  0
LINE
  8
1
 10
43.1700
 20
5.5463
 30
0.0000
 11
43.1800
 21
5.5563
 31
0.0000
  0
LINE
  8
1
 10
4.2862
 20
8.2550
 30
0.0000
 11
2.3813
 21
10.1600
 31
0.0000
  0
LINE
  8
1
 10
2.3813
 20
11.9063
 30
0.0000
 11
2.3813
 21
10.1600
 31
0.0000
  0
LINE
  8
1
 10
4.2862
 20
8.2550
 30
0.0000
 11
6.5088
 21
8.2550
 31
0.0000
  0
LINE
  8
1
 10
17.7700
 20
28.8513
 30
0.0000
 11
14.2462
 21
28.8513
 31
0.0000
  0
LINE
  8
1
 10
11.5888
 20
26.1938
 30
0.0000
 11
11.5888
 21
15.3988
 31
0.0000
  0
LINE
  8
1
 10
14.2462
 20
28.8513
 30
0.0000
 11
11.5888
 21
26.1938
 31
0.0000
  0
LINE
  8
1
 10
38.1000
 20
15.3988
 30
0.0000
 11
38.1000
 21
17.4625
 31
0.0000
  0
LINE
  8
1
 10
64.7700
 20
19.5263
 30
0.0000
 11
64.7700
 21
20.3200
 31
0.0000
  0
LINE
  8
1
 10
64.7700
 20
20.3200
 30
0.0000
 11
58.4200
 21
26.6700
 31
0.0000
  0
LINE
  8
1
 10
58.4200
 20
26.6700
 30
0.0000
 11
47.7838
 21
26.6700
 31
0.0000
  0
LINE
  8
1
 10
47.7838
 20
26.6700
 30
0.0000
 11
46.5138
 21
25.4000
 31
0.0000
  0
LINE
  8
1
 10
11.5888
 20
15.3988
 30
0.0000
 11
38.1000
 21
15.3988
 31
0.0000
  0
LINE
  8
1
 10
46.5138
 20
13.3350
 30
0.0000
 11
43.0213
 21
9.8425
 31
0.0000
  0
LINE
  8
1
 10
43.0213
 20
9.8425
 30
0.0000
 11
39.3700
 21
9.8425
 31
0.0000
  0
LINE
  8
1
 10
38.1000
 20
11.1125
 30
0.0000
 11
38.1000
 21
15.3988
 31
0.0000
  0
LINE
  8
1
 10
46.5138
 20
25.4000
 30
0.0000
 11
46.5138
 21
21.5900
 31
0.0000
  0
LINE
  8
1
 10
46.5138
 20
21.5900
 30
0.0000
 11
46.5138
 21
13.3350
 31
0.0000
  0
LINE
  8
1
 10
39.3700
 20
9.8425
 30
0.0000
 11
38.1000
 21
11.1125
 31
0.0000
  0
LINE
  8
1
 10
46.5138
 20
21.5900
 30
0.0000
 11
48.2918
 21
21.5900
 31
0.0000
  0
LINE
  8
1
 10
48.2918
 20
21.5900
 30
0.0000
 11
48.4505
 21
21.7488
 31
0.0000
  0
LINE
  8
1
 10
11.5888
 20
13.3350
 30
0.0000
 11
11.5888
 21
15.3988
 31
0.0000
  0
LINE
  8
1
 10
6.5088
 20
8.2550
 30
0.0000
 11
11.5888
 21
13.3350
 31
0.0000
  0
ENDSEC
  0
EOF
